<svg xmlns="http://www.w3.org/2000/svg" xmlns:xlink="http://www.w3.org/1999/xlink" viewBox="0 0 94 20"><path d="M 10.606 0 L 10.606 7.032 C 9.627 5.609 8.186 4.983 6.399 4.983 C 1.931 4.983 0 8.399 0 12.584 C 0 16.768 1.931 20.214 6.399 20.214 C 8.186 20.214 9.627 19.587 10.606 18.135 L 10.606 19.929 L 14.354 19.929 L 14.354 0 L 10.607 0 Z M 7.177 16.798 C 4.784 16.798 3.747 15.516 3.747 12.584 C 3.747 9.68 4.784 8.399 7.177 8.399 C 9.569 8.399 10.607 9.68 10.607 12.584 C 10.607 15.516 9.569 16.797 7.177 16.797 Z M 31.749 13.666 L 31.749 5.267 L 28.002 5.267 L 28.002 13.382 C 28.002 15.944 27.108 16.798 24.716 16.798 C 22.324 16.798 21.43 15.944 21.43 13.382 L 21.43 5.267 L 17.683 5.267 L 17.683 13.666 C 17.683 18.42 20.335 20.214 24.716 20.214 C 29.098 20.214 31.749 18.42 31.749 13.666 Z M 34.199 12.584 C 34.199 17.053 36.419 20.214 41.03 20.214 C 45.296 20.214 47.515 17.338 47.515 13.951 L 43.768 13.951 C 43.653 15.573 43.192 16.797 41.088 16.797 C 38.552 16.797 37.946 15.431 37.946 12.584 C 37.946 9.737 38.552 8.399 41.088 8.399 C 43.192 8.399 43.653 9.623 43.768 11.246 L 47.515 11.246 C 47.515 7.858 45.296 4.982 41.03 4.982 C 36.419 4.982 34.199 8.114 34.199 12.584 Z M 62.734 16.37 L 62.734 5.267 L 51.493 5.267 L 51.493 8.54 L 58.987 8.54 L 58.987 11.674 C 58.266 10.62 57.142 9.965 54.98 9.965 C 51.464 9.965 49.821 12.47 49.821 15.09 C 49.821 17.709 51.464 20.214 54.98 20.214 C 57.142 20.214 58.266 19.531 58.987 18.506 L 58.987 19.93 L 64.607 19.93 L 64.607 16.371 L 62.734 16.371 Z M 56.277 17.139 C 54.317 17.139 53.568 16.228 53.568 15.089 C 53.568 13.951 54.317 13.039 56.277 13.039 C 58.237 13.039 58.987 13.951 58.987 15.089 C 58.987 16.228 58.237 17.139 56.277 17.139 Z M 67.342 0 L 67.342 19.929 L 71.089 19.929 L 71.089 0 Z M 74.548 0 L 74.548 2.847 L 78.295 2.847 L 78.295 0 Z M 74.548 5.267 L 74.548 19.929 L 78.295 19.929 L 78.295 5.267 L 74.548 5.267 Z M 81.606 18.392 C 83.71 19.786 85.757 20.214 88.005 20.214 C 91.377 20.214 94 18.534 94 15.63 C 94 12.812 92.357 11.901 88.034 11.018 C 85.728 10.534 85.353 10.135 85.353 9.424 C 85.353 8.769 85.843 8.399 86.881 8.399 C 88.466 8.399 90.743 8.854 92.847 9.88 L 92.847 6.463 C 91.435 5.495 89.1 4.982 87.169 4.982 C 84.085 4.982 81.606 6.32 81.606 9.252 C 81.606 11.502 82.903 13.267 87.429 13.951 C 89.734 14.321 90.253 14.719 90.253 15.545 C 90.253 16.257 89.676 16.797 88.293 16.797 C 86.16 16.797 84.229 16.285 81.606 14.662 Z" fill="rgb(231,182,74)"></path></svg>