<?xml version="1.0" encoding="iso-8859-1"?>
<!-- Generator: Adobe Illustrator 19.0.0, SVG Export Plug-In . SVG Version: 6.00 Build 0)  -->
<svg version="1.1" id="Capa_1" xmlns="http://www.w3.org/2000/svg" xmlns:xlink="http://www.w3.org/1999/xlink" x="0px" y="0px"
	 viewBox="0 0 512.007 512.007" style="enable-background:new 0 0 512.007 512.007;" xml:space="preserve">
<circle style="fill:#6E64C3;" cx="256.003" cy="256.003" r="256.003"/>
<path style="fill:#41378C;" d="M140.772,196.735c0,7.997,0.816,15.531,2.367,22.592c-0.133-0.145-0.269-0.285-0.402-0.43
	l-11.18,31.54c1.13,1.048,2.269,2.078,3.419,3.094c-0.029,0.096-0.057,0.191-0.085,0.286c-9.605,5.615-20.72,25.273-27.421,50.148
	c-5.165,19.173-2.535,38.063,0.282,49.832c0.496,2.069,1.525,3.656,2.843,4.707l-0.036,0.036l33.891,33.891
	c-2.518,3.258-3.783,6.704-3.529,10.196c0.04,0.553,0.129,1.097,0.244,1.637c-0.229,1.119-0.325,2.247-0.244,3.381
	c0.259,3.587,2.108,6.89,5.216,9.81l-0.006,0.006l94.038,94.038c5.239,0.319,10.514,0.502,15.833,0.502
	c130.61,0,238.367-97.814,254.034-224.183L337.694,115.477c-0.145-0.146-0.29-0.291-0.435-0.435l0,0
	c-20.835-20.724-49.549-33.535-81.258-33.535C192.361,81.508,140.772,133.097,140.772,196.735z"/>
<ellipse transform="matrix(-0.0722 -0.9974 0.9974 -0.0722 -185.9012 633.5535)" style="fill:#FA870A;" cx="201.724" cy="403.242" rx="26.956" ry="60.956"/>
<ellipse transform="matrix(-0.0722 -0.9974 0.9974 -0.0722 -180.8969 628.1729)" style="fill:#FFC305;" cx="201.724" cy="398.224" rx="26.956" ry="60.956"/>
<ellipse transform="matrix(-0.0722 0.9974 -0.9974 -0.0722 734.8809 122.8624)" style="fill:#FA870A;" cx="310.295" cy="403.235" rx="26.956" ry="60.956"/>
<ellipse transform="matrix(-0.0722 0.9974 -0.9974 -0.0722 729.8851 117.4867)" style="fill:#FFC305;" cx="310.298" cy="398.223" rx="26.956" ry="60.956"/>
<path style="fill:#373C41;" d="M404.532,303.966c-6.701-24.875-17.816-44.532-27.421-50.148c-2.639-8.963-6.245-17.51-10.699-25.523
	c3.128-9.548,4.817-20.073,4.817-31.559c0-63.639-51.59-115.229-115.229-115.229s-115.229,51.59-115.229,115.229
	c0,11.486,1.689,22.012,4.817,31.559c-4.453,8.013-8.06,16.56-10.699,25.523c-9.605,5.616-20.72,25.273-27.421,50.148
	c-5.165,19.173-2.536,38.063,0.282,49.832c1.547,6.462,8.272,8.275,12.856,3.463c5.22-5.479,11.774-13.401,17.217-23.256
	c17.989,47.776,64.11,81.769,118.176,81.769s100.187-33.992,118.176-81.769c5.442,9.855,11.997,17.777,17.217,23.256
	c4.584,4.811,11.309,2.999,12.856-3.463C407.067,342.028,409.697,323.139,404.532,303.966z"/>
<path style="fill:#F3F3F3;" d="M314.759,216.072H197.242c-22.494,19.96-36.965,51.111-36.965,86.117
	c0,60.246,42.857,109.086,95.723,109.086c52.867,0,95.723-48.84,95.723-109.086C351.724,267.183,337.253,236.032,314.759,216.072z"
	/>
<path style="fill:#FFC305;" d="M328.513,220.614c0-9.277-32.465-16.798-72.512-16.798s-72.512,7.521-72.512,16.798
	c0,5.068,9.702,9.608,25.022,12.688c2.943,10.835,23.076,25.527,47.491,25.527c24.415,0,44.547-14.694,47.491-25.527
	C318.811,230.222,328.513,225.682,328.513,220.614z"/>
<ellipse style="fill:#FFFFFF;" cx="283.963" cy="168.753" rx="20.473" ry="30.027"/>
<path style="fill:#373C41;" d="M278.014,178.93c-0.353-1.459-0.561-3.085-0.561-4.847c0-7.239,3.43-12.284,6.51-12.284
	c3.079,0,6.51,5.045,6.51,12.284c0,1.762-0.208,3.388-0.561,4.847h5.148c0.291-1.533,0.452-3.156,0.452-4.847
	c0-9.714-5.073-17.323-11.549-17.323s-11.549,7.609-11.549,17.323c0,1.692,0.161,3.315,0.452,4.847H278.014z"/>
<ellipse style="fill:#FFFFFF;" cx="228.034" cy="168.753" rx="20.473" ry="30.027"/>
<path style="fill:#373C41;" d="M228.038,153.946c-4.987,0-9.029,6.628-9.029,14.804s4.042,14.804,9.029,14.804
	c4.987,0,9.029-6.628,9.029-14.804S233.025,153.946,228.038,153.946z M229.473,172.074c-1.99,0-3.604-2.257-3.604-5.04
	s1.614-5.04,3.604-5.04c1.99,0,3.604,2.257,3.604,5.04C233.078,169.818,231.464,172.074,229.473,172.074z"/>
<path style="fill:#FF3C3C;" d="M380.444,252.012l-9.464-33.113c-61.211,67.271-167.033,67.271-228.244,0l-11.18,31.54
	c13.743,12.757,28.978,23.015,45.117,30.798v52.346l43.255,10.079v-47.869C275.677,307.112,335.686,292.526,380.444,252.012z"/>
<g>
</g>
<g>
</g>
<g>
</g>
<g>
</g>
<g>
</g>
<g>
</g>
<g>
</g>
<g>
</g>
<g>
</g>
<g>
</g>
<g>
</g>
<g>
</g>
<g>
</g>
<g>
</g>
<g>
</g>
</svg>
