<?xml version="1.0" encoding="UTF-8" standalone="no"?><!DOCTYPE svg PUBLIC "-//W3C//DTD SVG 1.1//EN" "http://www.w3.org/Graphics/SVG/1.1/DTD/svg11.dtd"><svg width="100%" height="100%" viewBox="0 0 351 66" version="1.1" xmlns="http://www.w3.org/2000/svg" xmlns:xlink="http://www.w3.org/1999/xlink" xml:space="preserve" xmlns:serif="http://www.serif.com/" style="fill-rule:evenodd;clip-rule:evenodd;stroke-linejoin:round;stroke-miterlimit:2;"><rect x="0" y="0" width="350.854" height="65.528" style="fill:#fff;"/><g><path d="M19.311,9.962l0,37.261c0,1.164 0.073,1.382 1.168,1.454l5.982,0.51l0,5.749l-25.607,0l0,-5.748l6.273,-0.51c1.022,-0.073 1.168,-0.364 1.168,-1.455l0,-25.127c0,-1.043 -0.788,-0.87 -6.272,0.979l-2.023,-5.967l12.533,-7.146l6.778,-0Zm24.18,0.225l4.306,-0c5.178,-0 9.483,1.236 9.483,8.222c0,8.222 -5.325,9.313 -10.14,9.313l-3.649,0l0,-17.535Zm5.326,25.32l-5.326,-0l0,11.643c0,1.165 0.074,1.31 1.169,1.455l10.432,0.582l0,5.748l-28.599,0l0,-5.748l4.596,-0.51c1.02,-0.144 1.168,-0.362 1.168,-1.454l0,-37.181c0,-1.091 -0.147,-1.383 -1.168,-1.456l-4.596,-0.509l0,-5.821l24.732,-0c13.498,-0 17.582,7.131 17.582,15.498c0,12.66 -7.659,17.754 -19.99,17.754l0,-0.001Zm40.865,9.825c-1.677,1.236 -4.158,2.62 -6.639,2.62c-2.407,-0 -4.158,-1.092 -4.158,-4.003c0,-2.91 1.532,-4.002 5.835,-4.292l4.962,-0.364l0,6.04l0,-0.001Zm33.538,-13.897c5.763,1.309 12.257,3.347 12.257,11.86c0,8.876 -7.222,12.515 -16.488,12.515c-6,-0 -11.866,-1.424 -13.912,-2.344l0,1.47l-13.425,-0l-0.73,-3.929l-0.365,-0.072c-2.772,2.692 -6.42,4.875 -12.257,4.875c-9.191,-0 -10.652,-6.257 -10.652,-10.77c0,-7.275 4.525,-10.622 13.644,-11.204l8.39,-0.582l0,-4.002c0,-3.42 -0.364,-5.748 -4.889,-5.748c-3.5,-0 -5.325,0.509 -5.325,4.875l-10.288,-0.874c0,-9.822 8.975,-11.206 15.687,-11.206c11.09,-0 15.54,2.985 15.54,13.171l-0,17.681c-0,1.164 0.073,1.31 1.167,1.455l2.969,0.493l0,-6.46l7.806,0.583l0.73,4.147c0.072,0.655 0.22,0.946 0.876,1.091c0.875,0.292 2.845,0.728 5.618,0.728c3.866,-0 6.054,-1.09 6.054,-3.783c-0,-2.91 -2.918,-3.784 -6.638,-4.439c-6.128,-1.091 -14.154,-2.4 -14.154,-11.932c-0,-9.023 7.733,-12.735 16.123,-12.735c5.763,-0 11.381,1.311 13.425,2.11l0,10.551l-7.807,-0.508l-0.73,-3.785c-0.072,-0.582 -0.219,-0.872 -0.728,-1.018c-0.949,-0.29 -2.7,-0.582 -4.67,-0.582c-3.648,-0 -5.691,1.382 -5.691,3.71c0,2.984 4.013,3.638 8.463,4.658Zm212.023,12.66c-1.97,1.674 -4.67,3.129 -7.15,3.129c-4.598,-0 -6.639,-3.93 -6.639,-10.987c0,-6.476 2.115,-11.497 7.515,-11.497c2.114,-0 4.45,0.946 6.274,2.184l0,17.171Zm12.11,4.584l3.501,0.51l0,5.748l-13.57,-0l-0.728,-4.075l-0.511,-0.074c-3.064,2.984 -6.639,5.021 -11.965,5.021c-8.608,-0 -14.153,-5.457 -14.153,-19.354c0,-14.625 7.367,-20.155 15.466,-20.155c4.232,-0 7.514,1.455 10.288,3.493l0,-11.061c0,-0.728 -0.293,-1.237 -0.949,-1.455l-4.013,-1.383l0.802,-5.894l14.665,-0l-0,47.295c-0,1.092 0.073,1.238 1.167,1.383l0,0.001Zm-122.857,-25.249c-1.02,0.145 -1.458,0.51 -1.75,1.455l-8.973,30.05l-11.529,-0l-5.69,-24.373l-0.437,-0l-5.764,24.374l-13.133,-0l-9.193,-30.122c-0.29,-0.874 -0.657,-1.02 -1.532,-1.238l-0.71,-0.151l0,5.535l-7.806,-0.508l-0.73,-3.785c-0.072,-0.582 -0.219,-0.872 -0.728,-1.018c-0.95,-0.29 -2.7,-0.582 -4.67,-0.582c-3.648,-0 -5.692,1.382 -5.692,3.71c0,2.984 4.014,3.64 8.464,4.658c5.763,1.309 12.257,3.347 12.257,11.86c0,8.877 -7.222,12.515 -16.489,12.515c-6.639,-0 -13.132,-1.747 -14.446,-2.62l0,-10.55l7.807,0.582l0.73,4.147c0.072,0.655 0.22,0.946 0.876,1.091c0.875,0.292 2.845,0.728 5.618,0.728c3.865,-0 6.054,-1.09 6.054,-3.783c0,-2.91 -2.918,-3.784 -6.639,-4.439c-6.128,-1.091 -14.153,-2.4 -14.153,-11.932c0,-9.023 7.733,-12.735 16.123,-12.735c4.765,-0 9.426,0.896 12.054,1.659l0.184,-0.93l18.458,-0l0,6.039l-4.086,0.437l5.837,20.445l0.511,-0l6.492,-25.976l11.018,-0l6.275,25.976l0.437,-0l5.472,-20.445l-4.159,-0.437l0.947,-6.039l15.323,-0l0,2.145c-0.911,1.338 -1.712,2.746 -2.396,4.213l-0.232,0.045l0,-0.001Zm75.44,1.819c-1.896,-0 -4.157,1.6 -5.252,2.547l0,19.281c0,1.164 0.074,1.382 1.169,1.456l7.221,0.581l0,5.822l-23.858,-0l0,-5.894l3.285,-0.437c1.02,-0.146 1.166,-0.364 1.166,-1.455l0,-21.32c0,-0.8 -0.219,-1.309 -0.947,-1.527l-3.51,-1.23c-0.113,-0.238 -0.237,-0.468 -0.356,-0.7l0.729,-5.346l12.84,-0l0.875,5.82l0.438,-0c2.407,-3.71 5.618,-6.548 10.287,-6.548c1.677,-0 5.033,0.291 6.347,0.655l0,13.243l-8.754,-0.291l-0.73,-3.857c-0.146,-0.655 -0.365,-0.8 -0.95,-0.8Z" style="fill:#4e5f89;"/><path d="M251.854,11.532c13.255,0 24,10.745 24,24c-0,13.255 -10.745,24 -24,24c-13.255,0 -24,-10.745 -24,-24c-0,-13.255 10.745,-24 24,-24" style="fill:#198cff;"/><path d="M221.854,35.532c0,-16.569 13.431,-30 30,-30c16.569,-0 30,13.431 30,30c-0,16.57 -13.431,30 -30,30c-16.569,-0 -30,-13.43 -30,-30Zm6,-0c-0,13.255 10.745,24 24,24c13.255,-0 24,-10.745 24,-24c-0,-13.255 -10.745,-24 -24,-24c-13.255,-0 -24,10.745 -24,24Z" style="fill:#fff;"/><path d="M220.854,35.532c0,17.121 13.88,31 31,31c17.12,-0 31,-13.879 31,-31c-0,-17.12 -13.88,-31 -31,-31c-17.12,-0 -31,13.88 -31,31Zm1,-0c-0,-16.567 13.43,-30 30,-30c16.57,-0 30,13.433 30,30c-0,16.567 -13.43,30 -30,30c-16.57,-0 -30,-13.433 -30,-30Zm7,-0.002c-0,12.702 10.298,22.998 23,22.998c12.702,-0 23,-10.296 23,-22.998c-0,-12.701 -10.298,-22.998 -23,-22.998c-12.702,0 -23,10.297 -23,22.998Zm-1,0.002c-0,-13.253 10.744,-24 24,-24c13.256,-0 24,10.747 24,24c-0,13.253 -10.743,24 -24,24c-13.257,-0 -24,-10.747 -24,-24Z" style="fill-opacity:0.5;fill-rule:nonzero;"/><path d="M262.174,60.61c9.129,-3.891 15.528,-12.927 15.528,-23.456c0,-14.082 -11.446,-25.498 -25.565,-25.498c-14.119,0 -25.564,11.416 -25.564,25.498c0,14.04 11.378,25.427 25.44,25.494c-0.044,0.001 -0.086,0.004 -0.129,0.004c-14.818,0 -26.83,-11.981 -26.83,-26.76c0,-14.779 12.012,-26.76 26.83,-26.76c14.818,0 26.83,11.981 26.83,26.76c0,11.143 -6.83,20.691 -16.54,24.718Zm-10.808,2.342c16.553,0 29.971,-13.383 29.971,-29.891c0,-1.54 -0.117,-3.052 -0.342,-4.529c0.557,2.278 0.859,4.656 0.859,7.105c0,16.51 -13.419,29.891 -29.971,29.891c-15.01,0 -27.441,-11.003 -29.629,-25.362c3.198,13.077 15.015,22.786 29.112,22.786Z" style="fill-opacity:0.1;"/><path d="M251.854,17.532c9.941,0 18,8.059 18,18c-0,9.941 -8.059,18 -18,18c-9.941,0 -18,-8.059 -18,-18c-0,-9.941 8.059,-18 18,-18Z" style="fill:#f2f2f2;"/><path d="M251.854,17.532c-9.941,0 -18,8.059 -18,18c0,9.941 8.059,18 18,18c9.941,0 18,-8.059 18,-18c-0,-9.941 -8.059,-18 -18,-18Zm-0,-1c10.493,0 19,8.507 19,19c-0,10.494 -8.507,19 -19,19c-10.493,0 -19,-8.506 -19,-19c-0,-10.493 8.507,-19 19,-19Z" style="fill-opacity:0.25;fill-rule:nonzero;"/><path d="M259.854,35.532c0,4.389 -3.611,8 -8,8c-4.389,-0 -8,-3.611 -8,-8c0,-4.389 3.611,-8 8,-8c4.389,-0 8,3.611 8,8Z" style="fill-opacity:0.05;"/><path d="M258.854,35.532c0,-3.84 -3.16,-7 -7,-7c-3.84,-0 -7,3.16 -7,7c0,3.84 3.16,7 7,7c3.84,-0 7,-3.16 7,-7Zm1,-0c0,4.389 -3.611,8 -8,8c-4.389,-0 -8,-3.611 -8,-8c0,-4.389 3.611,-8 8,-8c4.389,-0 8,3.611 8,8Z" style="fill-opacity:0.15;fill-rule:nonzero;"/><path d="M259.854,35.532c0,-4.389 -3.611,-8 -8,-8c-4.389,-0 -8,3.611 -8,8c0,4.389 3.611,8 8,8c4.389,-0 8,-3.611 8,-8Zm1,-0c0,4.937 -4.063,9 -9,9c-4.937,-0 -9,-4.063 -9,-9c0,-4.937 4.063,-9 9,-9c4.937,-0 9,4.063 9,9Z" style="fill:#fff;fill-rule:nonzero;"/><path d="M247.854,31.89l0,-8.358l8,0l0,13.93l-2,1.856l2,1.856l0,8.358l-8,-0l0,-13.929l2,-1.857l-2,-1.856Z" style="fill:#fff;"/><path d="M247.854,30.89l0,-8.358l8,0l0,13.93l-2,1.856l2,1.856l0,8.358l-8,-0l0,-13.929l2,-1.857l-2,-1.856Z" style="fill:#4d4d4d;"/><path d="M248.854,31.747l0,-7.215l6,0l0,12.358l-1.5,1.713l0,1.008l1.5,1.909l0,7.012l-6,-0l0,-12.38l1.5,-1.677l0,-1.014l-1.5,-1.714Z" style="fill:#808080;"/></g></svg>