<?xml version="1.0" encoding="UTF-8" standalone="no"?>
<!-- Created with Inkscape (http://www.inkscape.org/) -->

<svg
   xmlns:dc="http://purl.org/dc/elements/1.1/"
   xmlns:cc="http://creativecommons.org/ns#"
   xmlns:rdf="http://www.w3.org/1999/02/22-rdf-syntax-ns#"
   xmlns:svg="http://www.w3.org/2000/svg"
   xmlns="http://www.w3.org/2000/svg"
   xmlns:sodipodi="http://sodipodi.sourceforge.net/DTD/sodipodi-0.dtd"
   xmlns:inkscape="http://www.inkscape.org/namespaces/inkscape"
   width="128"
   height="128"
   viewBox="0 0 33.866666 33.866668"
   version="1.1"
   id="svg8"
   inkscape:version="0.92.3 (2405546, 2018-03-11)"
   sodipodi:docname="afdian.svg"
   inkscape:export-filename="/home/slsl/位图.png"
   inkscape:export-xdpi="96.000008"
   inkscape:export-ydpi="96.000008">
  <defs
     id="defs2" />
  <sodipodi:namedview
     id="base"
     pagecolor="#ffffff"
     bordercolor="#666666"
     borderopacity="1.0"
     inkscape:pageopacity="0.0"
     inkscape:pageshadow="2"
     inkscape:zoom="4"
     inkscape:cx="51.821323"
     inkscape:cy="61.071846"
     inkscape:document-units="mm"
     inkscape:current-layer="layer1"
     showgrid="false"
     units="px"
     inkscape:showpageshadow="false"
     inkscape:window-width="1920"
     inkscape:window-height="1054"
     inkscape:window-x="0"
     inkscape:window-y="26"
     inkscape:window-maximized="1"
     inkscape:snap-nodes="true" />
  <metadata
     id="metadata5">
    <rdf:RDF>
      <cc:Work
         rdf:about="">
        <dc:format>image/svg+xml</dc:format>
        <dc:type
           rdf:resource="http://purl.org/dc/dcmitype/StillImage" />
        <dc:title />
      </cc:Work>
    </rdf:RDF>
  </metadata>
  <g
     inkscape:label="Layer 1"
     inkscape:groupmode="layer"
     id="layer1"
     transform="translate(0,-263.13332)">
    <path
       style="opacity:1;fill:#000000;fill-opacity:1;stroke:none;stroke-width:0.01007909;stroke-linecap:round;stroke-linejoin:round;stroke-miterlimit:4;stroke-dasharray:none;stroke-opacity:1"
       d="m 8.2304403,269.78153 c -0.1478891,0.003 -0.287116,0.0107 -0.418579,0.0196 -2.300206,0.15852 -4.7081744,0.87878 -6.3034912,2.33681 -0.93399699,0.85364 -1.508435014122,2.01268 -1.508435014122,3.26388 0,1.10598 0.424929124122,2.14466 1.133264114122,3.01842 1.05766,1.30466 2.7364115,2.19385 4.3361694,2.74144 0.7184591,0.24593 1.7914757,0.41756 2.7982788,0.60306 -0.1027502,0.39914 -0.2199775,0.80204 -0.1395265,1.27847 0.02057,0.12181 0.05304,0.12153 0.08475,0.21808 -0.2312961,0.21491 -0.4600337,0.41619 -0.6914308,0.66197 -0.2433119,0.25845 -0.4671359,0.51059 -0.6619751,0.74621 -0.1696799,0.20521 -0.3913396,0.46499 -0.5792928,0.83664 -0.8007529,1.58328 -0.8214703,3.48407 -0.2490803,5.12527 0.3899249,1.11803 1.1142993,2.16249 1.9657713,2.96778 2.7896438,2.63832 7.5723628,3.73911 11.9558578,3.31091 1.982767,-0.19369 3.942076,-0.71136 5.616712,-1.52187 1.210089,-0.58565 2.075737,-1.22105 2.937805,-2.04639 l 0.04496,-0.0315 0.04703,0.01 c 0.890786,0.20459 1.800193,0.29251 2.696474,-0.0274 2.002359,-0.71456 3.19886,-3.02206 2.227255,-5.02915 -0.343713,-0.71001 -0.869469,-1.17333 -1.309997,-1.51412 -0.125389,-0.097 -0.188661,-0.10384 -0.302308,-0.16898 0.303726,-1.31661 0.435504,-2.66602 0.166915,-3.95325 -0.685766,-3.28653 -3.628117,-6.3238 -6.905004,-8.02638 -2.793703,-1.45153 -5.604832,-1.87261 -10.278959,-1.69654 -1.179156,0.0444 -1.971677,0.0627 -2.83962,0.0863 1.46e-4,-0.015 0.01395,-0.0511 0.01395,-0.0651 0,-0.82677 -0.328841,-1.54218 -0.885734,-2.0991 -0.802491,-0.80249 -1.9038937,-1.06755 -2.9460719,-1.0449 -0.00197,-1e-5 -0.00371,-1e-5 -0.00568,0 z m -0.025321,2.10685 c 0.7255994,-0.0164 1.1942382,0.12764 1.5559773,0.48938 0.2349939,0.23501 0.3271104,0.44768 0.3271104,0.75499 0,0.15838 -0.0135,0.29377 -0.07545,0.42219 -0.061948,0.12842 -0.1576956,0.23003 -0.2950715,0.36071 -0.1172493,0.11154 -0.3197527,0.24335 -0.5870443,0.40566 -0.2672918,0.1623 -0.5905867,0.34347 -0.907955,0.50643 l -0.5586222,0.28732 0.00258,5.1e-4 c 0.3195894,0.0302 1.1210986,0.0366 2.3300904,0.0145 1.2089906,-0.0221 2.8348536,-0.0713 4.8394976,-0.14676 4.50539,-0.16972 6.790967,0.19029 9.258349,1.47226 2.78582,1.44744 5.388791,4.36828 5.870444,6.6766 0.256132,1.22754 0.131149,2.70714 -0.335381,4.07882 -0.05596,0.1645 -0.10695,0.31685 -0.14366,0.4284 -0.0026,0.008 -0.0033,0.0116 -0.0057,0.0186 0.07041,0.0236 0.151577,0.051 0.249595,0.0801 0.34825,0.10351 0.727149,0.32292 1.059884,0.58032 0.332742,0.2574 0.617037,0.54481 0.75706,0.83406 0.450577,0.93078 -0.0929,2.02438 -1.150834,2.40192 -0.522918,0.18659 -1.143334,0.14742 -1.986958,-0.092 l -0.642339,-0.18242 -0.609264,0.61082 c -0.795986,0.79863 -1.446036,1.24909 -2.624647,1.81952 -1.420966,0.68773 -3.174102,1.16012 -4.930448,1.3317 -3.858112,0.37687 -8.27328,-0.78099 -10.3838616,-2.77709 -0.60203,-0.56937 -1.2173241,-1.48704 -1.4650267,-2.19728 -0.3898723,-1.11787 -0.3344926,-2.66224 0.1488281,-3.61787 0.066678,-0.13185 0.1845654,-0.28746 0.3446817,-0.4811 0.160116,-0.19363 0.360109,-0.41786 0.5782593,-0.64958 0.4363029,-0.46344 0.9430501,-0.95628 1.3446202,-1.28829 l 0.223759,-0.18397 -0.15968,-0.25166 c -0.171927,-0.2711 -0.2819306,-0.50769 -0.3224605,-0.74776 -0.040543,-0.24006 -0.00535,-0.47489 0.086816,-0.71623 0.1922695,-0.50345 0.6234585,-0.82713 1.1554845,-0.92553 0.532027,-0.0984 1.165625,0.009 1.832963,0.31471 l 0.346749,0.15865 0.479041,-0.31885 c 0.113755,-0.0756 0.198019,-0.14207 0.279569,-0.20567 -0.05403,-0.0124 -0.08625,-0.0226 -0.160714,-0.0367 -0.300265,-0.0569 -0.767231,-0.12759 -1.435571,-0.21859 -2.074731,-0.28243 -5.205952,-0.94579 -6.4631708,-1.37614 -1.3047612,-0.44661 -2.8386156,-1.37163 -3.448885,-2.12442 -0.5232363,-0.64544 -0.7017659,-1.10312 -0.7017659,-1.81074 0,-0.79222 0.2149354,-1.2418 0.8821168,-1.85157 1.0344258,-0.94541 3.1905199,-1.70004 5.1118325,-1.83245 0.1163166,-0.008 0.2257671,-0.0135 0.3291789,-0.0155 z m -4.3935303,3.15071 c -0.1996022,0.19518 -0.2828948,0.38681 -0.2563151,0.60823 0.028927,0.24096 0.1922153,0.53657 0.5203817,0.85783 0.4313561,0.4223 1.5200082,1.06428 2.3414591,1.36219 1.2495995,0.45318 3.7009743,0.98396 6.4182113,1.38235 1.583448,0.23215 2.41548,0.42694 2.883028,0.73329 0.03311,0.0217 0.07513,0.0385 0.103353,0.0455 0.0097,0.003 0.01295,3.7e-4 0.01705,-5.2e-4 0.03015,-0.0179 0.150699,-0.0905 0.338998,-0.20567 0.203652,-0.12455 0.471264,-0.28854 0.752925,-0.46199 0.730848,-0.45008 1.100156,-0.67886 1.35444,-0.79323 0.254285,-0.1143 0.449102,-0.0882 0.605648,-0.0336 0.09093,0.0317 0.175997,0.0784 0.251147,0.13178 0.07514,0.0535 0.140756,0.107 0.189136,0.1974 0.08018,0.14979 0.104219,0.32249 0.09922,0.49093 -0.0049,0.16843 -0.03273,0.33153 -0.140044,0.46715 -0.03288,0.0416 -0.04979,0.051 -0.07803,0.0734 -0.02824,0.0223 -0.06285,0.0478 -0.10387,0.077 -0.08204,0.0585 -0.191016,0.13236 -0.320393,0.21756 -0.258756,0.17051 -0.599317,0.38614 -0.961699,0.60771 -2.112531,1.29163 -4.058754,2.61105 -5.554183,3.74189 -1.495429,1.13082 -2.5490233,2.10337 -2.8287665,2.58072 -0.507895,0.86665 -0.2901421,2.4744 0.5302001,3.49126 0.6935394,0.85969 2.1787064,1.72163 3.8700474,2.20555 0.834291,0.23871 1.372828,0.34332 2.927469,0.57 a 0.19004889,0.19004889 0 0 0 5.17e-4,0 c 0.0186,0.003 0.265374,0.014 0.567924,0.016 0.302551,0.002 0.687943,-2.3e-4 1.081071,-0.007 1.574018,-0.0278 2.600493,-0.1888 3.884001,-0.60823 1.43886,-0.47019 2.872379,-1.2831 3.630786,-2.04019 l 0.265617,-0.2651 -0.0925,-0.11058 c -0.141062,-0.16763 -0.232196,-0.34485 -0.240296,-0.53589 -0.0081,-0.19104 0.07079,-0.37341 0.201022,-0.53898 0.296261,-0.37665 0.862317,-0.37761 1.25212,-0.0496 0.02441,0.0205 0.182115,0.10838 0.379304,0.19068 0.197189,0.0823 0.44423,0.1728 0.69505,0.2558 0.250817,0.083 0.506407,0.15902 0.722434,0.21342 0.216024,0.0544 0.402159,0.0853 0.46664,0.0853 0.121952,-3e-5 0.316961,-0.0691 0.372071,-0.11369 l 0.03617,-0.0294 -0.02842,-0.032 c -0.05594,-0.0618 -0.286382,-0.2428 -0.455784,-0.3421 -0.142105,-0.0832 -0.216771,-0.11731 -0.34675,-0.13901 -0.129976,-0.0214 -0.32421,-0.0256 -0.662493,-0.0196 -0.600691,0.0105 -0.888087,-0.0215 -1.145664,-0.15193 -0.497978,-0.25223 -0.852908,-0.54614 -1.034047,-0.87436 -0.181133,-0.32822 -0.148317,-0.7214 0.12299,-0.99271 0.16884,-0.1688 0.383835,-0.26391 0.605132,-0.25321 0.221293,0.0106 0.434467,0.11815 0.633035,0.29249 l 0.07803,0.0682 0.147794,-0.38292 c 0.379513,-0.9855 0.511315,-1.59661 0.518313,-2.37557 0.01141,-1.25792 -0.312825,-2.13617 -1.265039,-3.39617 -1.831617,-2.42364 -4.183229,-3.87776 -7.111709,-4.39973 -1.422804,-0.25359 -2.625679,-0.27731 -6.700366,-0.12661 -5.375076,0.19879 -7.4053575,0.11335 -8.6098096,-0.43718 -0.2641788,-0.12074 -0.4593799,-0.22704 -0.6102987,-0.3483 -0.150916,-0.12127 -0.2560955,-0.26302 -0.3167764,-0.42168 -0.060134,-0.15722 -0.041518,-0.32014 5.167e-4,-0.47646 z m 9.324494,11.09855 c 0.233977,0 0.429193,0.13501 0.590662,0.29662 0.161469,0.16161 0.296106,0.35627 0.296106,0.59015 0,0.22312 -0.123779,0.42093 -0.295073,0.59221 -0.171287,0.17128 -0.369041,0.29507 -0.591695,0.29507 -0.233868,0 -0.429045,-0.13515 -0.590661,-0.29662 -0.161616,-0.16146 -0.296106,-0.35669 -0.296106,-0.59066 0,-0.23398 0.134511,-0.42908 0.296106,-0.59067 0.161594,-0.16159 0.356684,-0.2961 0.590661,-0.2961 z m 6.558773,1.96732 c 0.223129,0 0.420406,0.12378 0.591695,0.29507 0.171445,0.17144 0.295072,0.36956 0.295072,0.59222 0,0.22264 -0.123621,0.42077 -0.295072,0.59221 -0.171286,0.17128 -0.368556,0.29455 -0.591695,0.29455 -0.223126,0 -0.420923,-0.12325 -0.592212,-0.29455 -0.171298,-0.17129 -0.294556,-0.3691 -0.294556,-0.59221 0,-0.234 0.133994,-0.42908 0.295589,-0.59067 0.161594,-0.16159 0.357203,-0.29662 0.591179,-0.29662 z"
       id="path845"
       inkscape:connector-curvature="0"
       inkscape:export-filename="/home/slsl/path839.png"
       inkscape:export-xdpi="96.000008"
       inkscape:export-ydpi="96.000008" />
    <path
       inkscape:connector-curvature="0"
       style="opacity:1;fill:#000000;fill-opacity:1;stroke:none;stroke-width:0.01002407;stroke-linecap:round;stroke-linejoin:round;stroke-miterlimit:4;stroke-dasharray:none;stroke-opacity:1"
       d="m 16.790301,296.92279 c 0.05884,-9.3e-4 0.07792,-0.006 0.10819,0.002 0.109271,0.0254 0.101034,0.0248 0.177874,0.0752 -0.06414,-0.0421 -0.218806,-0.0397 -0.286064,-0.077 z"
       id="path839"
       inkscape:export-filename="/home/slsl/path839.png"
       inkscape:export-xdpi="96.000008"
       inkscape:export-ydpi="96.000008" />
  </g>
</svg>
