<svg width="140" height="38" viewBox="0 0 140 38" fill="none" xmlns="http://www.w3.org/2000/svg">
<g opacity="0.87">
<path d="M42 7.57766H42.8953V12.2606H44.7408V12.9307H42V7.57766Z" fill="white"/>
<path d="M48.5464 11.8755C48.8082 11.6187 48.9391 11.2619 48.9391 10.8049C48.9391 10.3479 48.8108 9.99358 48.5543 9.74198C48.303 9.48524 47.9967 9.35687 47.6355 9.35687C47.2742 9.35687 46.9705 9.48524 46.7245 9.74198C46.4784 9.99358 46.3554 10.3504 46.3554 10.8126C46.3554 11.2696 46.4758 11.6264 46.7166 11.8832C46.9575 12.1348 47.2559 12.2606 47.6119 12.2606C47.9732 12.2606 48.2847 12.1322 48.5464 11.8755ZM47.6119 13C46.9836 13 46.4653 12.7997 46.0569 12.3992C45.6486 11.9936 45.4444 11.4647 45.4444 10.8126C45.4444 10.1553 45.6538 9.62644 46.0726 9.22593C46.4967 8.82028 47.0229 8.61746 47.6512 8.61746C48.2794 8.61746 48.803 8.82028 49.2218 9.22593C49.6459 9.62644 49.858 10.1528 49.858 10.8049C49.858 11.457 49.6407 11.9859 49.2061 12.3915C48.7768 12.7972 48.2454 13 47.6119 13Z" fill="white"/>
<path d="M52.8104 13C52.1821 13 51.6717 12.7997 51.279 12.3992C50.8863 11.9987 50.69 11.4698 50.69 10.8126C50.69 10.1502 50.8863 9.61874 51.279 9.21823C51.6769 8.81772 52.1874 8.61746 52.8104 8.61746C53.3339 8.61746 53.7659 8.74069 54.1062 8.98716C54.4517 9.2285 54.6847 9.5751 54.8051 10.027H53.8392C53.6769 9.58023 53.3339 9.35687 52.8104 9.35687C52.4439 9.35687 52.1507 9.48524 51.9308 9.74198C51.7162 9.99358 51.6088 10.3479 51.6088 10.8049C51.6088 11.2619 51.7162 11.6187 51.9308 11.8755C52.1507 12.1322 52.4439 12.2606 52.8104 12.2606C53.3287 12.2606 53.6716 12.0372 53.8392 11.5905H54.8051C54.6795 12.0218 54.4439 12.3659 54.0983 12.6226C53.7528 12.8742 53.3235 13 52.8104 13Z" fill="white"/>
<path d="M58.7935 11.8524C59.0553 11.5905 59.1862 11.2413 59.1862 10.8049C59.1862 10.3684 59.0553 10.0218 58.7935 9.76508C58.537 9.50834 58.2307 9.37997 57.8747 9.37997C57.5187 9.37997 57.2098 9.50578 56.948 9.75738C56.6915 10.009 56.5632 10.353 56.5632 10.7895C56.5632 11.2259 56.6915 11.5777 56.948 11.8447C57.2098 12.1065 57.5187 12.2375 57.8747 12.2375C58.2307 12.2375 58.537 12.1091 58.7935 11.8524ZM57.6862 13C57.1103 13 56.626 12.7946 56.2333 12.3838C55.8407 11.9679 55.6443 11.439 55.6443 10.7972C55.6443 10.1502 55.8381 9.62644 56.2255 9.22593C56.6182 8.82028 57.1051 8.61746 57.6862 8.61746C58.0265 8.61746 58.325 8.69448 58.5815 8.84852C58.8433 8.99743 59.0448 9.19512 59.1862 9.44159V8.68678H60.0893V12.9307H59.1862V12.1374C59.0396 12.3992 58.838 12.6098 58.5815 12.7689C58.325 12.923 58.0265 13 57.6862 13Z" fill="white"/>
<path d="M61.5107 12.9307V7.23107H62.406V12.9307H61.5107Z" fill="white"/>
<path d="M64.8477 7.56226C64.8477 7.72144 64.7928 7.85494 64.6828 7.96277C64.5729 8.0706 64.4367 8.12452 64.2744 8.12452C64.1174 8.12452 63.9839 8.0706 63.8739 7.96277C63.764 7.85494 63.709 7.72144 63.709 7.56226C63.709 7.40308 63.764 7.26958 63.8739 7.16175C63.9839 7.05392 64.1174 7 64.2744 7C64.4367 7 64.5729 7.05392 64.6828 7.16175C64.7928 7.26958 64.8477 7.40308 64.8477 7.56226ZM63.8268 12.9307V8.68678H64.7221V12.9307H63.8268Z" fill="white"/>
<path d="M68.8995 8.68678V9.40308L66.9361 12.2144H68.8995V12.9307H65.8995V12.2144L67.8707 9.40308H65.8995V8.68678H68.8995Z" fill="white"/>
<path d="M72.9357 11.8524C73.1975 11.5905 73.3284 11.2413 73.3284 10.8049C73.3284 10.3684 73.1975 10.0218 72.9357 9.76508C72.6792 9.50834 72.3729 9.37997 72.0169 9.37997C71.6609 9.37997 71.352 9.50578 71.0902 9.75738C70.8336 10.009 70.7054 10.353 70.7054 10.7895C70.7054 11.2259 70.8336 11.5777 71.0902 11.8447C71.352 12.1065 71.6609 12.2375 72.0169 12.2375C72.3729 12.2375 72.6792 12.1091 72.9357 11.8524ZM71.8284 13C71.2525 13 70.7682 12.7946 70.3755 12.3838C69.9829 11.9679 69.7865 11.439 69.7865 10.7972C69.7865 10.1502 69.9802 9.62644 70.3677 9.22593C70.7603 8.82028 71.2472 8.61746 71.8284 8.61746C72.1687 8.61746 72.4671 8.69448 72.7237 8.84852C72.9855 8.99743 73.187 9.19512 73.3284 9.44159V8.68678H74.2315V12.9307H73.3284V12.1374C73.1818 12.3992 72.9802 12.6098 72.7237 12.7689C72.4671 12.923 72.1687 13 71.8284 13Z" fill="white"/>
<path d="M77.7497 9.40308H76.6974V11.7522C76.6974 11.9114 76.734 12.027 76.8073 12.0988C76.8858 12.1656 77.0167 12.199 77.2 12.199H77.7497V12.9307H77.0429C76.2104 12.9307 75.7942 12.5379 75.7942 11.7522V9.40308H75.2837V8.68678H75.7942V7.63158H76.6974V8.68678H77.7497V9.40308Z" fill="white"/>
<path d="M79.8412 7.56226C79.8412 7.72144 79.7862 7.85494 79.6763 7.96277C79.5663 8.0706 79.4302 8.12452 79.2679 8.12452C79.1108 8.12452 78.9773 8.0706 78.8674 7.96277C78.7574 7.85494 78.7025 7.72144 78.7025 7.56226C78.7025 7.40308 78.7574 7.26958 78.8674 7.16175C78.9773 7.05392 79.1108 7 79.2679 7C79.4302 7 79.5663 7.05392 79.6763 7.16175C79.7862 7.26958 79.8412 7.40308 79.8412 7.56226ZM78.8203 12.9307V8.68678H79.7156V12.9307H78.8203Z" fill="white"/>
<path d="M83.9479 11.8755C84.2097 11.6187 84.3406 11.2619 84.3406 10.8049C84.3406 10.3479 84.2123 9.99358 83.9558 9.74198C83.7044 9.48524 83.3982 9.35687 83.0369 9.35687C82.6757 9.35687 82.372 9.48524 82.1259 9.74198C81.8799 9.99358 81.7568 10.3504 81.7568 10.8126C81.7568 11.2696 81.8772 11.6264 82.1181 11.8832C82.3589 12.1348 82.6573 12.2606 83.0134 12.2606C83.3746 12.2606 83.6861 12.1322 83.9479 11.8755ZM83.0134 13C82.3851 13 81.8668 12.7997 81.4584 12.3992C81.05 11.9936 80.8458 11.4647 80.8458 10.8126C80.8458 10.1553 81.0552 9.62644 81.4741 9.22593C81.8982 8.82028 82.4244 8.61746 83.0526 8.61746C83.6809 8.61746 84.2044 8.82028 84.6233 9.22593C85.0474 9.62644 85.2594 10.1528 85.2594 10.8049C85.2594 11.457 85.0421 11.9859 84.6076 12.3915C84.1783 12.7972 83.6469 13 83.0134 13Z" fill="white"/>
<path d="M87.2851 8.68678V9.35687C87.5731 8.86393 88.0338 8.61746 88.6673 8.61746C89.1542 8.61746 89.5548 8.77664 89.8689 9.09499C90.1883 9.41335 90.348 9.85751 90.348 10.4275V12.9307H89.4605V10.5584C89.4605 10.1784 89.3637 9.88832 89.17 9.68806C88.9762 9.48267 88.7118 9.37997 88.3768 9.37997C88.0417 9.37997 87.7747 9.48267 87.5757 9.68806C87.382 9.88832 87.2851 10.1784 87.2851 10.5584V12.9307H86.3899V8.68678H87.2851Z" fill="white"/>
<path d="M97.186 11.8524C97.4478 11.5905 97.5787 11.2413 97.5787 10.8049C97.5787 10.3684 97.4478 10.0218 97.186 9.76508C96.9295 9.50834 96.6232 9.37997 96.2672 9.37997C95.9112 9.37997 95.6023 9.50578 95.3405 9.75738C95.0839 10.009 94.9557 10.353 94.9557 10.7895C94.9557 11.2259 95.0839 11.5777 95.3405 11.8447C95.6023 12.1065 95.9112 12.2375 96.2672 12.2375C96.6232 12.2375 96.9295 12.1091 97.186 11.8524ZM96.0787 13C95.5028 13 95.0185 12.7946 94.6258 12.3838C94.2332 11.9679 94.0368 11.439 94.0368 10.7972C94.0368 10.1502 94.2305 9.62644 94.618 9.22593C95.0106 8.82028 95.4975 8.61746 96.0787 8.61746C96.419 8.61746 96.7174 8.69448 96.974 8.84852C97.2358 8.99743 97.4373 9.19512 97.5787 9.44159V8.68678H98.4818V12.9307H97.5787V12.1374C97.4321 12.3992 97.2305 12.6098 96.974 12.7689C96.7174 12.923 96.419 13 96.0787 13Z" fill="white"/>
<path d="M102 9.40308H100.948V11.7522C100.948 11.9114 100.984 12.027 101.058 12.0988C101.136 12.1656 101.267 12.199 101.45 12.199H102V12.9307H101.293C100.461 12.9307 100.045 12.5379 100.045 11.7522V9.40308H99.534V8.68678H100.045V7.63158H100.948V8.68678H102V9.40308Z" fill="white"/>
</g>
<path d="M26.3393 33H15.6607C10.1206 33 7 29.8206 7 24.3393V13.6607C7 8.17941 10.1206 5 15.6607 5H26.3393C31.9958 5 35 8.06301 35 13.6607V24.3393C35 29.937 31.9958 33 26.3393 33Z" fill="white"/>
<path d="M24.9888 24.0764C24.4649 24.0764 23.9981 23.9138 23.6117 23.5953C23.15 23.2204 22.7831 22.6613 22.7701 22.0042C22.7636 21.6722 23.1124 21.6722 23.1124 21.6722C23.1124 21.6722 23.6791 21.6655 23.954 21.6655C24.2289 21.6722 24.3093 22.0687 24.3223 22.1681C24.4286 23.0591 24.9149 23.4475 25.2884 23.6249C25.5127 23.731 25.4569 24.0629 24.9888 24.0777V24.0764Z" fill="#263238"/>
<path d="M20.2846 19.549C19.8229 19.4925 19.1383 19.4442 18.6961 19.3313C17.979 19.1485 17.9984 18.4806 18.0296 18.2629C18.1165 17.6098 18.3473 17.0051 18.7026 16.4434C19.1448 15.7553 19.7802 15.1506 20.5971 14.6587C22.1298 13.7382 24.2733 13.2249 26.6282 13.2249C28.3541 13.2249 30.1553 13.4573 30.1734 13.4573C30.3355 13.4788 30.4535 13.6401 30.447 13.8229C30.4405 14.0056 30.3161 14.1454 30.154 14.1602C29.892 14.1535 29.6366 14.1535 29.3941 14.1535C26.9951 14.1535 25.2873 14.4908 24.0166 15.2218C22.7639 15.9381 21.8912 17.0347 21.2999 18.658C21.2377 18.7991 21.0315 19.635 20.2846 19.5503V19.549Z" fill="#263238"/>
<path d="M22.3775 26.2484C21.1871 26.2739 20.0654 25.7162 19.2161 24.7433C18.4964 23.9195 18.0633 23.089 17.9829 22.0233C17.9336 21.3272 18.2306 21.0867 18.6338 21.1283C18.9126 21.1565 19.7802 21.1995 20.2768 21.3057C20.649 21.3837 20.8966 21.5973 20.9589 22.0368C21.2869 24.3804 22.7133 25.3023 23.5627 25.5012C23.7118 25.5361 23.8039 25.6356 23.7987 25.8143C23.7922 25.985 23.6976 26.2188 22.3788 26.247L22.3775 26.2484Z" fill="#263238"/>
<path d="M18.9859 28.3285C18.1418 28.3647 17.3157 28.1887 17.0797 28.1457C16.0865 27.9629 15.254 27.6471 14.5408 27.1781C12.833 26.0574 11.8021 24.0779 11.6789 21.7342C11.6478 21.1779 11.579 20.1149 12.8589 20.1955C13.3867 20.2251 14.2244 20.4885 14.8144 20.6645C15.547 20.8768 15.901 21.4627 15.901 22.0419C15.901 25.3465 18.7888 27.5302 20.0492 27.5302C20.3501 27.5302 20.4214 27.7157 20.3851 27.893C20.3566 28.0341 20.2801 28.2734 18.9872 28.3298L18.9859 28.3285Z" fill="#263238"/>
<path d="M14.5811 18.6176C14.0818 18.5249 13.5943 18.3112 13.1197 18.1889C11.6518 17.8113 11.902 16.2767 12.0395 15.856C13.3751 11.7815 17.6154 10.4188 21.0375 10.0546C24.2598 9.71197 27.6313 9.97671 30.772 10.8825C30.9963 10.9443 31.6149 11.0988 31.4813 11.4751C31.3478 11.8514 30.9756 11.5893 27.5496 11.5114C26.4202 11.4858 25.292 11.5598 24.16 11.7398C22.2175 12.0462 20.2205 12.6819 18.6152 14.023C17.8411 14.6721 17.1603 15.4999 16.7051 16.4782C16.5858 16.7349 16.4925 16.9916 16.4121 17.2483C16.3304 17.5197 16.0243 18.8824 14.5824 18.619L14.5811 18.6176Z" fill="#263238"/>
<path d="M22.796 19.4041C23.0709 18.1287 24.2924 16.1076 28.0736 16.2474C28.9411 16.2756 28.5444 16.8884 28.1164 16.8749C25.9781 16.7983 24.9641 18.2268 24.4324 19.6755C24.2613 20.1418 23.871 20.2117 23.3821 20.1284C23.0397 20.0652 22.6676 20.0236 22.796 19.4041Z" fill="#263238"/>
<path d="M42 23.1608C42 24.9446 42.5426 26.3746 43.6267 27.4531C44.7119 28.5304 46.1781 29.0696 48.0275 29.0696C49.8769 29.0696 51.1215 28.614 52.0462 27.704C52.9709 26.7873 53.4332 25.7235 53.4332 24.5151V24.4054H50.7575V24.5038C50.7575 24.991 50.5461 25.4104 50.1244 25.7597C49.7016 26.109 48.9963 26.2842 48.006 26.2842C46.8925 26.2842 46.0763 26.0106 45.5597 25.4646C45.0431 24.9186 44.7843 24.1906 44.7843 23.2806V22.6906C44.7843 21.7806 45.0465 21.0526 45.571 20.5066C46.0956 19.9606 46.9072 19.687 48.006 19.687C48.9669 19.687 49.6655 19.8543 50.1029 20.1889C50.5472 20.5235 50.7688 20.9463 50.7688 21.4561V21.5658H53.4445L53.4332 21.4233C53.3891 20.207 52.9166 19.1523 52.0134 18.2559C51.1102 17.3527 49.7819 16.9016 48.0275 16.9016C46.1781 16.9016 44.7108 17.4408 43.6267 18.5181C42.5415 19.5887 42 21.0186 42 22.8104V23.1597V23.1608Z" fill="white"/>
<path d="M55.6837 28.7416H58.4137V23.0691C58.4137 21.8268 59.0106 21.1847 59.5057 20.8343C60.0009 20.477 60.565 20.2996 61.198 20.2996C61.3947 20.2996 61.5733 20.3109 61.7327 20.3323C61.9 20.3538 62.0571 20.3798 62.2018 20.4092V17.0676C62.1295 17.0383 62.0017 17.0055 61.8197 16.9693C61.6445 16.9331 61.4738 16.915 61.3065 16.915C60.6588 16.915 60.08 17.0903 59.5702 17.4396C59.1112 17.7538 58.7404 18.1257 58.459 18.5519C58.4296 18.596 58.3606 18.5779 58.3572 18.5248L58.1187 17.2316H55.6826V28.7416H55.6837Z" fill="white"/>
<path d="M63.3179 23.1607C63.3179 24.9445 63.882 26.3745 65.0101 27.4529C66.1383 28.5302 67.6237 29.0694 69.4663 29.0694C71.3089 29.0694 72.783 28.5302 73.9112 27.4529C75.0472 26.3756 75.6147 24.9445 75.6147 23.1607V22.8114C75.6147 21.0208 75.0472 19.5896 73.9112 18.5191C72.783 17.4418 71.301 16.9026 69.4663 16.9026C67.6316 16.9026 66.1394 17.4418 65.0101 18.5191C63.882 19.5896 63.3179 21.0196 63.3179 22.8114V23.1607ZM66.1021 22.6915C66.1021 21.6945 66.3938 20.9665 66.976 20.5075C67.5581 20.0486 68.3879 19.8191 69.4663 19.8191C70.5447 19.8191 71.3632 20.0486 71.9453 20.5075C72.5354 20.9665 72.8305 21.6945 72.8305 22.6915V23.2816C72.8305 24.316 72.5388 25.0541 71.9566 25.4984C71.3813 25.9348 70.5515 26.1541 69.4663 26.1541C68.3811 26.1541 67.548 25.9359 66.9658 25.4984C66.3904 25.0541 66.1033 24.3148 66.1033 23.2816V22.6915H66.1021Z" fill="white"/>
<path d="M76.8548 17.2294L80.2834 28.7395H83.3887L85.8237 20.3811C85.8497 20.2917 85.9763 20.2895 86.0045 20.3788L88.6305 28.7395H91.7347L95.1859 17.2294H91.8093L90.1057 23.6401C90.0334 23.9317 89.9633 24.2189 89.8977 24.5026C89.8604 24.6812 89.7983 24.965 89.7587 25.1447C89.7497 25.1843 89.6931 25.1854 89.6841 25.1447C89.6355 24.939 89.5835 24.7253 89.5258 24.5015C89.4535 24.2098 89.3732 23.9227 89.285 23.639L87.3848 17.2283H84.1518C84.1518 17.2283 82.2436 23.7678 81.8909 25.0712C81.8762 25.1277 81.7959 25.1266 81.7812 25.0712L79.8052 17.2294H76.8525H76.8548Z" fill="white"/>
<path d="M96.0801 23.1608C96.0801 24.8643 96.5424 26.2582 97.4671 27.3434C98.3986 28.4207 99.6918 28.9599 101.345 28.9599C102.204 28.9599 102.946 28.8039 103.571 28.4908C104.007 28.2703 104.565 27.7763 104.873 27.4881C104.998 28.0171 105.166 28.7429 105.166 28.7429H107.873V12H105.024V18.6176C104.66 18.1077 104.18 17.7143 103.583 17.4385C102.986 17.1548 102.261 17.0123 101.41 17.0123C99.8082 17.0123 98.5195 17.5549 97.544 18.639C96.5684 19.7163 96.0801 21.1068 96.0801 22.8103V23.1596V23.1608ZM98.8655 23.2704L98.8553 22.7029C98.8553 21.8732 99.1096 21.2029 99.6195 20.693C100.129 20.1764 100.919 19.9176 101.99 19.9176C102.739 19.9176 103.377 20.0928 103.9 20.4421C103.906 20.4455 103.911 20.4489 103.916 20.4523C104.617 20.9248 105.025 21.7251 105.025 22.5707V23.362C105.025 24.2313 104.595 25.0509 103.863 25.52C103.857 25.5234 103.852 25.5268 103.846 25.5302C103.285 25.8795 102.638 26.0547 101.903 26.0547C100.825 26.0547 100.05 25.7958 99.5765 25.2792C99.1029 24.7626 98.8666 24.0922 98.8666 23.2693L98.8655 23.2704Z" fill="white"/>
<path d="M111.105 28.7417H113.825V17.2305H111.105V28.7406V28.7417ZM110.528 14.0856C110.528 14.5808 110.695 14.9889 111.03 15.3088C111.372 15.6219 111.852 15.7779 112.471 15.7779C113.091 15.7779 113.556 15.6174 113.891 15.2975C114.233 14.9776 114.404 14.5729 114.404 14.0856C114.404 13.5984 114.237 13.205 113.901 12.884C113.566 12.5641 113.086 12.4036 112.46 12.4036C111.833 12.4036 111.372 12.5641 111.03 12.884C110.695 13.2039 110.528 13.6052 110.528 14.0856Z" fill="white"/>
<path d="M117.123 28.7417H119.843V24.0731C119.843 21.4301 120.778 19.7548 122.813 19.7548C124.847 19.7548 125.282 20.9384 125.282 22.6001V28.7417H128V21.9162C128 19.9583 127.6 18.6504 126.799 17.9958C125.997 17.3334 124.975 17.0022 123.729 17.0022C122.908 17.0022 122.147 17.1548 121.447 17.4612C120.819 17.7325 120.307 18.1191 119.912 18.6187C119.879 18.4412 119.699 17.2317 119.699 17.2317H117.122V28.7417H117.123Z" fill="white"/>
</svg>
