<svg width="100%" height="100%" viewBox="0 0 184 92" xmlns="http://www.w3.org/2000/svg" xml:space="preserve"
    style="fill-rule:evenodd;clip-rule:evenodd;stroke-linejoin:round;stroke-miterlimit:2">
    <path
        d="M184 13.8v64.4c0 7.616-6.184 13.8-13.8 13.8H13.8C6.184 92 0 85.816 0 78.2V13.8C0 6.184 6.184 0 13.8 0h156.4c7.616 0 13.8 6.184 13.8 13.8Z"
        style="fill:#f2f2f2" />
    <path
        d="M46.552 20.06c0 2.75.842 4.954 2.524 6.617 1.684 1.66 3.959 2.492 6.829 2.492 2.87 0 4.8-.702 6.236-2.105 1.434-1.414 2.152-3.053 2.152-4.916v-.17H60.14v.152c0 .751-.328 1.398-.982 1.936-.657.539-1.751.809-3.288.809-1.727 0-2.994-.422-3.796-1.264-.801-.841-1.203-1.964-1.203-3.367v-.91c0-1.402.407-2.525 1.221-3.366.814-.842 2.073-1.264 3.778-1.264 1.491 0 2.575.258 3.254.774.69.516 1.033 1.168 1.033 1.954v.169h4.152l-.017-.22c-.069-1.875-.802-3.501-2.203-4.883-1.402-1.393-3.463-2.088-6.185-2.088-2.87 0-5.147.831-6.83 2.492-1.683 1.65-2.523 3.855-2.523 6.617v.541h.001Zm21.233 8.603h4.237v-8.745c0-1.915.926-2.905 1.694-3.445.768-.55 1.644-.824 2.626-.824.305 0 .582.017.83.05.26.033.503.073.728.119v-5.152a3.686 3.686 0 0 0-.593-.152 3.95 3.95 0 0 0-.797-.083c-1.005 0-1.903.27-2.694.809a6.292 6.292 0 0 0-1.724 1.714c-.046.068-.153.04-.158-.042l-.37-1.993h-3.78v17.745h.001v-.001ZM79.63 20.06c0 2.75.876 4.954 2.627 6.617 1.75 1.66 4.055 2.492 6.915 2.492 2.859 0 5.146-.831 6.897-2.492 1.763-1.661 2.643-3.867 2.643-6.617v-.539c0-2.76-.88-4.967-2.643-6.617-1.75-1.661-4.05-2.492-6.897-2.492-2.847 0-5.163.831-6.915 2.492-1.75 1.65-2.626 3.855-2.626 6.617v.539h-.001Zm4.321-.724c0-1.537.453-2.66 1.356-3.367.904-.707 2.191-1.061 3.865-1.061 1.673 0 2.943.354 3.846 1.061.916.708 1.374 1.83 1.374 3.367v.91c0 1.595-.453 2.733-1.356 3.418-.893.672-2.18 1.01-3.864 1.01-1.684 0-2.977-.336-3.88-1.01-.893-.685-1.339-1.825-1.339-3.418v-.91h-.002Zm16.685-8.421 5.321 17.745h4.818l3.779-12.886c.04-.137.236-.14.28-.003l4.075 12.89h4.817l5.355-17.746h-5.239l-2.644 9.884c-.112.45-.221.892-.323 1.33-.057.275-.154.712-.215.99-.014.06-.102.062-.116 0-.078-.332-.16-.662-.246-.992-.111-.447-.236-.89-.373-1.33l-2.949-9.883h-5.017s-2.961 10.082-3.508 12.09c-.023.088-.147.086-.17 0l-3.066-12.089h-4.582.003Zm29.833 9.145c0 2.626.717 4.775 2.152 6.448 1.446 1.66 3.452 2.492 6.017 2.492 1.333 0 2.485-.24 3.455-.723.676-.34 1.542-1.102 2.019-1.546.195.815.456 1.934.456 1.934h4.2V2.853h-4.421v10.203a5.539 5.539 0 0 0-2.236-1.818c-.926-.438-2.051-.657-3.372-.657-2.485 0-4.485.836-5.999 2.508-1.513 1.66-2.271 3.804-2.271 6.43v.541Zm4.322.169-.016-.875c0-1.28.395-2.313 1.186-3.099.791-.796 2.017-1.195 3.678-1.195 1.163 0 2.153.27 2.965.808l.024.016a3.925 3.925 0 0 1 1.721 3.266v1.22a3.94 3.94 0 0 1-1.829 3.342c-.87.539-1.876.809-3.016.809-1.673 0-2.875-.4-3.61-1.195-.735-.797-1.101-1.83-1.101-3.1l-.002.003Zm18.994 8.435h4.22V10.917h-4.22v17.747Zm-.897-22.595c0 .763.26 1.392.779 1.885.532.483 1.275.724 2.237.724.961 0 1.684-.248 2.203-.741.531-.493.796-1.117.796-1.868 0-.751-.259-1.358-.78-1.853-.52-.493-1.265-.74-2.237-.74-.972 0-1.687.247-2.219.74-.519.493-.779 1.112-.779 1.853Zm10.234 22.594h4.22v-7.197c0-4.075 1.451-6.657 4.608-6.657 3.158 0 3.831 1.824 3.831 4.386v9.468H180V18.142c0-3.019-.621-5.035-1.865-6.044-1.243-1.021-2.829-1.532-4.762-1.532-1.275 0-2.456.235-3.542.708-.975.418-1.769 1.014-2.382 1.784-.051-.273-.329-2.138-.329-2.138h-4v17.745h.002v-.002ZM26.38 0H10.737c-1.68 0-3.216.287-4.566.826a9.593 9.593 0 0 0-3.23 2.097A9.548 9.548 0 0 0 .776 6.271C.27 7.58 0 9.057 0 10.668v15.54c0 1.713.291 3.265.838 4.625a9.598 9.598 0 0 0 2.116 3.232 9.495 9.495 0 0 0 3.236 2.103c1.373.544 2.943.832 4.672.832H26.38c1.724 0 3.286-.29 4.655-.832a9.664 9.664 0 0 0 3.253-2.103 9.402 9.402 0 0 0 2.123-3.232c.544-1.36.831-2.914.831-4.625V10.792c0-1.67-.276-3.185-.796-4.52a9.617 9.617 0 0 0-2.158-3.337 9.477 9.477 0 0 0-3.252-2.11C29.665.286 28.102 0 26.379 0h.001Z"
        style="fill:#263238;fill-rule:nonzero" transform="translate(2 27.5)" />
    <path
        d="M23.04 22.681c-.012-.136-.124-.654-.484-.666h-1.117s-.46 0-.46.444c.013.863.51 1.603 1.118 2.097.509.42 1.13.641 1.837.641.62-.012.695-.456.397-.592-.497-.234-1.142-.752-1.279-1.924h-.012Zm3.34-11.889c-1.601 0-3.202.197-4.656.553-1.388.34-2.643.824-3.637 1.42-1.093.654-1.937 1.443-2.52 2.356a5.832 5.832 0 0 0-.894 2.405c-.037.283-.062 1.171.882 1.406.583.148 1.502.21 2.11.283.993.111 1.266-.986 1.353-1.171.782-2.146 1.949-3.59 3.612-4.539 1.015-.578 2.24-.97 3.75-1.19 1.001-.145 2.128-.216 3.4-.216.423 0 1.403.05 1.403-.432 0-.369-.771-.58-1.7-.701-1.244-.162-2.77-.162-3.104-.162v-.012h.001Zm-4.358 16.292c-1.13-.259-3.029-1.48-3.463-4.576-.087-.58-.41-.863-.907-.962-.658-.135-1.812-.197-2.184-.234-.534-.05-.931.259-.87 1.184.112 1.406.683 2.504 1.64 3.589 1.129 1.283 2.619 2.023 4.207 1.986 1.75-.037 1.875-.346 1.887-.58 0-.234-.111-.37-.31-.42v.013Zm-4.754 2.59c-1.75 0-5.425-2.787-5.425-7.153 0-.765-.472-1.542-1.44-1.826-.782-.234-1.9-.58-2.607-.616-1.7-.111-1.614 1.295-1.564 2.035.161 3.095 1.54 5.71 3.81 7.19.944.617 2.062 1.036 3.377 1.283.31.061 1.415.283 2.533.246 1.725-.074 1.9-.567 1.9-.764 0-.26-.187-.383-.584-.383v-.012Z"
        style="fill:#fff;fill-rule:nonzero" transform="translate(2 27.5)" />
    <path
        d="M31.618 7.77a31.852 31.852 0 0 0-2.135-.533 33.572 33.572 0 0 0-3.104-.511 35.23 35.23 0 0 0-7.709-.054c-2.232.236-4.723.788-6.892 1.924-2.259 1.183-4.169 2.998-5.075 5.748-.186.555-.52 2.59 1.44 3.083.634.16 1.28.444 1.95.567 1.911.346 2.32-1.455 2.433-1.813.111-.345.235-.678.384-1.023a9.463 9.463 0 0 1 2.545-3.244c2.135-1.776 4.792-2.615 7.374-3.022a25.078 25.078 0 0 1 4.506-.296 81.093 81.093 0 0 1 3.7.164c1.194.077 1.42.088 1.526-.213.174-.493-.645-.703-.943-.777Zm-3.886 7.067c-5.04 0-6.355 2.516-6.728 4.193-.174.814.323.876.782.962.646.111 1.167.013 1.403-.604.708-1.912 1.676-3.786 4.742-3.786.31 0 .584-.198.584-.383s-.2-.382-.77-.382h-.013Z"
        style="fill:#fff;fill-rule:nonzero" transform="translate(2 27.5)" />
</svg>