<?xml version="1.0" encoding="UTF-8" standalone="no"?>
<!DOCTYPE svg PUBLIC "-//W3C//DTD SVG 1.1//EN" "http://www.w3.org/Graphics/SVG/1.1/DTD/svg11.dtd">
<svg width="100%" height="100%" viewBox="0 0 180 37" version="1.1" xmlns="http://www.w3.org/2000/svg"
    xmlns:xlink="http://www.w3.org/1999/xlink" xml:space="preserve" xmlns:serif="http://www.serif.com/"
    style="fill-rule:evenodd;clip-rule:evenodd;stroke-linejoin:round;stroke-miterlimit:2;">
    <rect x="0" y="0" width="180" height="37" style="fill:#fff;" />
    <g>
        <path
            d="M46.552,20.06c0,2.75 0.842,4.954 2.524,6.617c1.684,1.66 3.959,2.492 6.829,2.492c2.87,0 4.8,-0.702 6.236,-2.105c1.434,-1.414 2.152,-3.053 2.152,-4.916l0,-0.17l-4.153,0l0,0.152c0,0.751 -0.328,1.398 -0.982,1.936c-0.657,0.539 -1.751,0.809 -3.288,0.809c-1.727,0 -2.994,-0.422 -3.796,-1.264c-0.801,-0.841 -1.203,-1.964 -1.203,-3.367l0,-0.91c0,-1.402 0.407,-2.525 1.221,-3.366c0.814,-0.842 2.073,-1.264 3.778,-1.264c1.491,0 2.575,0.258 3.254,0.774c0.69,0.516 1.033,1.168 1.033,1.954l0,0.169l4.152,0l-0.017,-0.22c-0.069,-1.875 -0.802,-3.501 -2.203,-4.883c-1.402,-1.393 -3.463,-2.088 -6.185,-2.088c-2.87,0 -5.147,0.831 -6.83,2.492c-1.683,1.65 -2.523,3.855 -2.523,6.617l0,0.541l0.001,-0Zm21.233,8.603l4.237,-0l0,-8.745c0,-1.915 0.926,-2.905 1.694,-3.445c0.768,-0.55 1.644,-0.824 2.626,-0.824c0.305,-0 0.582,0.017 0.83,0.05c0.26,0.033 0.503,0.073 0.728,0.119l0,-5.152c-0.193,-0.067 -0.392,-0.118 -0.593,-0.152c-0.262,-0.055 -0.529,-0.082 -0.797,-0.083c-1.005,-0 -1.903,0.27 -2.694,0.809c-0.681,0.454 -1.266,1.036 -1.724,1.714c-0.046,0.068 -0.153,0.04 -0.158,-0.042l-0.37,-1.993l-3.78,-0l0,17.745l0.001,-0l0,-0.001Zm11.845,-8.603c0,2.75 0.876,4.954 2.627,6.617c1.75,1.66 4.055,2.492 6.915,2.492c2.859,-0 5.146,-0.831 6.897,-2.492c1.763,-1.661 2.643,-3.867 2.643,-6.617l0,-0.539c0,-2.76 -0.88,-4.967 -2.643,-6.617c-1.75,-1.661 -4.05,-2.492 -6.897,-2.492c-2.847,-0 -5.163,0.831 -6.915,2.492c-1.75,1.65 -2.626,3.855 -2.626,6.617l0,0.539l-0.001,-0Zm4.321,-0.724c0,-1.537 0.453,-2.66 1.356,-3.367c0.904,-0.707 2.191,-1.061 3.865,-1.061c1.673,-0 2.943,0.354 3.846,1.061c0.916,0.708 1.374,1.83 1.374,3.367l0,0.91c0,1.595 -0.453,2.733 -1.356,3.418c-0.893,0.672 -2.18,1.01 -3.864,1.01c-1.684,-0 -2.977,-0.336 -3.88,-1.01c-0.893,-0.685 -1.339,-1.825 -1.339,-3.418l0,-0.91l-0.002,-0Zm16.685,-8.421l5.321,17.745l4.818,-0l3.779,-12.886c0.04,-0.137 0.236,-0.14 0.28,-0.003l4.075,12.89l4.817,0l5.355,-17.746l-5.239,0l-2.644,9.884c-0.112,0.45 -0.221,0.892 -0.323,1.33c-0.057,0.275 -0.154,0.712 -0.215,0.99c-0.014,0.06 -0.102,0.062 -0.116,0c-0.078,-0.332 -0.16,-0.662 -0.246,-0.992c-0.111,-0.447 -0.236,-0.89 -0.373,-1.33l-2.949,-9.883l-5.017,0c0,0 -2.961,10.082 -3.508,12.09c-0.023,0.088 -0.147,0.086 -0.17,0l-3.066,-12.089l-4.582,0l0.003,0Zm29.833,9.145c0,2.626 0.717,4.775 2.152,6.448c1.446,1.66 3.452,2.492 6.017,2.492c1.333,-0 2.485,-0.24 3.455,-0.723c0.676,-0.34 1.542,-1.102 2.019,-1.546c0.195,0.815 0.456,1.934 0.456,1.934l4.2,-0l0,-25.812l-4.421,-0l0,10.203c-0.564,-0.786 -1.31,-1.393 -2.236,-1.818c-0.926,-0.438 -2.051,-0.657 -3.372,-0.657c-2.485,-0 -4.485,0.836 -5.999,2.508c-1.513,1.66 -2.271,3.804 -2.271,6.43l0,0.541Zm4.322,0.169l-0.016,-0.875c0,-1.28 0.395,-2.313 1.186,-3.099c0.791,-0.796 2.017,-1.195 3.678,-1.195c1.163,-0 2.153,0.27 2.965,0.808l0.024,0.016c1.081,0.733 1.728,1.96 1.721,3.266l0,1.22c0.006,1.353 -0.686,2.618 -1.829,3.342c-0.87,0.539 -1.876,0.809 -3.016,0.809c-1.673,-0 -2.875,-0.4 -3.61,-1.195c-0.735,-0.797 -1.101,-1.83 -1.101,-3.1l-0.002,0.003Zm18.994,8.435l4.22,0l0,-17.747l-4.22,-0l0,17.747Zm-0.897,-22.595c0,0.763 0.26,1.392 0.779,1.885c0.532,0.483 1.275,0.724 2.237,0.724c0.961,0 1.684,-0.248 2.203,-0.741c0.531,-0.493 0.796,-1.117 0.796,-1.868c0,-0.751 -0.259,-1.358 -0.78,-1.853c-0.52,-0.493 -1.265,-0.74 -2.237,-0.74c-0.972,0 -1.687,0.247 -2.219,0.74c-0.519,0.493 -0.779,1.112 -0.779,1.853Zm10.234,22.594l4.22,-0l0,-7.197c0,-4.075 1.451,-6.657 4.608,-6.657c3.158,-0 3.831,1.824 3.831,4.386l0,9.468l4.219,-0l0,-10.521c0,-3.019 -0.621,-5.035 -1.865,-6.044c-1.243,-1.021 -2.829,-1.532 -4.762,-1.532c-1.275,-0 -2.456,0.235 -3.542,0.708c-0.975,0.418 -1.769,1.014 -2.382,1.784c-0.051,-0.273 -0.329,-2.138 -0.329,-2.138l-4,-0l0,17.745l0.002,-0l0,-0.002Zm-136.742,-28.663l-15.643,-0c-1.68,-0 -3.216,0.287 -4.566,0.826c-1.207,0.473 -2.306,1.187 -3.23,2.097c-0.949,0.951 -1.687,2.092 -2.165,3.348c-0.506,1.309 -0.776,2.786 -0.776,4.397l0,15.54c0,1.713 0.291,3.265 0.838,4.625c0.479,1.21 1.199,2.309 2.116,3.232c0.923,0.915 2.025,1.631 3.236,2.103c1.373,0.544 2.943,0.832 4.672,0.832l15.518,-0c1.724,-0 3.286,-0.29 4.655,-0.832c1.215,-0.474 2.322,-1.19 3.253,-2.103c0.924,-0.919 1.647,-2.019 2.123,-3.232c0.544,-1.36 0.831,-2.914 0.831,-4.625l0,-15.416c0,-1.67 -0.276,-3.185 -0.796,-4.52c-0.479,-1.25 -1.214,-2.387 -2.158,-3.337c-0.927,-0.92 -2.034,-1.638 -3.252,-2.11c-1.371,-0.539 -2.934,-0.825 -4.657,-0.825l0.001,-0Z"
            style="fill:#263238;fill-rule:nonzero;" />
        <path
            d="M23.04,22.681c-0.012,-0.136 -0.124,-0.654 -0.484,-0.666l-1.117,0c0,0 -0.46,0 -0.46,0.444c0.013,0.863 0.51,1.603 1.118,2.097c0.509,0.42 1.13,0.641 1.837,0.641c0.62,-0.012 0.695,-0.456 0.397,-0.592c-0.497,-0.234 -1.142,-0.752 -1.279,-1.924l-0.012,0Zm3.34,-11.889c-1.601,-0 -3.202,0.197 -4.656,0.553c-1.388,0.34 -2.643,0.824 -3.637,1.42c-1.093,0.654 -1.937,1.443 -2.52,2.356c-0.473,0.725 -0.778,1.547 -0.894,2.405c-0.037,0.283 -0.062,1.171 0.882,1.406c0.583,0.148 1.502,0.21 2.11,0.283c0.993,0.111 1.266,-0.986 1.353,-1.171c0.782,-2.146 1.949,-3.59 3.612,-4.539c1.015,-0.578 2.24,-0.97 3.75,-1.19c1.001,-0.145 2.128,-0.216 3.4,-0.216c0.423,-0 1.403,0.05 1.403,-0.432c0,-0.369 -0.771,-0.58 -1.7,-0.701c-1.244,-0.162 -2.77,-0.162 -3.104,-0.162l0,-0.012l0.001,-0Zm-4.358,16.292c-1.13,-0.259 -3.029,-1.48 -3.463,-4.576c-0.087,-0.58 -0.41,-0.863 -0.907,-0.962c-0.658,-0.135 -1.812,-0.197 -2.184,-0.234c-0.534,-0.05 -0.931,0.259 -0.87,1.184c0.112,1.406 0.683,2.504 1.64,3.589c1.129,1.283 2.619,2.023 4.207,1.986c1.75,-0.037 1.875,-0.346 1.887,-0.58c0,-0.234 -0.111,-0.37 -0.31,-0.42l0,0.013Zm-4.754,2.59c-1.75,-0 -5.425,-2.787 -5.425,-7.153c0,-0.765 -0.472,-1.542 -1.44,-1.826c-0.782,-0.234 -1.9,-0.58 -2.607,-0.616c-1.7,-0.111 -1.614,1.295 -1.564,2.035c0.161,3.095 1.54,5.71 3.81,7.19c0.944,0.617 2.062,1.036 3.377,1.283c0.31,0.061 1.415,0.283 2.533,0.246c1.725,-0.074 1.9,-0.567 1.9,-0.764c0,-0.26 -0.187,-0.383 -0.584,-0.383l0,-0.012Z"
            style="fill:#fff;fill-rule:nonzero;" />
        <path
            d="M31.618,7.77c-0.705,-0.202 -1.417,-0.38 -2.135,-0.533c-1.026,-0.219 -2.062,-0.389 -3.104,-0.511c-2.56,-0.3 -5.145,-0.318 -7.709,-0.054c-2.232,0.236 -4.723,0.788 -6.892,1.924c-2.259,1.183 -4.169,2.998 -5.075,5.748c-0.186,0.555 -0.52,2.59 1.44,3.083c0.634,0.16 1.28,0.444 1.95,0.567c1.911,0.346 2.32,-1.455 2.433,-1.813c0.111,-0.345 0.235,-0.678 0.384,-1.023c0.599,-1.255 1.469,-2.363 2.545,-3.244c2.135,-1.776 4.792,-2.615 7.374,-3.022c1.49,-0.234 2.998,-0.333 4.506,-0.296c0.716,0.015 1.432,0.04 2.148,0.074c0.646,0.031 1.153,0.064 1.552,0.09c1.194,0.077 1.42,0.088 1.526,-0.213c0.174,-0.493 -0.645,-0.703 -0.943,-0.777Zm-3.886,7.067c-5.04,-0 -6.355,2.516 -6.728,4.193c-0.174,0.814 0.323,0.876 0.782,0.962c0.646,0.111 1.167,0.013 1.403,-0.604c0.708,-1.912 1.676,-3.786 4.742,-3.786c0.31,-0 0.584,-0.198 0.584,-0.383c0,-0.185 -0.2,-0.382 -0.77,-0.382l-0.013,-0Z"
            style="fill:#fff;fill-rule:nonzero;" />
    </g>
</svg>