<svg width="100%" height="100%" viewBox="0 0 2550 1275" xmlns="http://www.w3.org/2000/svg" xml:space="preserve"
    style="fill-rule:evenodd;clip-rule:evenodd;stroke-linejoin:round;stroke-miterlimit:2">
    <path
        d="M2550 191.25v892.5c0 105.55-85.7 191.25-191.25 191.25H191.25C85.696 1275 0 1189.3 0 1083.75v-892.5C0 85.696 85.696 0 191.25 0h2167.5C2464.3 0 2550 85.696 2550 191.25Z"
        style="fill:#f2f2f2" />
    <path
        d="M209.98 421.828v-82.036c86.976 0 154.067-85.753 120.534-176.497a122.32 122.32 0 0 0-73.303-73.303A129.595 129.595 0 0 0 211.6 81.7c-70.803 0-129.171 58.025-129.589 128.826H0c0-136.727 132.959-244.86 278.318-200.1C341.664 30.324 391.392 80.06 411.277 143.41c44.736 145.434-63.373 278.418-201.297 278.418Z"
        style="fill:#0080ff;fill-rule:nonzero" transform="translate(25 426.5)" />
    <path
        d="M211.228 339.792h-82.011v-80.788h82.011m-82.011 144.187H67.091v-63.399h62.126v63.399m-62.126-63.399H14.97v-52.195h52.121m682.16-165.32c-23.602-16.167-54.665-24.95-89.471-24.95h-75.773v242.366h75.798c34.797 0 64.621-8.7 89.471-26.098a95.095 95.095 0 0 0 31.063-38.523c7.485-16.168 11.178-36.053 11.178-57.186 0-21.133-3.718-41.018-11.178-55.938-7.485-18.538-17.415-30.963-31.088-39.671Zm-120.508 16.168h23.602c26.098 0 48.453 4.99 65.844 16.168 18.637 11.177 27.445 32.435 27.445 63.398s-9.98 53.443-27.445 65.868c-16.143 9.98-37.276 16.168-64.621 16.168h-24.825V138.445M844.935 93.71a25.285 25.285 0 0 0-18.638 7.485 22.469 22.469 0 0 0-8.707 18.637c0 14.317 11.781 26.098 26.098 26.098 14.316 0 26.097-11.781 26.097-26.098a25.304 25.304 0 0 0-7.485-18.637c-3.717-4.99-9.98-7.485-17.465-7.485m-22.455 74.575h43.488V338.57h-43.313V168.285m198.805 14.97c-12.48-11.177-27.448-18.637-43.491-18.637a76.932 76.932 0 0 0-58.408 24.95 86.583 86.583 0 0 0-23.603 60.903c0 23.628 7.485 44.736 22.455 60.903 14.97 16.168 34.781 23.628 58.409 23.628a68.776 68.776 0 0 0 42.238-13.673v3.718c0 13.673-3.71 24.95-11.18 32.435-7.46 7.485-17.461 11.178-31.058 11.178-19.961 0-32.311-7.485-47.206-28.593l-29.94 28.593 1.247 1.247c6.213 8.708 16.143 17.465 28.568 26.098s28.568 12.475 47.206 12.475c26.103 0 45.983-7.485 60.873-23.628 14.9-16.142 23.61-36.053 23.61-62.15V168.285h-42.19v14.97h2.49m-11.17 100.674c-7.49 8.708-17.47 12.475-29.946 12.475-12.475 0-22.455-3.717-29.94-12.475-7.485-8.757-11.177-19.96-11.177-33.558 0-13.598 3.967-24.925 11.452-33.632 7.485-8.708 17.465-12.476 29.94-12.476 12.475 0 22.451 3.718 29.941 12.476 7.48 8.757 11.18 19.96 11.18 33.557 0 13.598-3.72 24.951-11.18 33.558m90.69-115.594h43.49v170.285h-43.76v-170.26m21.13-74.575c-.21-.006-.42-.008-.63-.008-13.98 0-25.48 11.499-25.48 25.474 0 .21.01.421.01.631 0 14.317 11.78 26.098 26.1 26.098 14.32 0 26.1-11.781 26.1-26.098 0-.21.01-.421.01-.632 0-13.974-11.5-25.474-25.48-25.474-.22 0-.43.003-.65.009m115.52 28.567h-42.2v46.008h-24.95v38.523h24.95v70.859c0 22.455 4.99 38.523 13.68 47.23 8.68 8.708 24.95 13.673 45.98 13.673 7.07.205 14.14-.213 21.13-1.248h2.5v-38.548l-14.97 1.248c-9.98 0-17.47-1.248-19.96-4.99-3.72-3.718-4.99-11.178-4.99-22.455v-64.521h39.77v-38.548h-39.65l-1.29-47.231m241.04-24.95h43.49v242.366h-43.44V97.477m477.14 181.462a143.84 143.84 0 0 1-21.13 19.96 42.888 42.888 0 0 1-22.45 6.213 42.422 42.422 0 0 1-30.94-13.798c-8.71-9.98-12.48-21.132-12.48-36.053 0-14.92 3.72-26.097 12.48-36.052a38.215 38.215 0 0 1 31.06-13.673c13.67 0 28.57 8.708 40.99 23.628l28.57-27.445c-18.64-23.628-42.24-34.806-70.83-34.806-23.61 0-43.49 8.708-60.88 26.098a90.333 90.333 0 0 0-24.95 63.398c0 24.95 8.71 47.231 24.95 63.398a80.847 80.847 0 0 0 60.88 26.098c31.06 0 55.91-13.672 73.3-38.523l-28.57-28.593m175.2-85.753a65.41 65.41 0 0 0-24.95-19.96 81.043 81.043 0 0 0-36.02-7.485c-23.61 0-43.49 8.707-58.41 26.098a99.814 99.814 0 0 0-21.14 63.398c0 26.098 7.49 47.23 23.61 63.398 16.11 16.168 36.02 24.95 62.12 24.95 28.57 0 52.2-11.178 70.84-34.805l1.24-1.248-28.56-27.445c-2.5 3.718-6.22 6.213-9.98 9.98a37.985 37.985 0 0 1-12.48 8.708 40.82 40.82 0 0 1-21.13 4.99 47.837 47.837 0 0 1-29.94-9.98c-7.49-6.213-11.18-14.97-12.48-26.098H2148v-16.168a92.653 92.653 0 0 0-4.99-32.435 56.266 56.266 0 0 0-12.47-26.098m-92.77 40.07a44.094 44.094 0 0 1 11.18-19.96 29.972 29.972 0 0 1 22.46-8.707c9.98 0 18.64 2.495 23.6 8.707 4.99 4.99 7.48 12.475 8.71 19.96h-65.95m258.46-50.973c-12.47-11.178-31.06-16.168-53.42-16.168a108.815 108.815 0 0 0-39.72 8.733c-11.17 6.213-22.45 14.97-28.56 27.445l27.44 26.098c11.18-18.638 23.6-24.95 40.99-24.95a34.69 34.69 0 0 1 22.46 7.485 22.477 22.477 0 0 1 8.71 18.638v8.707a95.19 95.19 0 0 0-31.07-4.99c-21.12 0-38.52 4.99-52.19 14.97-13.67 9.98-19.96 24.95-19.96 42.266 0 16.167 4.99 28.592 16.14 38.523 11.15 9.93 24.95 13.672 40.99 13.672 16.05 0 31.07-6.212 45.99-17.465v13.673h42.24V229.189c0-19.96-6.22-36.053-19.96-47.231m-75.8 91.966c4.99-3.717 11.18-4.99 19.96-4.99 11.03.372 21.93 2.468 32.31 6.213v16.167a54.9 54.9 0 0 1-37.28 13.673c-7.48 0-13.67-1.247-17.46-4.99-3.79-3.743-6.21-7.485-6.21-12.475a20.379 20.379 0 0 1 8.7-13.673m260.83-89.421c-12.47-13.673-28.57-19.96-49.7-19.96-17.4 0-31.06 4.99-40.99 14.97v-9.98h-42.27v170.285h43.49v-94.412c0-12.475 2.5-23.627 8.71-31.063a31.315 31.315 0 0 1 24.95-11.177 27.294 27.294 0 0 1 22.45 9.98 44.876 44.876 0 0 1 8.71 27.445v99.426H2500v-99.576c-1.25-23.619-7.46-42.265-18.64-55.938m-1056.16-2.495c-12.47-11.178-31.06-16.168-53.42-16.168a108.8 108.8 0 0 0-39.77 8.708c-11.17 6.213-22.45 14.97-28.57 27.445l27.45 26.098c11.18-18.638 23.6-24.95 40.99-24.95a34.708 34.708 0 0 1 22.46 7.485 22.477 22.477 0 0 1 8.71 18.638v8.707a95.19 95.19 0 0 0-31.07-4.99c-21.12 0-38.52 4.99-52.19 14.97-13.67 9.98-19.96 24.95-19.96 42.266 0 16.167 4.99 28.593 16.14 38.523 11.15 9.93 24.95 13.672 40.99 13.672 16.05 0 31.07-6.212 45.99-17.465v13.673h42.24V229.189c0-19.96-7.49-36.053-19.96-47.231m-77.05 91.966c4.99-3.717 11.18-4.99 19.96-4.99 11.03.372 21.93 2.468 32.31 6.213v16.167a54.892 54.892 0 0 1-37.27 13.673c-7.49 0-13.68-1.247-17.47-4.99-3.79-3.743-6.21-7.485-6.21-12.475a37.033 37.033 0 0 1 8.71-13.673m329.34 69.611h-.05c-68.19 0-124.3-56.112-124.3-124.301 0-68.19 56.11-124.302 124.3-124.302s124.3 56.112 124.3 124.302c-.25 68.078-56.18 124.029-124.25 124.301m0-206.312h-.13c-44.32 0-80.79 36.469-80.79 80.788 0 44.319 36.47 80.788 80.79 80.788 44.3 0 80.76-36.438 80.79-80.738v-.175c0-44.223-36.39-80.614-80.61-80.614l-.15.001"
        style="fill:#0080ff;fill-rule:nonzero" transform="translate(25 426.5)" />
</svg>