<svg width="100%" height="100%" viewBox="0 0 197 38" version="1.1"
    xmlns="http://www.w3.org/2000/svg"
    xmlns:xlink="http://www.w3.org/1999/xlink" xml:space="preserve"
    xmlns:serif="http://www.serif.com/"
    style="fill-rule:evenodd;clip-rule:evenodd;">
    <path
        d="M6.507,16.101C8.348,9.23 15.422,5.146 22.293,6.987C29.164,8.828 33.248,15.902 31.407,22.773C29.566,29.644 22.492,33.728 15.621,31.887C8.75,30.046 4.666,22.972 6.507,16.101Z"
        style="fill:none;fill-rule:nonzero;stroke:rgb(0,105,255);stroke-width:6.22px;stroke-dasharray:170.82,56.94;stroke-dashoffset:113.88;" />
    <path
        d="M4.202,25.304L8.113,25.304L8.113,29.215L4.202,29.215L4.202,25.304ZM8.113,29.215L12.913,29.215L12.913,34.015L8.113,34.015L8.113,29.215ZM12.824,23.082L18.957,23.082L18.957,29.215L12.824,29.215L12.824,23.082Z"
        style="fill:rgb(0,105,255);fill-rule:nonzero;" />
    <path
        d="M59.088,10.492C57.253,9.238 54.959,8.592 52.282,8.592L46.47,8.592L46.47,26.991L52.282,26.991C54.959,26.991 57.253,26.306 59.088,24.976C60.082,24.254 60.885,23.265 61.421,22.011C61.956,20.756 62.262,19.312 62.262,17.677C62.262,16.042 61.994,14.598 61.421,13.381C60.885,12.127 60.121,11.139 59.088,10.492ZM49.875,11.671L51.71,11.671C53.737,11.671 55.419,12.051 56.681,12.849C58.096,13.686 58.822,15.32 58.822,17.639C58.822,20.034 58.096,21.707 56.681,22.619C55.457,23.417 53.813,23.836 51.748,23.836L49.913,23.836L49.913,11.671L49.875,11.671ZM66.354,8.325C65.78,8.325 65.322,8.516 64.939,8.896C64.557,9.276 64.327,9.732 64.327,10.302C64.327,10.872 64.519,11.329 64.901,11.747C65.283,12.127 65.78,12.317 66.354,12.317C66.928,12.317 67.386,12.127 67.807,11.747C68.189,11.367 68.381,10.872 68.381,10.302C68.381,9.732 68.189,9.276 67.807,8.896C67.386,8.554 66.889,8.325 66.354,8.325ZM64.671,13.989L67.959,13.989L67.959,26.952L64.671,26.952L64.671,13.989ZM79.848,15.092C78.854,14.218 77.745,13.723 76.56,13.723C74.763,13.723 73.233,14.332 72.086,15.586C70.901,16.803 70.327,18.361 70.327,20.224C70.327,22.049 70.901,23.607 72.048,24.862C73.195,26.078 74.725,26.686 76.522,26.686C77.784,26.686 78.854,26.344 79.772,25.66L79.772,25.964C79.772,27.028 79.466,27.865 78.931,28.435C78.357,29.005 77.554,29.309 76.598,29.309C75.069,29.309 74.151,28.701 72.966,27.181L70.748,29.309L70.824,29.385C71.322,30.07 72.048,30.716 73.004,31.324C73.96,31.932 75.222,32.274 76.637,32.274C78.587,32.274 80.154,31.666 81.301,30.488C82.449,29.309 83.06,27.713 83.06,25.774L83.06,13.99L79.848,13.99L79.848,15.092ZM78.97,22.733C78.396,23.379 77.67,23.683 76.714,23.683C75.758,23.683 75.031,23.379 74.496,22.733C73.922,22.087 73.655,21.25 73.655,20.186C73.655,19.122 73.922,18.285 74.496,17.639C75.07,16.993 75.796,16.689 76.714,16.689C77.67,16.689 78.396,16.993 78.97,17.639C79.543,18.285 79.811,19.16 79.811,20.186C79.849,21.25 79.543,22.087 78.97,22.733ZM85.853,13.989L89.141,13.989L89.141,26.952L85.853,26.952L85.853,13.989ZM87.538,8.325C86.964,8.325 86.505,8.516 86.123,8.896C85.741,9.276 85.511,9.732 85.511,10.302C85.511,10.872 85.702,11.329 86.085,11.747C86.467,12.127 86.964,12.317 87.538,12.317C88.111,12.317 88.57,12.127 88.991,11.747C89.373,11.367 89.564,10.872 89.564,10.302C89.564,9.732 89.373,9.276 88.991,8.896C88.57,8.554 88.111,8.325 87.538,8.325ZM96.331,10.492L93.119,10.492L93.119,13.99L91.245,13.99L91.245,16.955L93.119,16.955L93.119,22.315C93.119,23.987 93.463,25.204 94.113,25.888C94.802,26.572 95.987,26.952 97.631,26.952C98.166,26.952 98.702,26.952 99.237,26.914L99.39,26.914L99.39,23.949L98.281,24.025C97.516,24.025 96.981,23.873 96.713,23.607C96.446,23.341 96.331,22.771 96.331,21.897L96.331,16.993L99.39,16.993L99.39,14.028L96.331,14.028L96.331,10.492ZM114.761,8.553L118.049,8.553L118.049,26.953L114.761,26.953L114.761,8.553ZM151.125,22.315C150.551,22.961 149.939,23.531 149.48,23.835C149.022,24.139 148.448,24.253 147.798,24.253C146.842,24.253 146.039,23.911 145.427,23.189C144.815,22.467 144.471,21.554 144.471,20.452C144.471,19.35 144.777,18.437 145.389,17.715C146.001,16.993 146.804,16.651 147.76,16.651C148.83,16.651 149.939,17.297 150.895,18.437L153.075,16.384C151.66,14.56 149.863,13.723 147.721,13.723C145.924,13.723 144.357,14.37 143.095,15.662C141.833,16.955 141.183,18.551 141.183,20.49C141.183,22.429 141.833,24.063 143.095,25.318C144.357,26.61 145.924,27.257 147.721,27.257C150.092,27.257 152.004,26.23 153.304,24.367L151.125,22.315ZM164.584,15.814C164.125,15.168 163.475,14.636 162.71,14.256C161.945,13.876 161.027,13.686 159.995,13.686C158.16,13.686 156.668,14.37 155.56,15.662C154.451,16.993 153.915,18.627 153.915,20.528C153.915,22.505 154.527,24.102 155.712,25.356C156.898,26.572 158.504,27.219 160.454,27.219C162.672,27.219 164.469,26.344 165.845,24.596L165.922,24.52L163.781,22.467C163.589,22.695 163.283,22.961 163.054,23.227C162.748,23.531 162.442,23.759 162.098,23.911C161.585,24.158 161.023,24.288 160.454,24.292C159.536,24.292 158.81,24.026 158.236,23.493C157.701,22.999 157.395,22.353 157.318,21.517L165.998,21.517L166.037,20.338C166.037,19.502 165.922,18.703 165.692,17.943C165.387,17.145 165.042,16.461 164.584,15.814ZM157.434,18.856C157.572,18.283 157.863,17.757 158.275,17.335C158.734,16.917 159.307,16.689 159.996,16.689C160.799,16.689 161.41,16.917 161.831,17.373C162.213,17.791 162.443,18.285 162.481,18.894L157.434,18.894L157.434,18.856ZM177.165,14.978C176.171,14.142 174.795,13.723 173.074,13.723C171.965,13.723 170.971,13.952 170.053,14.408C169.125,14.872 168.353,15.599 167.835,16.498L167.874,16.536L169.977,18.551C170.856,17.183 171.812,16.689 173.074,16.689C173.762,16.689 174.336,16.879 174.756,17.221C175.177,17.563 175.406,18.019 175.406,18.627L175.406,19.274C174.603,19.045 173.8,18.893 172.997,18.893C171.353,18.893 170.053,19.274 169.059,20.034C168.065,20.794 167.568,21.897 167.568,23.265C167.568,24.482 167.988,25.47 168.83,26.192C169.671,26.914 170.741,27.257 172.003,27.257C173.265,27.257 174.412,26.762 175.483,25.888L175.483,26.952L178.695,26.952L178.695,18.627C178.656,17.031 178.159,15.814 177.165,14.978ZM171.352,22.01C171.735,21.744 172.232,21.63 172.92,21.63C173.769,21.637 174.61,21.791 175.405,22.087L175.405,23.341C174.679,23.987 173.723,24.329 172.576,24.329C172.002,24.329 171.582,24.215 171.276,23.949C170.97,23.721 170.817,23.417 170.817,22.999C170.817,22.581 170.97,22.239 171.352,22.01ZM191.274,15.206C190.356,14.18 189.094,13.686 187.45,13.686C186.15,13.686 185.08,14.066 184.315,14.788L184.315,13.99L181.103,13.99L181.103,26.953L184.391,26.953L184.391,19.806C184.391,18.818 184.621,18.057 185.08,17.487C185.538,16.917 186.188,16.651 187.03,16.651C187.756,16.651 188.33,16.879 188.75,17.373C189.171,17.867 189.362,18.551 189.362,19.426L189.362,26.915L192.65,26.915L192.65,19.426C192.65,17.639 192.192,16.233 191.274,15.206ZM110.634,14.978C109.64,14.142 108.263,13.723 106.543,13.723C105.434,13.723 104.44,13.952 103.522,14.408C102.594,14.872 101.822,15.599 101.304,16.498L101.342,16.536L103.445,18.551C104.325,17.183 105.281,16.689 106.543,16.689C107.231,16.689 107.804,16.879 108.225,17.221C108.646,17.563 108.875,18.019 108.875,18.627L108.875,19.274C108.072,19.045 107.269,18.893 106.466,18.893C104.822,18.893 103.522,19.274 102.528,20.034C101.534,20.794 101.036,21.897 101.036,23.265C101.036,24.482 101.457,25.47 102.298,26.192C103.139,26.914 104.21,27.257 105.472,27.257C106.734,27.257 107.881,26.762 108.952,25.888L108.952,26.952L112.163,26.952L112.163,18.627C112.125,17.031 111.628,15.814 110.634,14.978ZM104.821,22.01C105.204,21.744 105.701,21.63 106.389,21.63C107.238,21.637 108.079,21.791 108.874,22.087L108.874,23.341C108.148,23.987 107.192,24.329 106.045,24.329C105.471,24.329 105.051,24.215 104.745,23.949C104.439,23.721 104.286,23.417 104.286,22.999C104.286,22.581 104.439,22.239 104.821,22.01ZM129.903,27.219C124.665,27.219 120.382,22.961 120.382,17.753C120.382,12.545 124.665,8.287 129.903,8.287C135.142,8.287 139.424,12.545 139.424,17.753C139.424,22.961 135.18,27.219 129.903,27.219ZM129.902,11.595C126.499,11.595 123.746,14.332 123.746,17.715C123.746,21.098 126.499,23.836 129.902,23.836C133.305,23.836 136.058,21.098 136.058,17.715C136.058,14.332 133.305,11.595 129.902,11.595Z"
        style="fill:rgb(0,105,255);fill-rule:nonzero;" />
</svg>