<?xml version="1.0" encoding="UTF-8" standalone="no"?>
<!DOCTYPE svg PUBLIC "-//W3C//DTD SVG 1.1//EN" "http://www.w3.org/Graphics/SVG/1.1/DTD/svg11.dtd">
<svg width="100%" height="100%" viewBox="0 0 2500 422" version="1.1" xmlns="http://www.w3.org/2000/svg"
    xmlns:xlink="http://www.w3.org/1999/xlink" xml:space="preserve" xmlns:serif="http://www.serif.com/"
    style="fill-rule:evenodd;clip-rule:evenodd;stroke-linejoin:round;stroke-miterlimit:2;">
    <rect x="0" y="0" width="2500" height="421.828" style="fill:#fff;" />
    <g>
        <path
            d="M209.98,421.828l0,-82.036c86.976,0 154.067,-85.753 120.534,-176.497c-12.345,-34.077 -39.226,-60.958 -73.303,-73.303c-14.582,-5.483 -30.033,-8.292 -45.611,-8.292c-70.803,0 -129.171,58.025 -129.589,128.826l-82.011,-0c-0,-136.727 132.959,-244.86 278.318,-200.1c63.346,19.898 113.074,69.634 132.959,132.984c44.736,145.434 -63.373,278.418 -201.297,278.418Z"
            style="fill:#0080ff;fill-rule:nonzero;" />
        <path
            d="M211.228,339.792l-82.011,0l-0,-80.788l82.011,-0m-82.011,144.187l-62.126,-0l-0,-63.399l62.126,0l-0,63.399m-62.126,-63.399l-52.121,0l0,-52.195l52.121,-0m682.16,-165.32c-23.602,-16.167 -54.665,-24.95 -89.471,-24.95l-75.773,0l-0,242.366l75.798,-0c34.797,-0 64.621,-8.7 89.471,-26.098c13.572,-9.874 24.291,-23.167 31.063,-38.523c7.485,-16.168 11.178,-36.053 11.178,-57.186c-0,-21.133 -3.718,-41.018 -11.178,-55.938c-7.485,-18.538 -17.415,-30.963 -31.088,-39.671Zm-120.508,16.168l23.602,0c26.098,0 48.453,4.99 65.844,16.168c18.637,11.177 27.445,32.435 27.445,63.398c-0,30.963 -9.98,53.443 -27.445,65.868c-16.143,9.98 -37.276,16.168 -64.621,16.168l-24.825,-0l-0,-161.602m216.192,-44.735c-6.976,-0.187 -13.728,2.525 -18.638,7.485c-5.74,4.435 -8.988,11.388 -8.707,18.637c-0,14.317 11.781,26.098 26.098,26.098c14.316,0 26.097,-11.781 26.097,-26.098c0.184,-6.976 -2.527,-13.726 -7.485,-18.637c-3.717,-4.99 -9.98,-7.485 -17.465,-7.485m-22.455,74.575l43.488,0l0,170.285l-43.313,-0l-0,-170.285m198.802,14.97c-12.475,-11.177 -27.445,-18.637 -43.488,-18.637c-22.143,-0.488 -43.451,8.614 -58.408,24.95c-15.514,16.433 -23.991,38.307 -23.603,60.903c0,23.628 7.485,44.736 22.455,60.903c14.97,16.168 34.781,23.628 58.409,23.628c15.201,0.238 30.061,-4.572 42.24,-13.673l0,3.718c0,13.673 -3.717,24.95 -11.178,32.435c-7.46,7.485 -17.465,11.178 -31.062,11.178c-19.961,-0 -32.311,-7.485 -47.206,-28.593l-29.94,28.593l1.247,1.247c6.213,8.708 16.143,17.465 28.568,26.098c12.425,8.633 28.568,12.475 47.206,12.475c26.098,0 45.983,-7.485 60.878,-23.628c14.895,-16.142 23.603,-36.053 23.603,-62.15l-0,-154.417l-42.191,0l0,14.97l2.495,0m-11.177,100.674c-7.485,8.708 -17.465,12.475 -29.941,12.475c-12.475,0 -22.455,-3.717 -29.94,-12.475c-7.485,-8.757 -11.177,-19.96 -11.177,-33.558c-0,-13.598 3.967,-24.925 11.452,-33.632c7.485,-8.708 17.465,-12.476 29.94,-12.476c12.475,0 22.455,3.718 29.94,12.476c7.485,8.757 11.178,19.96 11.178,33.557c-0,13.598 -3.718,24.951 -11.178,33.558m90.694,-115.594l43.488,0l-0,170.285l-43.763,-0l0,-170.26m21.133,-74.575c-0.211,-0.006 -0.421,-0.008 -0.632,-0.008c-13.974,-0 -25.474,11.499 -25.474,25.474c0,0.21 0.003,0.421 0.008,0.631c0,14.317 11.781,26.098 26.098,26.098c14.317,0 26.098,-11.781 26.098,-26.098c0.005,-0.21 0.008,-0.421 0.008,-0.632c-0,-13.974 -11.5,-25.474 -25.474,-25.474c-0.219,0 -0.438,0.003 -0.657,0.009m115.519,28.567l-42.191,0l0,46.008l-24.95,0l0,38.523l24.95,0l0,70.859c0,22.455 4.99,38.523 13.673,47.23c8.683,8.708 24.95,13.673 45.983,13.673c7.067,0.205 14.139,-0.213 21.133,-1.248l2.495,0l-0,-38.548l-14.97,1.248c-9.98,-0 -17.465,-1.248 -19.96,-4.99c-3.718,-3.718 -4.99,-11.178 -4.99,-22.455l-0,-64.521l39.77,-0l0,-38.548l-39.646,-0l-1.297,-47.231m241.043,-24.95l43.488,0l-0,242.366l-43.438,-0l-0,-242.216m477.145,181.462c-6.353,7.349 -13.433,14.036 -21.132,19.96c-6.768,4.103 -14.541,6.254 -22.455,6.213c-11.776,-0.103 -22.993,-5.105 -30.938,-13.798c-8.708,-9.98 -12.476,-21.132 -12.476,-36.053c0,-14.92 3.718,-26.097 12.476,-36.052c7.644,-9.153 19.15,-14.218 31.062,-13.673c13.673,-0 28.568,8.708 40.993,23.628l28.568,-27.445c-18.637,-23.628 -42.24,-34.806 -70.833,-34.806c-23.603,0 -43.488,8.708 -60.878,26.098c-16.268,17.059 -25.229,39.827 -24.95,63.398c-0,24.95 8.707,47.231 24.95,63.398c15.624,16.989 37.8,26.496 60.878,26.098c31.063,0 55.913,-13.672 73.303,-38.523l-28.568,-28.593m175.2,-85.753c-6.539,-8.613 -15.112,-15.472 -24.95,-19.96c-11.277,-5.223 -23.604,-7.784 -36.028,-7.485c-23.603,-0 -43.488,8.707 -58.408,26.098c-14.118,18.072 -21.583,40.469 -21.133,63.398c0,26.098 7.485,47.23 23.603,63.398c16.118,16.168 36.028,24.95 62.126,24.95c28.568,0 52.195,-11.178 70.833,-34.805l1.247,-1.248l-28.567,-27.445c-2.495,3.718 -6.213,6.213 -9.98,9.98c-3.527,3.716 -7.771,6.679 -12.475,8.708c-6.464,3.54 -13.768,5.265 -21.133,4.99c-10.82,0.156 -21.379,-3.363 -29.94,-9.98c-7.485,-6.213 -11.178,-14.97 -12.475,-26.098l114.321,-0l-0,-16.168c0.279,-11.022 -1.411,-22.006 -4.99,-32.435c-1.817,-9.636 -6.118,-18.632 -12.475,-26.098m-92.765,40.07c1.902,-7.522 5.758,-14.409 11.178,-19.96c5.933,-5.915 14.085,-9.076 22.455,-8.707c9.98,-0 18.638,2.495 23.603,8.707c4.99,4.99 7.485,12.475 8.708,19.96l-65.944,0m258.459,-50.973c-12.476,-11.178 -31.063,-16.168 -53.419,-16.168c-13.671,0.388 -27.147,3.351 -39.72,8.733c-11.178,6.213 -22.455,14.97 -28.568,27.445l27.445,26.098c11.178,-18.638 23.603,-24.95 40.993,-24.95c8.129,-0.216 16.081,2.435 22.455,7.485c5.74,4.436 8.989,11.389 8.708,18.638l-0,8.707c-10.006,-3.376 -20.504,-5.062 -31.063,-4.99c-21.125,0 -38.523,4.99 -52.196,14.97c-13.672,9.98 -19.96,24.95 -19.96,42.266c0,16.167 4.99,28.592 16.143,38.523c11.153,9.93 24.95,13.672 40.993,13.672c16.043,0 31.063,-6.212 45.983,-17.465l-0,13.673l42.24,-0l0,-109.381c0,-19.96 -6.212,-36.053 -19.96,-47.231m-75.798,91.966c4.99,-3.717 11.178,-4.99 19.96,-4.99c11.028,0.372 21.931,2.468 32.31,6.213l0,16.167c-10.28,9.047 -23.583,13.926 -37.275,13.673c-7.485,0 -13.673,-1.247 -17.465,-4.99c-3.792,-3.743 -6.213,-7.485 -6.213,-12.475c0.888,-5.563 4.042,-10.516 8.708,-13.673m260.828,-89.421c-12.475,-13.673 -28.568,-19.96 -49.7,-19.96c-17.399,0 -31.063,4.99 -40.993,14.97l-0,-9.98l-42.266,0l0,170.285l43.488,-0l0,-94.412c0,-12.475 2.495,-23.627 8.708,-31.063c6.158,-7.349 15.366,-11.474 24.95,-11.177c8.637,-0.421 16.98,3.287 22.455,9.98c5.835,7.943 8.896,17.591 8.708,27.445l-0,99.426l43.288,0l0,-99.576c-1.248,-23.619 -7.46,-42.265 -18.638,-55.938m-1056.16,-2.495c-12.475,-11.178 -31.063,-16.168 -53.419,-16.168c-13.686,0.374 -27.18,3.328 -39.77,8.708c-11.178,6.213 -22.455,14.97 -28.568,27.445l27.445,26.098c11.178,-18.638 23.603,-24.95 40.993,-24.95c8.13,-0.216 16.081,2.435 22.455,7.485c5.74,4.436 8.989,11.389 8.708,18.638l-0,8.707c-10.006,-3.376 -20.504,-5.062 -31.063,-4.99c-21.124,0 -38.523,4.99 -52.196,14.97c-13.672,9.98 -19.96,24.95 -19.96,42.266c0,16.167 4.99,28.593 16.143,38.523c11.153,9.93 24.95,13.672 40.993,13.672c16.043,0 31.063,-6.212 45.983,-17.465l0,13.673l42.241,-0l-0,-109.356c-0,-19.96 -7.485,-36.053 -19.96,-47.231m-77.046,91.966c4.99,-3.717 11.177,-4.99 19.96,-4.99c11.028,0.372 21.93,2.468 32.31,6.213l0,16.167c-10.281,9.047 -23.584,13.926 -37.275,13.673c-7.485,0 -13.673,-1.247 -17.465,-4.99c-3.793,-3.743 -6.213,-7.485 -6.213,-12.475c1.857,-5.145 4.831,-9.814 8.708,-13.673m329.341,69.611c-0.017,0 -0.033,0 -0.05,0c-68.19,0 -124.301,-56.112 -124.301,-124.301c-0,-68.19 56.111,-124.302 124.301,-124.302c68.19,0 124.301,56.112 124.301,124.302c-0.244,68.078 -56.173,124.029 -124.251,124.301m-0,-206.312c-0.042,-0 -0.083,-0 -0.125,-0c-44.319,-0 -80.788,36.469 -80.788,80.788c-0,44.319 36.469,80.788 80.788,80.788c44.3,0 80.761,-36.438 80.789,-80.738c-0,-0.058 -0,-0.116 -0,-0.175c-0,-44.223 -36.391,-80.614 -80.614,-80.614c-0.05,0 -0.1,0.001 -0.15,0.001"
            style="fill:#0080ff;fill-rule:nonzero;" />
    </g>
</svg>