<?xml version="1.0" encoding="UTF-8" standalone="no"?>
<!DOCTYPE svg PUBLIC "-//W3C//DTD SVG 1.1//EN" "http://www.w3.org/Graphics/SVG/1.1/DTD/svg11.dtd">
<svg width="100%" height="100%" viewBox="0 0 188 41" version="1.1" xmlns="http://www.w3.org/2000/svg"
    xmlns:xlink="http://www.w3.org/1999/xlink" xml:space="preserve" xmlns:serif="http://www.serif.com/"
    style="fill-rule:evenodd;clip-rule:evenodd;stroke-linejoin:round;stroke-miterlimit:2;">
    <path
        d="M188,10.25L188,30.75C188,36.407 183.407,41 177.75,41L10.25,41C4.593,41 0,36.407 0,30.75L0,10.25C0,4.593 4.593,0 10.25,0L177.75,0C183.407,0 188,4.593 188,10.25Z"
        style="fill:rgb(235,235,235);" />
    <path
        d="M21.212,0L21.212,14.064C19.254,11.218 16.372,9.966 12.798,9.966C3.862,9.966 0,16.798 0,25.168C0,33.536 3.862,40.428 12.798,40.428C16.372,40.428 19.254,39.174 21.212,36.27L21.212,39.858L28.708,39.858L28.708,0L21.212,0ZM14.354,33.596C9.568,33.596 7.494,31.032 7.494,25.168C7.494,19.36 9.568,16.798 14.354,16.798C19.138,16.798 21.214,19.36 21.214,25.168C21.214,31.032 19.138,33.594 14.354,33.594L14.354,33.596ZM63.498,27.332L63.498,10.534L56.004,10.534L56.004,26.764C56.004,31.888 54.216,33.596 49.432,33.596C44.648,33.596 42.86,31.888 42.86,26.764L42.86,10.534L35.366,10.534L35.366,27.332C35.366,36.84 40.67,40.428 49.432,40.428C58.196,40.428 63.498,36.84 63.498,27.332ZM68.398,25.168C68.398,34.106 72.838,40.428 82.06,40.428C90.592,40.428 95.03,34.676 95.03,27.902L87.536,27.902C87.306,31.146 86.384,33.594 82.176,33.594C77.104,33.594 75.892,30.862 75.892,25.168C75.892,19.474 77.104,16.798 82.176,16.798C86.384,16.798 87.306,19.246 87.536,22.492L95.03,22.492C95.03,15.716 90.592,9.964 82.06,9.964C72.838,9.964 68.398,16.228 68.398,25.168ZM125.468,32.742L125.468,10.534L102.986,10.534L102.986,17.08L117.974,17.08L117.974,23.348C116.532,21.24 114.284,19.93 109.96,19.93C102.928,19.93 99.642,24.94 99.642,30.18C99.642,35.418 102.928,40.428 109.96,40.428C114.284,40.428 116.532,39.062 117.974,37.012L117.974,39.86L129.214,39.86L129.214,32.742L125.468,32.742ZM112.554,34.278C108.634,34.278 107.136,32.456 107.136,30.178C107.136,27.902 108.634,26.078 112.554,26.078C116.474,26.078 117.974,27.902 117.974,30.178C117.974,32.456 116.474,34.278 112.554,34.278ZM134.684,0L134.684,39.858L142.178,39.858L142.178,0L134.684,0ZM149.096,0L149.096,5.694L156.59,5.694L156.59,0L149.096,0ZM149.096,10.534L149.096,39.858L156.59,39.858L156.59,10.534L149.096,10.534ZM163.212,36.784C167.42,39.572 171.514,40.428 176.01,40.428C182.754,40.428 188,37.068 188,31.26C188,25.624 184.714,23.802 176.068,22.036C171.456,21.068 170.706,20.27 170.706,18.848C170.706,17.538 171.686,16.798 173.762,16.798C176.932,16.798 181.486,17.708 185.694,19.76L185.694,12.926C182.87,10.99 178.2,9.964 174.338,9.964C168.17,9.964 163.212,12.64 163.212,18.504C163.212,23.004 165.806,26.534 174.858,27.902C179.468,28.642 180.506,29.438 180.506,31.09C180.506,32.514 179.352,33.594 176.586,33.594C172.32,33.594 168.458,32.57 163.212,29.324L163.212,36.784Z"
        style="fill:rgb(231,182,74);fill-rule:nonzero;" />
</svg>