<svg width="100%" height="100%" viewBox="0 0 196 98" xmlns="http://www.w3.org/2000/svg" xml:space="preserve"
    style="fill-rule:evenodd;clip-rule:evenodd;stroke-linejoin:round;stroke-miterlimit:2">
    <path
        d="M196 14.7v68.6c0 8.113-6.587 14.7-14.7 14.7H14.7C6.587 98 0 91.413 0 83.3V14.7C0 6.587 6.587 0 14.7 0h166.6c8.113 0 14.7 6.587 14.7 14.7Z"
        style="fill:#f2f2f2" />
    <path
        d="M21.212 0v14.064c-1.958-2.846-4.84-4.098-8.414-4.098C3.862 9.966 0 16.798 0 25.168c0 8.368 3.862 15.26 12.798 15.26 3.574 0 6.456-1.254 8.414-4.158v3.588h7.496V0h-7.496Zm-6.858 33.596c-4.786 0-6.86-2.564-6.86-8.428 0-5.808 2.074-8.37 6.86-8.37 4.784 0 6.86 2.562 6.86 8.37 0 5.864-2.076 8.426-6.86 8.426v.002Zm49.144-6.264V10.534h-7.494v16.23c0 5.124-1.788 6.832-6.572 6.832s-6.572-1.708-6.572-6.832v-16.23h-7.494v16.798c0 9.508 5.304 13.096 14.066 13.096 8.764 0 14.066-3.588 14.066-13.096Zm4.9-2.164c0 8.938 4.44 15.26 13.662 15.26 8.532 0 12.97-5.752 12.97-12.526h-7.494c-.23 3.244-1.152 5.692-5.36 5.692-5.072 0-6.284-2.732-6.284-8.426s1.212-8.37 6.284-8.37c4.208 0 5.13 2.448 5.36 5.694h7.494c0-6.776-4.438-12.528-12.97-12.528-9.222 0-13.662 6.264-13.662 15.204Zm57.07 7.574V10.534h-22.482v6.546h14.988v6.268c-1.442-2.108-3.69-3.418-8.014-3.418-7.032 0-10.318 5.01-10.318 10.25 0 5.238 3.286 10.248 10.318 10.248 4.324 0 6.572-1.366 8.014-3.416v2.848h11.24v-7.118h-3.746Zm-12.914 1.536c-3.92 0-5.418-1.822-5.418-4.1 0-2.276 1.498-4.1 5.418-4.1s5.42 1.824 5.42 4.1c0 2.278-1.5 4.1-5.42 4.1ZM134.684 0v39.858h7.494V0h-7.494Zm14.412 0v5.694h7.494V0h-7.494Zm0 10.534v29.324h7.494V10.534h-7.494Zm14.116 26.25c4.208 2.788 8.302 3.644 12.798 3.644 6.744 0 11.99-3.36 11.99-9.168 0-5.636-3.286-7.458-11.932-9.224-4.612-.968-5.362-1.766-5.362-3.188 0-1.31.98-2.05 3.056-2.05 3.17 0 7.724.91 11.932 2.962v-6.834c-2.824-1.936-7.494-2.962-11.356-2.962-6.168 0-11.126 2.676-11.126 8.54 0 4.5 2.594 8.03 11.646 9.398 4.61.74 5.648 1.536 5.648 3.188 0 1.424-1.154 2.504-3.92 2.504-4.266 0-8.128-1.024-13.374-4.27v7.46Z"
        style="fill:#e7b64a;fill-rule:nonzero" transform="translate(4 28.5)" />
</svg>