<svg width="100%" height="100%" viewBox="0 0 188 41" version="1.1" xmlns="http://www.w3.org/2000/svg"
    xmlns:xlink="http://www.w3.org/1999/xlink" xml:space="preserve" xmlns:serif="http://www.serif.com/"
    style="fill-rule:evenodd;clip-rule:evenodd;stroke-linejoin:round;stroke-miterlimit:2;">
    <rect id="Artboard1" x="0" y="0" width="1334" height="750" style="fill:none;" />
    <g id="Artboard11" serif:id="Artboard1">
        <g transform="matrix(2,0,0,2,0,0)">
            <path
d="M10.606,0L10.606,7.032C9.627,5.609 8.186,4.983 6.399,4.983C1.931,4.983 0,8.399 0,12.584C0,16.768 1.931,20.214 6.399,20.214C8.186,20.214 9.627,19.587 10.606,18.135L10.606,19.929L14.354,19.929L14.354,0L10.606,0ZM7.177,16.798C4.784,16.798 3.747,15.516 3.747,12.584C3.747,9.68 4.784,8.399 7.177,8.399C9.569,8.399 10.607,9.68 10.607,12.584C10.607,15.516 9.569,16.797 7.177,16.797L7.177,16.798ZM31.749,13.666L31.749,5.267L28.002,5.267L28.002,13.382C28.002,15.944 27.108,16.798 24.716,16.798C22.324,16.798 21.43,15.944 21.43,13.382L21.43,5.267L17.683,5.267L17.683,13.666C17.683,18.42 20.335,20.214 24.716,20.214C29.098,20.214 31.749,18.42 31.749,13.666ZM34.199,12.584C34.199,17.053 36.419,20.214 41.03,20.214C45.296,20.214 47.515,17.338 47.515,13.951L43.768,13.951C43.653,15.573 43.192,16.797 41.088,16.797C38.552,16.797 37.946,15.431 37.946,12.584C37.946,9.737 38.552,8.399 41.088,8.399C43.192,8.399 43.653,9.623 43.768,11.246L47.515,11.246C47.515,7.858 45.296,4.982 41.03,4.982C36.419,4.982 34.199,8.114 34.199,12.584ZM62.734,16.371L62.734,5.267L51.493,5.267L51.493,8.54L58.987,8.54L58.987,11.674C58.266,10.62 57.142,9.965 54.98,9.965C51.464,9.965 49.821,12.47 49.821,15.09C49.821,17.709 51.464,20.214 54.98,20.214C57.142,20.214 58.266,19.531 58.987,18.506L58.987,19.93L64.607,19.93L64.607,16.371L62.734,16.371ZM56.277,17.139C54.317,17.139 53.568,16.228 53.568,15.089C53.568,13.951 54.317,13.039 56.277,13.039C58.237,13.039 58.987,13.951 58.987,15.089C58.987,16.228 58.237,17.139 56.277,17.139ZM67.342,0L67.342,19.929L71.089,19.929L71.089,0L67.342,0ZM74.548,0L74.548,2.847L78.295,2.847L78.295,0L74.548,0ZM74.548,5.267L74.548,19.929L78.295,19.929L78.295,5.267L74.548,5.267ZM81.606,18.392C83.71,19.786 85.757,20.214 88.005,20.214C91.377,20.214 94,18.534 94,15.63C94,12.812 92.357,11.901 88.034,11.018C85.728,10.534 85.353,10.135 85.353,9.424C85.353,8.769 85.843,8.399 86.881,8.399C88.466,8.399 90.743,8.854 92.847,9.88L92.847,6.463C91.435,5.495 89.1,4.982 87.169,4.982C84.085,4.982 81.606,6.32 81.606,9.252C81.606,11.502 82.903,13.267 87.429,13.951C89.734,14.321 90.253,14.719 90.253,15.545C90.253,16.257 89.676,16.797 88.293,16.797C86.16,16.797 84.229,16.285 81.606,14.662L81.606,18.392Z"
style="fill:rgb(231,182,74);fill-rule:nonzero;" />
        </g>
    </g>
</svg>