<?xml version="1.0" encoding="UTF-8" standalone="no"?>
<!DOCTYPE svg PUBLIC "-//W3C//DTD SVG 1.1//EN" "http://www.w3.org/Graphics/SVG/1.1/DTD/svg11.dtd">
<svg width="100%" height="100%" viewBox="0 0 188 41" version="1.1" xmlns="http://www.w3.org/2000/svg"
    xmlns:xlink="http://www.w3.org/1999/xlink" xml:space="preserve" xmlns:serif="http://www.serif.com/"
    style="fill-rule:evenodd;clip-rule:evenodd;stroke-linejoin:round;stroke-miterlimit:2;">
    <rect x="0" y="0" width="188" height="41" style="fill:#fff;" />
    <path
        d="M21.212,0l0,14.064c-1.958,-2.846 -4.84,-4.098 -8.414,-4.098c-8.936,-0 -12.798,6.832 -12.798,15.202c0,8.368 3.862,15.26 12.798,15.26c3.574,0 6.456,-1.254 8.414,-4.158l0,3.588l7.496,0l0,-39.858l-7.496,0Zm-6.858,33.596c-4.786,0 -6.86,-2.564 -6.86,-8.428c0,-5.808 2.074,-8.37 6.86,-8.37c4.784,0 6.86,2.562 6.86,8.37c0,5.864 -2.076,8.426 -6.86,8.426l0,0.002Zm49.144,-6.264l0,-16.798l-7.494,0l0,16.23c0,5.124 -1.788,6.832 -6.572,6.832c-4.784,0 -6.572,-1.708 -6.572,-6.832l0,-16.23l-7.494,0l0,16.798c0,9.508 5.304,13.096 14.066,13.096c8.764,0 14.066,-3.588 14.066,-13.096Zm4.9,-2.164c0,8.938 4.44,15.26 13.662,15.26c8.532,0 12.97,-5.752 12.97,-12.526l-7.494,0c-0.23,3.244 -1.152,5.692 -5.36,5.692c-5.072,0 -6.284,-2.732 -6.284,-8.426c0,-5.694 1.212,-8.37 6.284,-8.37c4.208,0 5.13,2.448 5.36,5.694l7.494,0c0,-6.776 -4.438,-12.528 -12.97,-12.528c-9.222,0 -13.662,6.264 -13.662,15.204Zm57.07,7.574l0,-22.208l-22.482,0l0,6.546l14.988,0l0,6.268c-1.442,-2.108 -3.69,-3.418 -8.014,-3.418c-7.032,0 -10.318,5.01 -10.318,10.25c0,5.238 3.286,10.248 10.318,10.248c4.324,0 6.572,-1.366 8.014,-3.416l0,2.848l11.24,0l0,-7.118l-3.746,0Zm-12.914,1.536c-3.92,0 -5.418,-1.822 -5.418,-4.1c0,-2.276 1.498,-4.1 5.418,-4.1c3.92,0 5.42,1.824 5.42,4.1c0,2.278 -1.5,4.1 -5.42,4.1Zm22.13,-34.278l0,39.858l7.494,0l0,-39.858l-7.494,0Zm14.412,0l0,5.694l7.494,0l0,-5.694l-7.494,0Zm0,10.534l0,29.324l7.494,0l0,-29.324l-7.494,0Zm14.116,26.25c4.208,2.788 8.302,3.644 12.798,3.644c6.744,0 11.99,-3.36 11.99,-9.168c0,-5.636 -3.286,-7.458 -11.932,-9.224c-4.612,-0.968 -5.362,-1.766 -5.362,-3.188c-0,-1.31 0.98,-2.05 3.056,-2.05c3.17,0 7.724,0.91 11.932,2.962l-0,-6.834c-2.824,-1.936 -7.494,-2.962 -11.356,-2.962c-6.168,0 -11.126,2.676 -11.126,8.54c-0,4.5 2.594,8.03 11.646,9.398c4.61,0.74 5.648,1.536 5.648,3.188c0,1.424 -1.154,2.504 -3.92,2.504c-4.266,0 -8.128,-1.024 -13.374,-4.27l-0,7.46Z"
        style="fill:#e7b64a;fill-rule:nonzero;" />
</svg>