<?xml version="1.0" encoding="UTF-8" standalone="no"?>
<!DOCTYPE svg PUBLIC "-//W3C//DTD SVG 1.1//EN" "http://www.w3.org/Graphics/SVG/1.1/DTD/svg11.dtd">
<svg width="100%" height="100%" viewBox="0 0 298 64" version="1.1" xmlns="http://www.w3.org/2000/svg"
    xmlns:xlink="http://www.w3.org/1999/xlink" xml:space="preserve" xmlns:serif="http://www.serif.com/"
    style="fill-rule:evenodd;clip-rule:evenodd;stroke-linejoin:round;stroke-miterlimit:2;">
    <rect x="0" y="0" width="297.659" height="64" style="fill:#fff;" />
    <path
        d="M86.484,40.586c-0,0.846 -0.179,1.593 -0.537,2.25c-0.344,0.646 -0.87,1.176 -1.514,1.524c-0.657,0.358 -1.394,0.538 -2.24,0.538l-4.193,0l-0,6.104l5.079,0c1.912,0 3.625,-0.428 5.148,-1.285c1.497,-0.831 2.737,-2.058 3.585,-3.545c0.866,-1.503 1.305,-3.196 1.305,-5.088l-0,-20.066l-6.633,0l-0,19.568Zm17.856,-1.823l13.891,0l0,-5.606l-13.891,0l0,-6.363l15.355,0l0,-5.776l-21.818,0l-0,29.974l22.246,0l-0,-5.776l-15.783,0l-0,-6.453Zm17.865,-11.8l8.882,0l-0,24.02l6.633,0l-0,-24.02l8.842,0l-0,-5.945l-24.367,0l-0,5.955l0.01,-0.01Zm47.022,9.002c-0.531,-0.279 -1.092,-0.496 -1.673,-0.647c0.439,-0.123 0.866,-0.287 1.275,-0.488c1.096,-0.568 1.962,-1.364 2.579,-2.39c0.618,-1.026 0.936,-2.2 0.936,-3.535c-0,-1.524 -0.418,-2.888 -1.244,-4.093c-0.827,-1.195 -1.992,-2.131 -3.486,-2.808c-1.494,-0.667 -3.206,-1.006 -5.118,-1.006l-13.315,0l-0,29.974l13.574,0c2.011,0 3.804,-0.348 5.387,-1.055c1.573,-0.707 2.798,-1.683 3.675,-2.948c0.866,-1.255 1.304,-2.689 1.304,-4.302c-0,-1.484 -0.338,-2.808 -1.026,-3.983c-0.673,-1.163 -1.665,-2.11 -2.858,-2.729l-0.01,0.01Zm-13.603,-9.918l5.886,0c0.816,0 1.533,0.15 2.161,0.438c0.6,0.266 1.109,0.702 1.464,1.255c0.348,0.537 0.527,1.175 0.527,1.902c-0,0.727 -0.179,1.414 -0.527,1.981c-0.349,0.568 -0.837,0.996 -1.464,1.305c-0.628,0.309 -1.345,0.458 -2.161,0.458l-5.886,0l-0,-7.35l-0,0.011Zm10.138,18.134c-0.378,0.567 -0.916,1.006 -1.603,1.314c-0.697,0.309 -1.484,0.458 -2.39,0.458l-6.145,0l-0,-7.687l6.145,0c0.886,0 1.673,0.169 2.37,0.497c0.687,0.329 1.235,0.787 1.613,1.385c0.378,0.597 0.578,1.274 0.578,2.041c-0,0.767 -0.19,1.424 -0.568,1.992Zm29.596,-5.308c1.663,-0.797 2.947,-1.922 3.864,-3.366c0.916,-1.444 1.374,-3.117 1.374,-5.029c-0,-1.912 -0.448,-3.525 -1.344,-4.959c-0.897,-1.434 -2.171,-2.54 -3.814,-3.326c-1.644,-0.787 -3.546,-1.175 -5.717,-1.175l-13.124,0l-0,29.974l6.642,0l-0,-10.914l4.322,0l6.084,10.914l7.578,0l-6.851,-11.72c0.339,-0.12 0.677,-0.25 0.996,-0.399l-0.01,0Zm-2.151,-6.124c-0.369,0.631 -0.921,1.135 -1.583,1.444c-0.688,0.338 -1.494,0.507 -2.42,0.507l-5.975,0l-0,-8.295l5.975,0c0.926,0 1.732,0.17 2.42,0.498c0.659,0.309 1.211,0.808 1.583,1.434c0.368,0.618 0.558,1.355 0.558,2.19c-0,0.837 -0.19,1.574 -0.558,2.202l-0,0.02Zm20.594,-11.731l-10.706,29.974l6.742,0l2.121,-6.612l11.114,0l2.27,6.612l6.612,0l-10.964,-29.974l-7.189,0Zm-0.339,18.343l3.445,-10.576l0.409,-1.922l0.408,1.922l3.685,10.576l-7.947,0Zm20.693,11.631l6.851,0l-0,-29.974l-6.851,0l-0,29.974Zm31.02,-9.7l-12.896,-20.274l-6.463,0l-0,29.974l6.055,0l-0,-20.275l12.826,20.275l6.533,0l-0,-29.974l-6.055,0l-0,20.275l-0,-0.001Zm31.528,-3.355c-0.647,-1.245 -1.564,-2.29 -2.729,-3.137c-1.165,-0.846 -2.509,-1.404 -4.023,-1.693l-5.098,-1.045c-0.797,-0.19 -1.434,-0.518 -1.902,-0.996c-0.469,-0.478 -0.708,-1.076 -0.708,-1.783c-0,-0.647 0.17,-1.205 0.518,-1.683c0.339,-0.478 0.827,-0.846 1.444,-1.115c0.618,-0.269 1.335,-0.398 2.151,-0.398c0.817,-0 1.554,0.139 2.181,0.418c0.627,0.279 1.115,0.667 1.464,1.175c0.349,0.508 0.528,1.075 0.528,1.723l6.642,-0c-0.04,-1.743 -0.528,-3.287 -1.444,-4.621c-0.916,-1.344 -2.201,-2.39 -3.834,-3.147c-1.633,-0.757 -3.505,-1.135 -5.597,-1.135c-2.091,-0 -3.943,0.388 -5.566,1.175c-1.623,0.787 -2.898,1.872 -3.804,3.266c-0.906,1.395 -1.364,2.978 -1.364,4.76c-0,1.444 0.288,2.749 0.876,3.904c0.578,1.154 1.429,2.149 2.479,2.898c1.076,0.767 2.311,1.304 3.725,1.603l5.397,1.115c0.886,0.21 1.584,0.598 2.101,1.156c0.518,0.557 0.767,1.244 0.767,2.08c0.008,0.646 -0.191,1.278 -0.567,1.803c-0.379,0.528 -0.907,0.936 -1.584,1.225c-0.677,0.289 -1.474,0.428 -2.39,0.428c-0.916,0 -1.782,-0.159 -2.529,-0.478c-0.747,-0.318 -1.325,-0.776 -1.733,-1.374c-0.418,-0.587 -0.617,-1.275 -0.617,-2.041l-6.642,0c0.029,1.872 0.527,3.515 1.513,4.949c0.976,1.424 2.32,2.54 4.033,3.336c1.713,0.797 3.675,1.195 5.886,1.195c2.21,0 4.202,-0.408 5.915,-1.225c1.723,-0.816 3.057,-1.942 4.023,-3.376c0.966,-1.434 1.444,-3.057 1.444,-4.87c-0,-1.483 -0.329,-2.847 -0.976,-4.102l0.02,0.01Z"
        style="fill-rule:nonzero;" />
    <path
        d="M20.34,3.66l-16.68,16.68c-2.343,2.344 -3.66,5.526 -3.66,8.84l0,29.82c0,2.76 2.24,5 5,5l29.82,0c3.32,0 6.49,-1.32 8.84,-3.66l16.68,-16.68c2.34,-2.34 3.66,-5.52 3.66,-8.84l0,-29.82c0,-2.76 -2.24,-5 -5,-5l-29.82,-0c-3.32,-0 -6.49,1.32 -8.84,3.66Z"
        style="fill:url(#_Linear1);fill-rule:nonzero;" />
    <rect x="8" y="16" width="40" height="40" style="fill-rule:nonzero;" />
    <rect x="13" y="47" width="17" height="4" style="fill:#fff;fill-rule:nonzero;" />
    <defs>
        <linearGradient id="_Linear1" x1="0" y1="0" x2="1" y2="0" gradientUnits="userSpaceOnUse"
            gradientTransform="matrix(61.77,-60.91,60.91,61.77,0.85,62.72)">
            <stop offset="0" style="stop-color:#ff9419;stop-opacity:1" />
            <stop offset="0.43" style="stop-color:#ff021d;stop-opacity:1" />
            <stop offset="0.99" style="stop-color:#e600ff;stop-opacity:1" />
            <stop offset="1" style="stop-color:#e600ff;stop-opacity:1" />
        </linearGradient>
    </defs>
</svg>