<svg version="1.2" width="100%" height="100%" viewBox="0 0 15796 3413"
  preserveAspectRatio="xMidYMid"
  fill-rule="evenodd" stroke-width="28.222" stroke-linejoin="round"
  xmlns="http://www.w3.org/2000/svg"
  xmlns:ooo="http://xml.openoffice.org/svg/export" xmlns:xlink="http://www.w3.org/1999/xlink"
  xmlns:presentation="http://sun.com/xmlns/staroffice/presentation"
  xmlns:smil="http://www.w3.org/2001/SMIL20/"
  xmlns:anim="urn:oasis:names:tc:opendocument:xmlns:animation:1.0"
  xmlns:svg="urn:oasis:names:tc:opendocument:xmlns:svg-compatible:1.0" xml:space="preserve">
    <defs class="ClipPathGroup">
        <clipPath id="presentation_clip_path" clipPathUnits="userSpaceOnUse">
            <rect x="0" y="0" width="15796" height="3413" />
        </clipPath>
        <clipPath id="presentation_clip_path_shrink" clipPathUnits="userSpaceOnUse">
            <rect x="15" y="3" width="15765" height="3407" />
        </clipPath>
    </defs>
    <defs class="TextShapeIndex">
        <g ooo:slide="id1" ooo:id-list="id3" />
    </defs>
    <defs class="EmbeddedBulletChars">
        <g id="bullet-char-template-57356" transform="scale(0.00048828125,-0.00048828125)">
            <path d="M 580,1141 L 1163,571 580,0 -4,571 580,1141 Z" />
        </g>
        <g id="bullet-char-template-57354" transform="scale(0.00048828125,-0.00048828125)">
            <path d="M 8,1128 L 1137,1128 1137,0 8,0 8,1128 Z" />
        </g>
        <g id="bullet-char-template-10146" transform="scale(0.00048828125,-0.00048828125)">
            <path
d="M 174,0 L 602,739 174,1481 1456,739 174,0 Z M 1358,739 L 309,1346 659,739 1358,739 Z" />
        </g>
        <g id="bullet-char-template-10132" transform="scale(0.00048828125,-0.00048828125)">
            <path
d="M 2015,739 L 1276,0 717,0 1260,543 174,543 174,936 1260,936 717,1481 1274,1481 2015,739 Z" />
        </g>
        <g id="bullet-char-template-10007" transform="scale(0.00048828125,-0.00048828125)">
            <path
d="M 0,-2 C -7,14 -16,27 -25,37 L 356,567 C 262,823 215,952 215,954 215,979 228,992 255,992 264,992 276,990 289,987 310,991 331,999 354,1012 L 381,999 492,748 772,1049 836,1024 860,1049 C 881,1039 901,1025 922,1006 886,937 835,863 770,784 769,783 710,716 594,584 L 774,223 C 774,196 753,168 711,139 L 727,119 C 717,90 699,76 672,76 641,76 570,178 457,381 L 164,-76 C 142,-110 111,-127 72,-127 30,-127 9,-110 8,-76 1,-67 -2,-52 -2,-32 -2,-23 -1,-13 0,-2 Z" />
        </g>
        <g id="bullet-char-template-10004" transform="scale(0.00048828125,-0.00048828125)">
            <path
d="M 285,-33 C 182,-33 111,30 74,156 52,228 41,333 41,471 41,549 55,616 82,672 116,743 169,778 240,778 293,778 328,747 346,684 L 369,508 C 377,444 397,411 428,410 L 1163,1116 C 1174,1127 1196,1133 1229,1133 1271,1133 1292,1118 1292,1087 L 1292,965 C 1292,929 1282,901 1262,881 L 442,47 C 390,-6 338,-33 285,-33 Z" />
        </g>
        <g id="bullet-char-template-9679" transform="scale(0.00048828125,-0.00048828125)">
            <path
d="M 813,0 C 632,0 489,54 383,161 276,268 223,411 223,592 223,773 276,916 383,1023 489,1130 632,1184 813,1184 992,1184 1136,1130 1245,1023 1353,916 1407,772 1407,592 1407,412 1353,268 1245,161 1136,54 992,0 813,0 Z" />
        </g>
        <g id="bullet-char-template-8226" transform="scale(0.00048828125,-0.00048828125)">
            <path
d="M 346,457 C 273,457 209,483 155,535 101,586 74,649 74,723 74,796 101,859 155,911 209,963 273,989 346,989 419,989 480,963 531,910 582,859 608,796 608,723 608,648 583,586 532,535 482,483 420,457 346,457 Z" />
        </g>
        <g id="bullet-char-template-8211" transform="scale(0.00048828125,-0.00048828125)">
            <path d="M -4,459 L 1135,459 1135,606 -4,606 -4,459 Z" />
        </g>
        <g id="bullet-char-template-61548" transform="scale(0.00048828125,-0.00048828125)">
            <path
d="M 173,740 C 173,903 231,1043 346,1159 462,1274 601,1332 765,1332 928,1332 1067,1274 1183,1159 1299,1043 1357,903 1357,740 1357,577 1299,437 1183,322 1067,206 928,148 765,148 601,148 462,206 346,322 231,437 173,577 173,740 Z" />
        </g>
    </defs>
    <g>
        <g id="id2" class="Master_Slide">
            <g id="bg-id2" class="Background" />
            <g id="bo-id2" class="BackgroundObjects" />
        </g>
    </g>
    <g class="SlideGroup">
        <g>
            <g id="container-id1">
<g id="id1" class="Slide" clip-path="url(#presentation_clip_path)">
    <g class="Page">
        <g class="Graphic">
            <g id="id3">
<rect class="BoundingBox" stroke="none" fill="none" x="0" y="0"
    width="15796" height="3413" />
<defs>
    <clipPath id="clip_path_1" clipPathUnits="userSpaceOnUse">
        <path
            d="M 1090,207 L 207,1089 C 83,1213 13,1382 13,1557 L 13,3134 C 13,3280 132,3399 278,3399 L 1856,3399 C 2031,3399 2199,3329 2323,3205 L 3206,2323 C 3330,2199 3400,2031 3400,1855 L 3400,278 C 3400,132 3281,13 3135,13 L 1557,13 C 1382,13 1214,83 1090,207 L 1090,207 Z" />
    </clipPath>
</defs>
<g clip-path="url(#clip_path_1)">
    <path fill="rgb(255,148,25)" stroke="none"
        d="M -996,2262 L -986,2253 1122,4390 1112,4400 -996,2262 Z" />
    <path fill="rgb(255,147,25)" stroke="none"
        d="M -986,2253 L -977,2243 1132,4380 1122,4390 -986,2253 Z" />
    <path fill="rgb(255,146,25)" stroke="none"
        d="M -977,2243 L -967,2234 1141,4371 1131,4381 -977,2243 Z" />
    <path fill="rgb(255,145,25)" stroke="none"
        d="M -967,2234 L -957,2224 1151,4362 1141,4371 -967,2234 Z" />
    <path fill="rgb(255,144,25)" stroke="none"
        d="M -958,2224 L -948,2215 1161,4352 1151,4362 -958,2224 Z" />
    <path fill="rgb(255,143,25)" stroke="none"
        d="M -948,2215 L -938,2205 1170,4343 1160,4352 -948,2215 Z" />
    <path fill="rgb(255,142,25)" stroke="none"
        d="M -938,2205 L -928,2196 1180,4333 1170,4343 -938,2205 Z" />
    <path fill="rgb(255,141,25)" stroke="none"
        d="M -929,2196 L -919,2186 1189,4324 1179,4333 -929,2196 Z" />
    <path fill="rgb(255,140,25)" stroke="none"
        d="M -919,2186 L -909,2177 1199,4314 1189,4324 -919,2186 Z" />
    <path fill="rgb(255,139,25)" stroke="none"
        d="M -909,2177 L -900,2167 1209,4305 1199,4314 -909,2177 Z" />
    <path fill="rgb(255,138,25)" stroke="none"
        d="M -900,2168 L -890,2158 1218,4295 1208,4305 -900,2168 Z" />
    <path fill="rgb(255,137,25)" stroke="none"
        d="M -890,2158 L -880,2148 1228,4286 1218,4295 -890,2158 Z" />
    <path fill="rgb(255,136,25)" stroke="none"
        d="M -881,2149 L -871,2139 1238,4276 1228,4286 -881,2149 Z" />
    <path fill="rgb(255,135,25)" stroke="none"
        d="M -871,2139 L -861,2129 1247,4267 1237,4276 -871,2139 Z" />
    <path fill="rgb(255,134,25)" stroke="none"
        d="M -861,2130 L -851,2120 1257,4257 1247,4267 -861,2130 Z" />
    <path fill="rgb(255,133,25)" stroke="none"
        d="M -852,2120 L -842,2110 1266,4248 1256,4257 -852,2120 Z" />
    <path fill="rgb(255,132,25)" stroke="none"
        d="M -842,2111 L -832,2101 1276,4238 1266,4248 -842,2111 Z" />
    <path fill="rgb(255,131,25)" stroke="none"
        d="M -832,2101 L -823,2091 1286,4229 1276,4238 -832,2101 Z" />
    <path fill="rgb(255,130,25)" stroke="none"
        d="M -823,2092 L -813,2082 1295,4219 1285,4229 -823,2092 Z" />
    <path fill="rgb(255,129,26)" stroke="none"
        d="M -813,2082 L -803,2072 1305,4210 1295,4219 -813,2082 Z" />
    <path fill="rgb(255,128,26)" stroke="none"
        d="M -804,2073 L -794,2063 1315,4200 1305,4210 -804,2073 Z" />
    <path fill="rgb(255,127,26)" stroke="none"
        d="M -794,2063 L -784,2053 1324,4191 1314,4200 -794,2063 Z" />
    <path fill="rgb(255,126,26)" stroke="none"
        d="M -784,2054 L -774,2044 1334,4181 1324,4191 -784,2054 Z" />
    <path fill="rgb(255,125,26)" stroke="none"
        d="M -775,2044 L -765,2034 1343,4172 1334,4182 -775,2044 Z" />
    <path fill="rgb(255,124,26)" stroke="none"
        d="M -765,2035 L -755,2025 1353,4162 1343,4172 -765,2035 Z" />
    <path fill="rgb(255,123,26)" stroke="none"
        d="M -755,2025 L -746,2015 1363,4153 1353,4163 -755,2025 Z" />
    <path fill="rgb(255,122,26)" stroke="none"
        d="M -746,2016 L -736,2006 1372,4143 1362,4153 -746,2016 Z" />
    <path fill="rgb(255,121,26)" stroke="none"
        d="M -736,2006 L -726,1996 1382,4134 1372,4144 -736,2006 Z" />
    <path fill="rgb(255,120,26)" stroke="none"
        d="M -727,1997 L -717,1987 1392,4124 1382,4134 -727,1997 Z" />
    <path fill="rgb(255,119,26)" stroke="none"
        d="M -717,1987 L -707,1977 1401,4115 1391,4125 -717,1987 Z" />
    <path fill="rgb(255,118,26)" stroke="none"
        d="M -707,1978 L -697,1968 1411,4105 1401,4115 -707,1978 Z" />
    <path fill="rgb(255,117,26)" stroke="none"
        d="M -698,1968 L -688,1958 1420,4096 1411,4106 -698,1968 Z" />
    <path fill="rgb(255,116,26)" stroke="none"
        d="M -688,1959 L -678,1949 1430,4086 1420,4096 -688,1959 Z" />
    <path fill="rgb(255,115,26)" stroke="none"
        d="M -678,1949 L -669,1939 1440,4077 1430,4087 -678,1949 Z" />
    <path fill="rgb(255,114,26)" stroke="none"
        d="M -669,1940 L -659,1930 1449,4067 1439,4077 -669,1940 Z" />
    <path fill="rgb(255,113,26)" stroke="none"
        d="M -659,1930 L -649,1920 1459,4058 1449,4068 -659,1930 Z" />
    <path fill="rgb(255,112,26)" stroke="none"
        d="M -650,1921 L -640,1911 1469,4048 1459,4058 -650,1921 Z" />
    <path fill="rgb(255,111,26)" stroke="none"
        d="M -640,1911 L -630,1901 1478,4039 1468,4049 -640,1911 Z" />
    <path fill="rgb(255,110,26)" stroke="none"
        d="M -630,1902 L -620,1892 1488,4029 1478,4039 -630,1902 Z" />
    <path fill="rgb(255,109,26)" stroke="none"
        d="M -621,1892 L -611,1883 1497,4020 1488,4030 -621,1892 Z" />
    <path fill="rgb(255,108,26)" stroke="none"
        d="M -611,1883 L -601,1873 1507,4010 1497,4020 -611,1883 Z" />
    <path fill="rgb(255,107,26)" stroke="none"
        d="M -601,1873 L -592,1864 1517,4001 1507,4011 -601,1873 Z" />
    <path fill="rgb(255,106,26)" stroke="none"
        d="M -592,1864 L -582,1854 1526,3991 1516,4001 -592,1864 Z" />
    <path fill="rgb(255,105,26)" stroke="none"
        d="M -582,1854 L -572,1845 1536,3982 1526,3992 -582,1854 Z" />
    <path fill="rgb(255,104,26)" stroke="none"
        d="M -573,1845 L -563,1835 1546,3972 1536,3982 -573,1845 Z" />
    <path fill="rgb(255,103,26)" stroke="none"
        d="M -563,1835 L -553,1826 1555,3963 1545,3973 -563,1835 Z" />
    <path fill="rgb(255,102,26)" stroke="none"
        d="M -553,1826 L -543,1816 1565,3953 1555,3963 -553,1826 Z" />
    <path fill="rgb(255,101,26)" stroke="none"
        d="M -544,1816 L -534,1807 1574,3944 1565,3954 -544,1816 Z" />
    <path fill="rgb(255,100,26)" stroke="none"
        d="M -534,1807 L -524,1797 1584,3934 1574,3944 -534,1807 Z" />
    <path fill="rgb(255,99,26)" stroke="none"
        d="M -524,1797 L -514,1788 1594,3925 1584,3935 -524,1797 Z" />
    <path fill="rgb(255,98,26)" stroke="none"
        d="M -515,1788 L -505,1778 1603,3915 1593,3925 -515,1788 Z" />
    <path fill="rgb(255,97,26)" stroke="none"
        d="M -505,1778 L -495,1769 1613,3906 1603,3916 -505,1778 Z" />
    <path fill="rgb(255,96,26)" stroke="none"
        d="M -496,1769 L -486,1759 1623,3897 1613,3906 -496,1769 Z" />
    <path fill="rgb(255,95,26)" stroke="none"
        d="M -486,1759 L -476,1750 1632,3887 1622,3897 -486,1759 Z" />
    <path fill="rgb(255,94,26)" stroke="none"
        d="M -476,1750 L -466,1740 1642,3878 1632,3887 -476,1750 Z" />
    <path fill="rgb(255,93,27)" stroke="none"
        d="M -467,1740 L -457,1731 1651,3868 1642,3878 -467,1740 Z" />
    <path fill="rgb(255,92,27)" stroke="none"
        d="M -457,1731 L -447,1721 1661,3859 1651,3868 -457,1731 Z" />
    <path fill="rgb(255,91,27)" stroke="none"
        d="M -447,1721 L -437,1712 1671,3849 1661,3859 -447,1721 Z" />
    <path fill="rgb(255,90,27)" stroke="none"
        d="M -438,1712 L -428,1702 1680,3840 1670,3849 -438,1712 Z" />
    <path fill="rgb(255,89,27)" stroke="none"
        d="M -428,1703 L -418,1693 1690,3830 1680,3840 -428,1703 Z" />
    <path fill="rgb(255,88,27)" stroke="none"
        d="M -419,1693 L -409,1683 1700,3821 1690,3830 -419,1693 Z" />
    <path fill="rgb(255,87,27)" stroke="none"
        d="M -409,1684 L -399,1674 1709,3811 1699,3821 -409,1684 Z" />
    <path fill="rgb(255,86,27)" stroke="none"
        d="M -399,1674 L -389,1664 1719,3802 1709,3811 -399,1674 Z" />
    <path fill="rgb(255,85,27)" stroke="none"
        d="M -390,1665 L -380,1655 1728,3792 1719,3802 -390,1665 Z" />
    <path fill="rgb(255,84,27)" stroke="none"
        d="M -380,1655 L -370,1645 1738,3783 1728,3792 -380,1655 Z" />
    <path fill="rgb(255,83,27)" stroke="none"
        d="M -370,1646 L -360,1636 1748,3773 1738,3783 -370,1646 Z" />
    <path fill="rgb(255,82,27)" stroke="none"
        d="M -361,1636 L -351,1626 1757,3764 1747,3773 -361,1636 Z" />
    <path fill="rgb(255,81,27)" stroke="none"
        d="M -351,1627 L -341,1617 1767,3754 1757,3764 -351,1627 Z" />
    <path fill="rgb(255,80,27)" stroke="none"
        d="M -342,1617 L -332,1607 1777,3745 1767,3754 -342,1617 Z" />
    <path fill="rgb(255,79,27)" stroke="none"
        d="M -332,1608 L -322,1598 1786,3735 1776,3745 -332,1608 Z" />
    <path fill="rgb(255,78,27)" stroke="none"
        d="M -322,1598 L -312,1588 1796,3726 1786,3735 -322,1598 Z" />
    <path fill="rgb(255,77,27)" stroke="none"
        d="M -313,1589 L -303,1579 1806,3716 1796,3726 -313,1589 Z" />
    <path fill="rgb(255,76,27)" stroke="none"
        d="M -303,1579 L -293,1569 1815,3707 1805,3717 -303,1579 Z" />
    <path fill="rgb(255,75,27)" stroke="none"
        d="M -293,1570 L -283,1560 1825,3697 1815,3707 -293,1570 Z" />
    <path fill="rgb(255,74,27)" stroke="none"
        d="M -284,1560 L -274,1550 1834,3688 1824,3698 -284,1560 Z" />
    <path fill="rgb(255,73,27)" stroke="none"
        d="M -274,1551 L -264,1541 1844,3678 1834,3688 -274,1551 Z" />
    <path fill="rgb(255,72,27)" stroke="none"
        d="M -265,1541 L -255,1531 1854,3669 1844,3679 -265,1541 Z" />
    <path fill="rgb(255,71,27)" stroke="none"
        d="M -255,1532 L -245,1522 1863,3659 1853,3669 -255,1532 Z" />
    <path fill="rgb(255,70,27)" stroke="none"
        d="M -245,1522 L -235,1512 1873,3650 1863,3660 -245,1522 Z" />
    <path fill="rgb(255,69,27)" stroke="none"
        d="M -236,1513 L -226,1503 1883,3640 1873,3650 -236,1513 Z" />
    <path fill="rgb(255,68,27)" stroke="none"
        d="M -226,1503 L -216,1493 1892,3631 1882,3641 -226,1503 Z" />
    <path fill="rgb(255,67,27)" stroke="none"
        d="M -216,1494 L -206,1484 1902,3621 1892,3631 -216,1494 Z" />
    <path fill="rgb(255,66,27)" stroke="none"
        d="M -207,1484 L -197,1474 1911,3612 1901,3622 -207,1484 Z" />
    <path fill="rgb(255,65,27)" stroke="none"
        d="M -197,1475 L -187,1465 1921,3602 1911,3612 -197,1475 Z" />
    <path fill="rgb(255,64,27)" stroke="none"
        d="M -187,1465 L -178,1455 1931,3593 1921,3603 -187,1465 Z" />
    <path fill="rgb(255,63,27)" stroke="none"
        d="M -178,1456 L -168,1446 1940,3583 1930,3593 -178,1456 Z" />
    <path fill="rgb(255,62,27)" stroke="none"
        d="M -168,1446 L -158,1436 1950,3574 1940,3584 -168,1446 Z" />
    <path fill="rgb(255,61,27)" stroke="none"
        d="M -159,1437 L -149,1427 1960,3564 1950,3574 -159,1437 Z" />
    <path fill="rgb(255,60,27)" stroke="none"
        d="M -149,1427 L -139,1418 1969,3555 1959,3565 -149,1427 Z" />
    <path fill="rgb(255,59,27)" stroke="none"
        d="M -139,1418 L -129,1408 1979,3545 1969,3555 -139,1418 Z" />
    <path fill="rgb(255,58,27)" stroke="none"
        d="M -130,1408 L -120,1399 1988,3536 1978,3546 -130,1408 Z" />
    <path fill="rgb(255,57,27)" stroke="none"
        d="M -120,1399 L -110,1389 1998,3526 1988,3536 -120,1399 Z" />
    <path fill="rgb(255,56,28)" stroke="none"
        d="M -110,1389 L -101,1380 2008,3517 1998,3527 -110,1389 Z" />
    <path fill="rgb(255,55,28)" stroke="none"
        d="M -101,1380 L -91,1370 2017,3507 2007,3517 -101,1380 Z" />
    <path fill="rgb(255,54,28)" stroke="none"
        d="M -91,1370 L -81,1361 2027,3498 2017,3508 -91,1370 Z" />
    <path fill="rgb(255,53,28)" stroke="none"
        d="M -82,1361 L -72,1351 2037,3488 2027,3498 -82,1361 Z" />
    <path fill="rgb(255,52,28)" stroke="none"
        d="M -72,1351 L -62,1342 2046,3479 2036,3489 -72,1351 Z" />
    <path fill="rgb(255,51,28)" stroke="none"
        d="M -62,1342 L -52,1332 2056,3469 2046,3479 -62,1342 Z" />
    <path fill="rgb(255,50,28)" stroke="none"
        d="M -53,1332 L -43,1323 2065,3460 2055,3470 -53,1332 Z" />
    <path fill="rgb(255,49,28)" stroke="none"
        d="M -43,1323 L -33,1313 2075,3450 2065,3460 -43,1323 Z" />
    <path fill="rgb(255,48,28)" stroke="none"
        d="M -33,1313 L -24,1304 2085,3441 2075,3451 -33,1313 Z" />
    <path fill="rgb(255,47,28)" stroke="none"
        d="M -24,1304 L -14,1294 2094,3432 2084,3441 -24,1304 Z" />
    <path fill="rgb(255,46,28)" stroke="none"
        d="M -14,1294 L -4,1285 2104,3422 2094,3432 -14,1294 Z" />
    <path fill="rgb(255,45,28)" stroke="none"
        d="M -5,1285 L 5,1275 2114,3413 2104,3422 -5,1285 Z" />
    <path fill="rgb(255,44,28)" stroke="none"
        d="M 5,1275 L 15,1266 2123,3403 2113,3413 5,1275 Z" />
    <path fill="rgb(255,43,28)" stroke="none"
        d="M 15,1266 L 25,1256 2133,3394 2123,3403 15,1266 Z" />
    <path fill="rgb(255,42,28)" stroke="none"
        d="M 24,1256 L 34,1247 2142,3384 2133,3394 24,1256 Z" />
    <path fill="rgb(255,41,28)" stroke="none"
        d="M 34,1247 L 44,1237 2152,3375 2142,3384 34,1247 Z" />
    <path fill="rgb(255,40,28)" stroke="none"
        d="M 44,1238 L 53,1228 2162,3365 2152,3375 44,1238 Z" />
    <path fill="rgb(255,39,28)" stroke="none"
        d="M 53,1228 L 63,1218 2171,3356 2161,3365 53,1228 Z" />
    <path fill="rgb(255,38,28)" stroke="none"
        d="M 63,1219 L 73,1209 2181,3346 2171,3356 63,1219 Z" />
    <path fill="rgb(255,37,28)" stroke="none"
        d="M 72,1209 L 82,1199 2191,3337 2181,3346 72,1209 Z" />
    <path fill="rgb(255,36,28)" stroke="none"
        d="M 82,1200 L 92,1190 2200,3327 2190,3337 82,1200 Z" />
    <path fill="rgb(255,35,28)" stroke="none"
        d="M 92,1190 L 102,1180 2210,3318 2200,3327 92,1190 Z" />
    <path fill="rgb(255,34,28)" stroke="none"
        d="M 101,1181 L 111,1171 2219,3308 2210,3318 101,1181 Z" />
    <path fill="rgb(255,33,28)" stroke="none"
        d="M 111,1171 L 121,1161 2229,3299 2219,3308 111,1171 Z" />
    <path fill="rgb(255,32,28)" stroke="none"
        d="M 121,1162 L 130,1152 2239,3289 2229,3299 121,1162 Z" />
    <path fill="rgb(255,31,28)" stroke="none"
        d="M 130,1152 L 140,1142 2248,3280 2238,3289 130,1152 Z" />
    <path fill="rgb(255,30,28)" stroke="none"
        d="M 140,1143 L 150,1133 2258,3270 2248,3280 140,1143 Z" />
    <path fill="rgb(255,29,28)" stroke="none"
        d="M 149,1133 L 159,1123 2268,3261 2258,3270 149,1133 Z" />
    <path fill="rgb(255,28,28)" stroke="none"
        d="M 159,1124 L 169,1114 2277,3251 2267,3261 159,1124 Z" />
    <path fill="rgb(255,27,28)" stroke="none"
        d="M 169,1114 L 179,1104 2287,3242 2277,3252 169,1114 Z" />
    <path fill="rgb(255,26,28)" stroke="none"
        d="M 178,1105 L 188,1095 2296,3232 2287,3242 178,1105 Z" />
    <path fill="rgb(255,25,28)" stroke="none"
        d="M 188,1095 L 198,1085 2306,3223 2296,3233 188,1095 Z" />
    <path fill="rgb(255,24,28)" stroke="none"
        d="M 198,1086 L 207,1076 2316,3213 2306,3223 198,1086 Z" />
    <path fill="rgb(255,23,28)" stroke="none"
        d="M 207,1076 L 217,1066 2325,3204 2315,3214 207,1076 Z" />
    <path fill="rgb(255,22,28)" stroke="none"
        d="M 217,1067 L 227,1057 2335,3194 2325,3204 217,1067 Z" />
    <path fill="rgb(255,21,28)" stroke="none"
        d="M 226,1057 L 236,1047 2345,3185 2335,3195 226,1057 Z" />
    <path fill="rgb(255,20,29)" stroke="none"
        d="M 236,1048 L 246,1038 2354,3175 2344,3185 236,1048 Z" />
    <path fill="rgb(255,19,29)" stroke="none"
        d="M 246,1038 L 256,1028 2364,3166 2354,3176 246,1038 Z" />
    <path fill="rgb(255,18,29)" stroke="none"
        d="M 255,1029 L 265,1019 2373,3156 2364,3166 255,1029 Z" />
    <path fill="rgb(255,17,29)" stroke="none"
        d="M 265,1019 L 275,1009 2383,3147 2373,3157 265,1019 Z" />
    <path fill="rgb(255,16,29)" stroke="none"
        d="M 275,1010 L 285,1000 2393,3137 2383,3147 275,1010 Z" />
    <path fill="rgb(255,15,29)" stroke="none"
        d="M 284,1000 L 294,990 2402,3128 2392,3138 284,1000 Z" />
    <path fill="rgb(255,14,29)" stroke="none"
        d="M 294,991 L 304,981 2412,3118 2402,3128 294,991 Z" />
    <path fill="rgb(255,13,29)" stroke="none"
        d="M 303,981 L 313,972 2422,3109 2412,3119 303,981 Z" />
    <path fill="rgb(255,12,29)" stroke="none"
        d="M 313,972 L 323,962 2431,3099 2421,3109 313,972 Z" />
    <path fill="rgb(255,11,29)" stroke="none"
        d="M 323,962 L 333,953 2441,3090 2431,3100 323,962 Z" />
    <path fill="rgb(255,10,29)" stroke="none"
        d="M 332,953 L 342,943 2450,3080 2441,3090 332,953 Z" />
    <path fill="rgb(255,9,29)" stroke="none"
        d="M 342,943 L 352,934 2460,3071 2450,3081 342,943 Z" />
    <path fill="rgb(255,8,29)" stroke="none"
        d="M 352,934 L 362,924 2470,3061 2460,3071 352,934 Z" />
    <path fill="rgb(255,7,29)" stroke="none"
        d="M 361,924 L 371,915 2479,3052 2469,3062 361,924 Z" />
    <path fill="rgb(255,6,29)" stroke="none"
        d="M 371,915 L 381,905 2489,3042 2479,3052 371,915 Z" />
    <path fill="rgb(255,5,29)" stroke="none"
        d="M 380,905 L 390,896 2499,3033 2489,3043 380,905 Z" />
    <path fill="rgb(255,4,29)" stroke="none"
        d="M 390,896 L 400,886 2508,3023 2498,3033 390,896 Z" />
    <path fill="rgb(255,3,29)" stroke="none"
        d="M 400,886 L 410,877 2518,3014 2508,3024 400,886 Z" />
    <path fill="rgb(255,2,29)" stroke="none"
        d="M 409,877 L 418,869 2526,3006 2518,3014 409,877 Z" />
    <path fill="rgb(255,2,30)" stroke="none"
        d="M 417,869 L 426,861 2534,2998 2526,3006 417,869 Z" />
    <path fill="rgb(255,2,31)" stroke="none"
        d="M 425,861 L 434,853 2542,2990 2534,2998 425,861 Z" />
    <path fill="rgb(255,2,32)" stroke="none"
        d="M 434,853 L 442,845 2550,2982 2542,2990 434,853 Z" />
    <path fill="rgb(255,2,33)" stroke="none"
        d="M 442,845 L 450,837 2558,2974 2550,2982 442,845 Z" />
    <path fill="rgb(254,2,34)" stroke="none"
        d="M 450,837 L 458,829 2566,2966 2558,2975 450,837 Z" />
    <path fill="rgb(254,2,35)" stroke="none"
        d="M 458,829 L 466,821 2574,2958 2566,2967 458,829 Z" />
    <path fill="rgb(254,2,36)" stroke="none"
        d="M 466,821 L 474,813 2582,2950 2574,2959 466,821 Z" />
    <path fill="rgb(254,2,37)" stroke="none"
        d="M 474,813 L 482,805 2590,2942 2582,2951 474,813 Z" />
    <path fill="rgb(254,2,38)" stroke="none"
        d="M 482,805 L 490,797 2599,2934 2590,2943 482,805 Z" />
    <path fill="rgb(254,2,39)" stroke="none"
        d="M 490,797 L 498,789 2607,2927 2598,2935 490,797 Z" />
    <path fill="rgb(254,2,40)" stroke="none"
        d="M 498,789 L 506,781 2615,2919 2606,2927 498,789 Z" />
    <path fill="rgb(254,2,41)" stroke="none"
        d="M 506,782 L 514,773 2623,2911 2614,2919 506,782 Z" />
    <path fill="rgb(254,2,42)" stroke="none"
        d="M 514,774 L 523,765 2631,2903 2622,2911 514,774 Z" />
    <path fill="rgb(253,2,43)" stroke="none"
        d="M 522,766 L 531,757 2639,2895 2630,2903 522,766 Z" />
    <path fill="rgb(253,2,44)" stroke="none"
        d="M 530,758 L 539,749 2647,2887 2639,2895 530,758 Z" />
    <path fill="rgb(253,2,45)" stroke="none"
        d="M 538,750 L 547,741 2655,2879 2647,2887 538,750 Z" />
    <path fill="rgb(253,2,46)" stroke="none"
        d="M 546,742 L 555,734 2663,2871 2655,2879 546,742 Z" />
    <path fill="rgb(253,2,47)" stroke="none"
        d="M 554,734 L 563,726 2671,2863 2663,2871 554,734 Z" />
    <path fill="rgb(253,2,48)" stroke="none"
        d="M 563,726 L 571,718 2679,2855 2671,2863 563,726 Z" />
    <path fill="rgb(253,2,49)" stroke="none"
        d="M 571,718 L 579,710 2687,2847 2679,2855 571,718 Z" />
    <path fill="rgb(253,2,50)" stroke="none"
        d="M 579,710 L 587,702 2695,2839 2687,2847 579,710 Z" />
    <path fill="rgb(253,2,51)" stroke="none"
        d="M 587,702 L 595,694 2703,2831 2695,2839 587,702 Z" />
    <path fill="rgb(252,2,52)" stroke="none"
        d="M 595,694 L 603,686 2711,2823 2703,2831 595,694 Z" />
    <path fill="rgb(252,2,53)" stroke="none"
        d="M 603,686 L 611,678 2719,2815 2711,2823 603,686 Z" />
    <path fill="rgb(252,2,54)" stroke="none"
        d="M 611,678 L 619,670 2728,2807 2719,2816 611,678 Z" />
    <path fill="rgb(252,2,55)" stroke="none"
        d="M 619,670 L 627,662 2736,2799 2727,2808 619,670 Z" />
    <path fill="rgb(252,2,56)" stroke="none"
        d="M 627,662 L 635,654 2744,2791 2735,2800 627,662 Z" />
    <path fill="rgb(252,2,57)" stroke="none"
        d="M 635,654 L 643,646 2752,2783 2743,2792 635,654 Z" />
    <path fill="rgb(252,2,58)" stroke="none"
        d="M 643,646 L 652,638 2760,2776 2751,2784 643,646 Z" />
    <path fill="rgb(252,2,59)" stroke="none"
        d="M 651,638 L 660,630 2768,2768 2759,2776 651,638 Z" />
    <path fill="rgb(252,2,60)" stroke="none"
        d="M 659,630 L 668,622 2776,2760 2768,2768 659,630 Z" />
    <path fill="rgb(251,2,61)" stroke="none"
        d="M 667,623 L 676,614 2784,2752 2776,2760 667,623 Z" />
    <path fill="rgb(251,2,62)" stroke="none"
        d="M 675,615 L 684,606 2792,2744 2784,2752 675,615 Z" />
    <path fill="rgb(251,2,63)" stroke="none"
        d="M 684,607 L 692,598 2800,2736 2792,2744 684,607 Z" />
    <path fill="rgb(251,2,64)" stroke="none"
        d="M 692,599 L 700,590 2808,2728 2800,2736 692,599 Z" />
    <path fill="rgb(251,2,65)" stroke="none"
        d="M 700,591 L 708,582 2816,2720 2808,2728 700,591 Z" />
    <path fill="rgb(251,2,66)" stroke="none"
        d="M 708,583 L 716,575 2824,2712 2816,2720 708,583 Z" />
    <path fill="rgb(251,2,67)" stroke="none"
        d="M 716,575 L 724,567 2832,2704 2824,2712 716,575 Z" />
    <path fill="rgb(251,2,68)" stroke="none"
        d="M 724,567 L 732,559 2840,2696 2832,2704 724,567 Z" />
    <path fill="rgb(251,2,69)" stroke="none"
        d="M 732,559 L 740,551 2848,2688 2840,2696 732,559 Z" />
    <path fill="rgb(250,2,70)" stroke="none"
        d="M 740,551 L 748,543 2857,2680 2848,2688 740,551 Z" />
    <path fill="rgb(250,2,71)" stroke="none"
        d="M 748,543 L 756,535 2865,2672 2856,2680 748,543 Z" />
    <path fill="rgb(250,2,72)" stroke="none"
        d="M 756,535 L 764,527 2873,2664 2864,2672 756,535 Z" />
    <path fill="rgb(250,2,73)" stroke="none"
        d="M 764,527 L 773,519 2881,2656 2872,2665 764,527 Z" />
    <path fill="rgb(250,2,74)" stroke="none"
        d="M 772,519 L 781,511 2889,2648 2880,2657 772,519 Z" />
    <path fill="rgb(250,2,75)" stroke="none"
        d="M 780,511 L 789,503 2897,2640 2888,2649 780,511 Z" />
    <path fill="rgb(250,2,76)" stroke="none"
        d="M 788,503 L 797,495 2905,2632 2897,2641 788,503 Z" />
    <path fill="rgb(250,2,77)" stroke="none"
        d="M 796,495 L 805,487 2913,2624 2905,2633 796,495 Z" />
    <path fill="rgb(250,2,78)" stroke="none"
        d="M 804,487 L 813,479 2921,2617 2913,2625 804,487 Z" />
    <path fill="rgb(249,2,79)" stroke="none"
        d="M 813,479 L 821,471 2929,2609 2921,2617 813,479 Z" />
    <path fill="rgb(249,2,80)" stroke="none"
        d="M 821,472 L 829,463 2937,2601 2929,2609 821,472 Z" />
    <path fill="rgb(249,2,81)" stroke="none"
        d="M 829,464 L 837,455 2945,2593 2937,2601 829,464 Z" />
    <path fill="rgb(249,2,82)" stroke="none"
        d="M 837,456 L 845,447 2953,2585 2945,2593 837,456 Z" />
    <path fill="rgb(249,2,83)" stroke="none"
        d="M 845,448 L 853,439 2961,2577 2953,2585 845,448 Z" />
    <path fill="rgb(249,2,84)" stroke="none"
        d="M 853,440 L 861,431 2969,2569 2961,2577 853,440 Z" />
    <path fill="rgb(249,2,85)" stroke="none"
        d="M 861,432 L 869,424 2977,2561 2969,2569 861,432 Z" />
    <path fill="rgb(249,1,86)" stroke="none"
        d="M 869,424 L 877,416 2986,2553 2977,2561 869,424 Z" />
    <path fill="rgb(249,1,87)" stroke="none"
        d="M 877,416 L 885,408 2994,2545 2985,2553 877,416 Z" />
    <path fill="rgb(249,1,88)" stroke="none"
        d="M 885,408 L 893,400 3002,2537 2993,2545 885,408 Z" />
    <path fill="rgb(248,1,89)" stroke="none"
        d="M 893,400 L 902,392 3010,2529 3001,2537 893,400 Z" />
    <path fill="rgb(248,1,90)" stroke="none"
        d="M 901,392 L 910,384 3018,2521 3009,2529 901,392 Z" />
    <path fill="rgb(248,1,91)" stroke="none"
        d="M 909,384 L 918,376 3026,2513 3017,2521 909,384 Z" />
    <path fill="rgb(248,1,92)" stroke="none"
        d="M 917,376 L 926,368 3034,2505 3026,2513 917,376 Z" />
    <path fill="rgb(248,1,93)" stroke="none"
        d="M 925,368 L 934,360 3042,2497 3034,2506 925,368 Z" />
    <path fill="rgb(248,1,94)" stroke="none"
        d="M 933,360 L 942,352 3050,2489 3042,2498 933,360 Z" />
    <path fill="rgb(248,1,95)" stroke="none"
        d="M 942,352 L 950,344 3058,2481 3050,2490 942,352 Z" />
    <path fill="rgb(248,1,96)" stroke="none"
        d="M 950,344 L 958,336 3066,2473 3058,2482 950,344 Z" />
    <path fill="rgb(248,1,97)" stroke="none"
        d="M 958,336 L 966,328 3074,2466 3066,2474 958,336 Z" />
    <path fill="rgb(247,1,98)" stroke="none"
        d="M 966,328 L 974,320 3082,2458 3074,2466 966,328 Z" />
    <path fill="rgb(247,1,99)" stroke="none"
        d="M 974,320 L 982,312 3090,2450 3082,2458 974,320 Z" />
    <path fill="rgb(247,1,100)" stroke="none"
        d="M 982,313 L 990,304 3098,2442 3090,2450 982,313 Z" />
    <path fill="rgb(247,1,101)" stroke="none"
        d="M 990,305 L 998,296 3106,2434 3098,2442 990,305 Z" />
    <path fill="rgb(247,1,102)" stroke="none"
        d="M 998,297 L 1006,288 3115,2426 3106,2434 998,297 Z" />
    <path fill="rgb(247,1,103)" stroke="none"
        d="M 1006,289 L 1014,280 3123,2418 3114,2426 1006,289 Z" />
    <path fill="rgb(247,1,104)" stroke="none"
        d="M 1014,281 L 1022,272 3131,2410 3122,2418 1014,281 Z" />
    <path fill="rgb(247,1,105)" stroke="none"
        d="M 1022,273 L 1031,265 3139,2402 3130,2410 1022,273 Z" />
    <path fill="rgb(247,1,106)" stroke="none"
        d="M 1030,265 L 1039,257 3147,2394 3138,2402 1030,265 Z" />
    <path fill="rgb(246,1,107)" stroke="none"
        d="M 1038,257 L 1047,249 3155,2386 3147,2394 1038,257 Z" />
    <path fill="rgb(246,1,108)" stroke="none"
        d="M 1046,249 L 1055,241 3163,2378 3155,2386 1046,249 Z" />
    <path fill="rgb(246,1,109)" stroke="none"
        d="M 1054,241 L 1063,233 3171,2370 3163,2378 1054,241 Z" />
    <path fill="rgb(246,1,110)" stroke="none"
        d="M 1062,233 L 1071,225 3179,2362 3171,2370 1062,233 Z" />
    <path fill="rgb(246,1,111)" stroke="none"
        d="M 1071,225 L 1079,217 3187,2354 3179,2362 1071,225 Z" />
    <path fill="rgb(246,1,112)" stroke="none"
        d="M 1079,217 L 1087,209 3195,2346 3187,2355 1079,217 Z" />
    <path fill="rgb(246,1,113)" stroke="none"
        d="M 1087,209 L 1095,201 3203,2338 3195,2347 1087,209 Z" />
    <path fill="rgb(246,1,114)" stroke="none"
        d="M 1095,201 L 1103,193 3211,2330 3203,2339 1095,201 Z" />
    <path fill="rgb(246,1,115)" stroke="none"
        d="M 1103,193 L 1111,185 3219,2322 3211,2331 1103,193 Z" />
    <path fill="rgb(245,1,116)" stroke="none"
        d="M 1111,185 L 1119,177 3227,2314 3219,2323 1111,185 Z" />
    <path fill="rgb(245,1,117)" stroke="none"
        d="M 1119,177 L 1127,169 3236,2307 3227,2315 1119,177 Z" />
    <path fill="rgb(245,1,118)" stroke="none"
        d="M 1127,169 L 1135,161 3244,2299 3235,2307 1127,169 Z" />
    <path fill="rgb(245,1,119)" stroke="none"
        d="M 1135,162 L 1143,153 3252,2291 3243,2299 1135,162 Z" />
    <path fill="rgb(245,1,120)" stroke="none"
        d="M 1143,154 L 1151,145 3260,2283 3251,2291 1143,154 Z" />
    <path fill="rgb(245,1,121)" stroke="none"
        d="M 1151,146 L 1160,137 3268,2275 3259,2283 1151,146 Z" />
    <path fill="rgb(245,1,122)" stroke="none"
        d="M 1159,138 L 1168,129 3276,2267 3267,2275 1159,138 Z" />
    <path fill="rgb(245,1,123)" stroke="none"
        d="M 1167,130 L 1176,121 3284,2259 3276,2267 1167,130 Z" />
    <path fill="rgb(245,1,124)" stroke="none"
        d="M 1175,122 L 1184,114 3292,2251 3284,2259 1175,122 Z" />
    <path fill="rgb(244,1,125)" stroke="none"
        d="M 1183,114 L 1192,106 3300,2243 3292,2251 1183,114 Z" />
    <path fill="rgb(244,1,126)" stroke="none"
        d="M 1191,106 L 1200,98 3308,2235 3300,2243 1191,106 Z" />
    <path fill="rgb(244,1,127)" stroke="none"
        d="M 1200,98 L 1208,90 3316,2227 3308,2235 1200,98 Z" />
    <path fill="rgb(244,1,128)" stroke="none"
        d="M 1208,90 L 1216,82 3324,2219 3316,2227 1208,90 Z" />
    <path fill="rgb(244,1,129)" stroke="none"
        d="M 1216,82 L 1224,74 3332,2211 3324,2219 1216,82 Z" />
    <path fill="rgb(244,1,130)" stroke="none"
        d="M 1224,74 L 1232,66 3340,2203 3332,2211 1224,74 Z" />
    <path fill="rgb(244,1,131)" stroke="none"
        d="M 1232,66 L 1240,58 3348,2195 3340,2203 1232,66 Z" />
    <path fill="rgb(244,1,132)" stroke="none"
        d="M 1240,58 L 1248,50 3356,2187 3348,2196 1240,58 Z" />
    <path fill="rgb(244,1,133)" stroke="none"
        d="M 1248,50 L 1256,42 3365,2179 3356,2188 1248,50 Z" />
    <path fill="rgb(243,1,134)" stroke="none"
        d="M 1256,42 L 1264,34 3373,2171 3364,2180 1256,42 Z" />
    <path fill="rgb(243,1,135)" stroke="none"
        d="M 1264,34 L 1272,26 3381,2163 3372,2172 1264,34 Z" />
    <path fill="rgb(243,1,136)" stroke="none"
        d="M 1272,26 L 1280,18 3389,2156 3380,2164 1272,26 Z" />
    <path fill="rgb(243,1,137)" stroke="none"
        d="M 1280,18 L 1289,10 3397,2148 3388,2156 1280,18 Z" />
    <path fill="rgb(243,1,138)" stroke="none"
        d="M 1288,10 L 1297,2 3405,2140 3396,2148 1288,10 Z" />
    <path fill="rgb(243,1,139)" stroke="none"
        d="M 1296,3 L 1305,-6 3413,2132 3405,2140 1296,3 Z" />
    <path fill="rgb(243,1,140)" stroke="none"
        d="M 1304,-5 L 1313,-14 3421,2124 3413,2132 1304,-5 Z" />
    <path fill="rgb(243,1,141)" stroke="none"
        d="M 1312,-13 L 1321,-22 3429,2116 3421,2124 1312,-13 Z" />
    <path fill="rgb(243,1,142)" stroke="none"
        d="M 1321,-21 L 1329,-30 3437,2108 3429,2116 1321,-21 Z" />
    <path fill="rgb(242,1,142)" stroke="none"
        d="M 1329,-29 L 1337,-38 3445,2100 3437,2108 1329,-29 Z" />
    <path fill="rgb(242,1,143)" stroke="none"
        d="M 1337,-37 L 1345,-45 3453,2092 3445,2100 1337,-37 Z" />
    <path fill="rgb(242,1,144)" stroke="none"
        d="M 1345,-45 L 1353,-53 3461,2084 3453,2092 1345,-45 Z" />
    <path fill="rgb(242,1,145)" stroke="none"
        d="M 1353,-53 L 1361,-61 3469,2076 3461,2084 1353,-53 Z" />
    <path fill="rgb(242,1,146)" stroke="none"
        d="M 1361,-61 L 1369,-69 3477,2068 3469,2076 1361,-61 Z" />
    <path fill="rgb(242,1,147)" stroke="none"
        d="M 1369,-69 L 1377,-77 3485,2060 3477,2068 1369,-69 Z" />
    <path fill="rgb(242,1,148)" stroke="none"
        d="M 1377,-77 L 1385,-85 3494,2052 3485,2060 1377,-77 Z" />
    <path fill="rgb(242,1,149)" stroke="none"
        d="M 1385,-85 L 1393,-93 3502,2044 3493,2052 1385,-85 Z" />
    <path fill="rgb(242,1,150)" stroke="none"
        d="M 1393,-93 L 1401,-101 3510,2036 3501,2045 1393,-93 Z" />
    <path fill="rgb(241,1,151)" stroke="none"
        d="M 1401,-101 L 1410,-109 3518,2028 3509,2037 1401,-101 Z" />
    <path fill="rgb(241,1,152)" stroke="none"
        d="M 1409,-109 L 1418,-117 3526,2020 3517,2029 1409,-109 Z" />
    <path fill="rgb(241,1,153)" stroke="none"
        d="M 1417,-117 L 1426,-125 3534,2012 3525,2021 1417,-117 Z" />
    <path fill="rgb(241,1,154)" stroke="none"
        d="M 1425,-125 L 1434,-133 3542,2004 3534,2013 1425,-125 Z" />
    <path fill="rgb(241,1,155)" stroke="none"
        d="M 1433,-133 L 1442,-141 3550,1997 3542,2005 1433,-133 Z" />
    <path fill="rgb(241,1,156)" stroke="none"
        d="M 1441,-141 L 1450,-149 3558,1989 3550,1997 1441,-141 Z" />
    <path fill="rgb(241,1,157)" stroke="none"
        d="M 1450,-148 L 1458,-157 3566,1981 3558,1989 1450,-148 Z" />
    <path fill="rgb(241,1,158)" stroke="none"
        d="M 1458,-156 L 1466,-165 3574,1973 3566,1981 1458,-156 Z" />
    <path fill="rgb(241,1,159)" stroke="none"
        d="M 1466,-164 L 1474,-173 3582,1965 3574,1973 1466,-164 Z" />
    <path fill="rgb(240,1,160)" stroke="none"
        d="M 1474,-172 L 1482,-181 3590,1957 3582,1965 1474,-172 Z" />
    <path fill="rgb(240,1,161)" stroke="none"
        d="M 1482,-180 L 1490,-189 3598,1949 3590,1957 1482,-180 Z" />
    <path fill="rgb(240,1,162)" stroke="none"
        d="M 1490,-188 L 1498,-196 3606,1941 3598,1949 1490,-188 Z" />
    <path fill="rgb(240,1,163)" stroke="none"
        d="M 1498,-196 L 1506,-204 3614,1933 3606,1941 1498,-196 Z" />
    <path fill="rgb(240,1,164)" stroke="none"
        d="M 1506,-204 L 1514,-212 3623,1925 3614,1933 1506,-204 Z" />
    <path fill="rgb(240,1,165)" stroke="none"
        d="M 1514,-212 L 1522,-220 3631,1917 3622,1925 1514,-212 Z" />
    <path fill="rgb(240,1,166)" stroke="none"
        d="M 1522,-220 L 1530,-228 3639,1909 3630,1917 1522,-220 Z" />
    <path fill="rgb(240,1,167)" stroke="none"
        d="M 1530,-228 L 1539,-236 3647,1901 3638,1909 1530,-228 Z" />
    <path fill="rgb(240,1,168)" stroke="none"
        d="M 1538,-236 L 1547,-244 3655,1893 3646,1901 1538,-236 Z" />
    <path fill="rgb(239,1,169)" stroke="none"
        d="M 1546,-244 L 1555,-252 3663,1885 3654,1893 1546,-244 Z" />
    <path fill="rgb(239,1,170)" stroke="none"
        d="M 1554,-252 L 1563,-260 3671,1877 3663,1886 1554,-252 Z" />
    <path fill="rgb(239,1,171)" stroke="none"
        d="M 1562,-260 L 1571,-268 3679,1869 3671,1878 1562,-260 Z" />
    <path fill="rgb(239,1,172)" stroke="none"
        d="M 1570,-268 L 1579,-276 3687,1861 3679,1870 1570,-268 Z" />
    <path fill="rgb(239,1,173)" stroke="none"
        d="M 1579,-276 L 1587,-284 3695,1853 3687,1862 1579,-276 Z" />
    <path fill="rgb(239,1,174)" stroke="none"
        d="M 1587,-284 L 1595,-292 3703,1845 3695,1854 1587,-284 Z" />
    <path fill="rgb(239,1,175)" stroke="none"
        d="M 1595,-292 L 1603,-300 3711,1838 3703,1846 1595,-292 Z" />
    <path fill="rgb(239,1,176)" stroke="none"
        d="M 1603,-300 L 1611,-308 3719,1830 3711,1838 1603,-300 Z" />
    <path fill="rgb(239,1,177)" stroke="none"
        d="M 1611,-307 L 1619,-316 3727,1822 3719,1830 1611,-307 Z" />
    <path fill="rgb(238,1,178)" stroke="none"
        d="M 1619,-315 L 1627,-324 3735,1814 3727,1822 1619,-315 Z" />
    <path fill="rgb(238,1,179)" stroke="none"
        d="M 1627,-323 L 1635,-332 3743,1806 3735,1814 1627,-323 Z" />
    <path fill="rgb(238,1,180)" stroke="none"
        d="M 1635,-331 L 1643,-340 3752,1798 3743,1806 1635,-331 Z" />
    <path fill="rgb(238,1,181)" stroke="none"
        d="M 1643,-339 L 1651,-348 3760,1790 3751,1798 1643,-339 Z" />
    <path fill="rgb(238,1,182)" stroke="none"
        d="M 1651,-347 L 1659,-355 3768,1782 3759,1790 1651,-347 Z" />
    <path fill="rgb(238,1,183)" stroke="none"
        d="M 1659,-355 L 1668,-363 3776,1774 3767,1782 1659,-355 Z" />
    <path fill="rgb(238,1,184)" stroke="none"
        d="M 1667,-363 L 1676,-371 3784,1766 3775,1774 1667,-363 Z" />
    <path fill="rgb(238,1,185)" stroke="none"
        d="M 1675,-371 L 1684,-379 3792,1758 3784,1766 1675,-371 Z" />
    <path fill="rgb(238,1,186)" stroke="none"
        d="M 1683,-379 L 1692,-387 3800,1750 3792,1758 1683,-379 Z" />
    <path fill="rgb(237,1,187)" stroke="none"
        d="M 1691,-387 L 1700,-395 3808,1742 3800,1750 1691,-387 Z" />
    <path fill="rgb(237,1,188)" stroke="none"
        d="M 1699,-395 L 1708,-403 3816,1734 3808,1742 1699,-395 Z" />
    <path fill="rgb(237,1,189)" stroke="none"
        d="M 1708,-403 L 1716,-411 3824,1726 3816,1735 1708,-403 Z" />
    <path fill="rgb(237,1,190)" stroke="none"
        d="M 1716,-411 L 1724,-419 3832,1718 3824,1727 1716,-411 Z" />
    <path fill="rgb(237,1,191)" stroke="none"
        d="M 1724,-419 L 1732,-427 3840,1710 3832,1719 1724,-419 Z" />
    <path fill="rgb(237,1,192)" stroke="none"
        d="M 1732,-427 L 1740,-435 3848,1702 3840,1711 1732,-427 Z" />
    <path fill="rgb(237,1,193)" stroke="none"
        d="M 1740,-435 L 1748,-443 3856,1694 3848,1703 1740,-435 Z" />
    <path fill="rgb(237,1,194)" stroke="none"
        d="M 1748,-443 L 1756,-451 3864,1687 3856,1695 1748,-443 Z" />
    <path fill="rgb(237,1,195)" stroke="none"
        d="M 1756,-451 L 1764,-459 3873,1679 3864,1687 1756,-451 Z" />
    <path fill="rgb(236,1,196)" stroke="none"
        d="M 1764,-458 L 1772,-467 3881,1671 3872,1679 1764,-458 Z" />
    <path fill="rgb(236,1,197)" stroke="none"
        d="M 1772,-466 L 1780,-475 3889,1663 3880,1671 1772,-466 Z" />
    <path fill="rgb(236,1,198)" stroke="none"
        d="M 1780,-474 L 1788,-483 3897,1655 3888,1663 1780,-474 Z" />
    <path fill="rgb(236,0,199)" stroke="none"
        d="M 1788,-482 L 1797,-491 3905,1647 3896,1655 1788,-482 Z" />
    <path fill="rgb(236,0,200)" stroke="none"
        d="M 1796,-490 L 1805,-499 3913,1639 3904,1647 1796,-490 Z" />
    <path fill="rgb(236,0,201)" stroke="none"
        d="M 1804,-498 L 1813,-506 3921,1631 3913,1639 1804,-498 Z" />
    <path fill="rgb(236,0,202)" stroke="none"
        d="M 1812,-506 L 1821,-514 3929,1623 3921,1631 1812,-506 Z" />
    <path fill="rgb(236,0,203)" stroke="none"
        d="M 1820,-514 L 1829,-522 3937,1615 3929,1623 1820,-514 Z" />
    <path fill="rgb(236,0,204)" stroke="none"
        d="M 1828,-522 L 1837,-530 3945,1607 3937,1615 1828,-522 Z" />
    <path fill="rgb(236,0,205)" stroke="none"
        d="M 1837,-530 L 1845,-538 3953,1599 3945,1607 1837,-530 Z" />
    <path fill="rgb(235,0,206)" stroke="none"
        d="M 1845,-538 L 1853,-546 3961,1591 3953,1599 1845,-538 Z" />
    <path fill="rgb(235,0,207)" stroke="none"
        d="M 1853,-546 L 1861,-554 3969,1583 3961,1591 1853,-546 Z" />
    <path fill="rgb(235,0,208)" stroke="none"
        d="M 1861,-554 L 1869,-562 3977,1575 3969,1583 1861,-554 Z" />
    <path fill="rgb(235,0,209)" stroke="none"
        d="M 1869,-562 L 1877,-570 3985,1567 3977,1576 1869,-562 Z" />
    <path fill="rgb(235,0,210)" stroke="none"
        d="M 1877,-570 L 1885,-578 3993,1559 3985,1568 1877,-570 Z" />
    <path fill="rgb(235,0,211)" stroke="none"
        d="M 1885,-578 L 1893,-586 4002,1551 3993,1560 1885,-578 Z" />
    <path fill="rgb(235,0,212)" stroke="none"
        d="M 1893,-586 L 1901,-594 4010,1543 4001,1552 1893,-586 Z" />
    <path fill="rgb(235,0,213)" stroke="none"
        d="M 1901,-594 L 1909,-602 4018,1535 4009,1544 1901,-594 Z" />
    <path fill="rgb(235,0,214)" stroke="none"
        d="M 1909,-602 L 1917,-610 4026,1528 4017,1536 1909,-602 Z" />
    <path fill="rgb(234,0,215)" stroke="none"
        d="M 1917,-610 L 1926,-618 4034,1520 4025,1528 1917,-610 Z" />
    <path fill="rgb(234,0,216)" stroke="none"
        d="M 1925,-617 L 1934,-626 4042,1512 4033,1520 1925,-617 Z" />
    <path fill="rgb(234,0,217)" stroke="none"
        d="M 1933,-625 L 1942,-634 4050,1504 4042,1512 1933,-625 Z" />
    <path fill="rgb(234,0,218)" stroke="none"
        d="M 1941,-633 L 1950,-642 4058,1496 4050,1504 1941,-633 Z" />
    <path fill="rgb(234,0,219)" stroke="none"
        d="M 1949,-641 L 1958,-650 4066,1488 4058,1496 1949,-641 Z" />
    <path fill="rgb(234,0,220)" stroke="none"
        d="M 1958,-649 L 1966,-658 4074,1480 4066,1488 1958,-649 Z" />
    <path fill="rgb(234,0,221)" stroke="none"
        d="M 1966,-657 L 1974,-665 4082,1472 4074,1480 1966,-657 Z" />
    <path fill="rgb(234,0,222)" stroke="none"
        d="M 1974,-665 L 1982,-673 4090,1464 4082,1472 1974,-665 Z" />
    <path fill="rgb(234,0,223)" stroke="none"
        d="M 1982,-673 L 1990,-681 4098,1456 4090,1464 1982,-673 Z" />
    <path fill="rgb(233,0,224)" stroke="none"
        d="M 1990,-681 L 1998,-689 4106,1448 4098,1456 1990,-681 Z" />
    <path fill="rgb(233,0,225)" stroke="none"
        d="M 1998,-689 L 2006,-697 4114,1440 4106,1448 1998,-689 Z" />
    <path fill="rgb(233,0,226)" stroke="none"
        d="M 2006,-697 L 2014,-705 4122,1432 4114,1440 2006,-697 Z" />
    <path fill="rgb(233,0,227)" stroke="none"
        d="M 2014,-705 L 2022,-713 4131,1424 4122,1432 2014,-705 Z" />
    <path fill="rgb(233,0,228)" stroke="none"
        d="M 2022,-713 L 2030,-721 4139,1416 4130,1425 2022,-713 Z" />
    <path fill="rgb(233,0,229)" stroke="none"
        d="M 2030,-721 L 2038,-729 4147,1408 4138,1417 2030,-721 Z" />
    <path fill="rgb(233,0,230)" stroke="none"
        d="M 2038,-729 L 2047,-737 4155,1400 4146,1409 2038,-729 Z" />
    <path fill="rgb(233,0,231)" stroke="none"
        d="M 2046,-737 L 2055,-745 4163,1392 4154,1401 2046,-737 Z" />
    <path fill="rgb(233,0,232)" stroke="none"
        d="M 2054,-745 L 2063,-753 4171,1384 4162,1393 2054,-745 Z" />
    <path fill="rgb(232,0,233)" stroke="none"
        d="M 2062,-753 L 2071,-761 4179,1377 4171,1385 2062,-753 Z" />
    <path fill="rgb(232,0,234)" stroke="none"
        d="M 2070,-761 L 2079,-769 4187,1369 4179,1377 2070,-761 Z" />
    <path fill="rgb(232,0,235)" stroke="none"
        d="M 2078,-768 L 2087,-777 4195,1361 4187,1369 2078,-768 Z" />
    <path fill="rgb(232,0,236)" stroke="none"
        d="M 2087,-776 L 2095,-785 4203,1353 4195,1361 2087,-776 Z" />
    <path fill="rgb(232,0,237)" stroke="none"
        d="M 2095,-784 L 2103,-793 4211,1345 4203,1353 2095,-784 Z" />
    <path fill="rgb(232,0,238)" stroke="none"
        d="M 2103,-792 L 2111,-801 4219,1337 4211,1345 2103,-792 Z" />
    <path fill="rgb(232,0,239)" stroke="none"
        d="M 2111,-800 L 2119,-809 4227,1329 4219,1337 2111,-800 Z" />
    <path fill="rgb(232,0,240)" stroke="none"
        d="M 2119,-808 L 2127,-816 4235,1321 4227,1329 2119,-808 Z" />
    <path fill="rgb(232,0,241)" stroke="none"
        d="M 2127,-816 L 2135,-824 4243,1313 4235,1321 2127,-816 Z" />
    <path fill="rgb(231,0,242)" stroke="none"
        d="M 2135,-824 L 2143,-832 4251,1305 4243,1313 2135,-824 Z" />
    <path fill="rgb(231,0,243)" stroke="none"
        d="M 2143,-832 L 2151,-840 4260,1297 4251,1305 2143,-832 Z" />
    <path fill="rgb(231,0,244)" stroke="none"
        d="M 2151,-840 L 2159,-848 4268,1289 4259,1297 2151,-840 Z" />
    <path fill="rgb(231,0,245)" stroke="none"
        d="M 2159,-848 L 2167,-856 4276,1281 4267,1289 2159,-848 Z" />
    <path fill="rgb(231,0,246)" stroke="none"
        d="M 2167,-856 L 2176,-864 4284,1273 4275,1281 2167,-856 Z" />
    <path fill="rgb(231,0,247)" stroke="none"
        d="M 2175,-864 L 2184,-872 4292,1265 4283,1273 2175,-864 Z" />
    <path fill="rgb(231,0,248)" stroke="none"
        d="M 2183,-872 L 2192,-880 4300,1257 4292,1266 2183,-872 Z" />
    <path fill="rgb(231,0,249)" stroke="none"
        d="M 2191,-880 L 2200,-888 4308,1249 4300,1258 2191,-880 Z" />
    <path fill="rgb(231,0,250)" stroke="none"
        d="M 2199,-888 L 2208,-896 4316,1241 4308,1250 2199,-888 Z" />
    <path fill="rgb(230,0,251)" stroke="none"
        d="M 2207,-896 L 2216,-904 4324,1233 4316,1242 2207,-896 Z" />
    <path fill="rgb(230,0,252)" stroke="none"
        d="M 2216,-904 L 2224,-912 4332,1225 4324,1234 2216,-904 Z" />
    <path fill="rgb(230,0,253)" stroke="none"
        d="M 2224,-912 L 2232,-920 4340,1218 4332,1226 2224,-912 Z" />
    <path fill="rgb(230,0,254)" stroke="none"
        d="M 2232,-920 L 2240,-928 4348,1210 4340,1218 2232,-920 Z" />
    <path fill="rgb(230,0,255)" stroke="none"
        d="M 2240,-927 L 2273,-960 4381,1177 4348,1210 2240,-927 Z" />
    <path fill="rgb(230,0,255)" stroke="none"
        d="M 2272,-960 L 2280,-967 4388,1171 4381,1178 2272,-960 Z" />
</g>
<path fill="rgb(0,0,0)" stroke="none"
    d="M 437,860 L 2553,860 2553,2976 437,2976 437,860 Z" />
<path fill="rgb(255,255,255)" stroke="none"
    d="M 701,2499 L 1601,2499 1601,2711 701,2711 701,2499 Z" />
<path fill="rgb(39,40,44)" stroke="none"
    d="M 4589,1922 C 4589,1967 4580,2006 4561,2041 4543,2075 4515,2103 4481,2122 4446,2141 4407,2150 4362,2150 L 4141,2150 4141,2473 4409,2473 C 4510,2473 4601,2451 4682,2405 4761,2361 4827,2296 4871,2218 4917,2138 4940,2049 4940,1948 L 4940,887 4589,887 4589,1922 4589,1922 Z M 5534,1826 L 6269,1826 6269,1529 5534,1529 5534,1193 6347,1193 6347,887 5192,887 5192,2473 6369,2473 6369,2167 5534,2167 5534,1826 5534,1826 Z M 6480,1202 L 6950,1202 6950,2472 7301,2472 7301,1202 7768,1202 7768,887 6479,887 6479,1202 6480,1202 6480,1202 Z M 8968,1678 C 8940,1663 8910,1651 8879,1643 8903,1637 8925,1628 8947,1618 9005,1588 9051,1546 9083,1491 9116,1437 9133,1375 9133,1304 9133,1224 9111,1151 9067,1088 9023,1024 8962,975 8882,939 8803,904 8713,886 8612,886 L 7907,886 7907,2472 8625,2472 C 8732,2472 8827,2453 8910,2416 8994,2378 9058,2327 9105,2260 9151,2193 9174,2118 9174,2032 9174,1954 9156,1884 9120,1822 9084,1760 9031,1710 8968,1677 L 8968,1678 8968,1678 Z M 8248,1153 L 8559,1153 C 8603,1153 8641,1161 8674,1176 8706,1190 8732,1213 8751,1243 8770,1271 8779,1305 8779,1343 8779,1382 8770,1418 8751,1448 8733,1478 8707,1501 8674,1517 8641,1533 8603,1541 8559,1541 L 8248,1541 8248,1152 8248,1153 8248,1153 Z M 8784,2112 C 8764,2142 8736,2166 8700,2182 8663,2198 8621,2206 8573,2206 L 8248,2206 8248,1799 8573,1799 C 8620,1799 8662,1808 8699,1826 8735,1843 8764,1867 8784,1899 8804,1931 8815,1966 8815,2007 8815,2048 8804,2082 8784,2112 L 8784,2112 Z M 10351,1832 C 10439,1789 10506,1730 10555,1653 10603,1577 10628,1489 10628,1387 10628,1286 10604,1201 10557,1125 10509,1049 10442,991 10355,949 10268,908 10167,887 10052,887 L 9358,887 9358,2473 9709,2473 9709,1895 9938,1895 10260,2473 10661,2473 10298,1853 C 10316,1846 10334,1839 10351,1832 L 10351,1832 10351,1832 Z M 10237,1508 C 10217,1541 10188,1568 10153,1584 10117,1602 10074,1611 10025,1611 L 9709,1611 9709,1172 10025,1172 C 10074,1172 10117,1181 10153,1198 10188,1215 10217,1241 10237,1274 10256,1307 10266,1346 10266,1390 10266,1434 10256,1473 10237,1507 L 10237,1508 10237,1508 Z M 11326,887 L 10760,2473 11117,2473 11229,2123 11817,2123 11937,2473 12287,2473 11707,887 11326,887 11326,887 Z M 11308,1857 L 11491,1298 11512,1196 11534,1298 11729,1857 11308,1857 11308,1857 Z M 12403,2473 L 12766,2473 12766,887 12403,887 12403,2473 12403,2473 Z M 14045,1959 L 13362,887 13020,887 13020,2473 13341,2473 13341,1400 14020,2473 14365,2473 14365,887 14045,887 14045,1960 14045,1959 14045,1959 Z M 15713,1782 C 15679,1716 15630,1661 15569,1616 15507,1571 15436,1542 15356,1527 L 15086,1471 C 15044,1461 15010,1444 14985,1419 14961,1393 14948,1362 14948,1324 14948,1290 14957,1260 14975,1235 14993,1210 15019,1190 15052,1176 15085,1162 15122,1155 15166,1155 15209,1155 15248,1163 15281,1177 15314,1192 15340,1213 15359,1239 15377,1266 15386,1296 15386,1331 L 15738,1331 C 15736,1238 15710,1157 15661,1086 15613,1015 15545,960 15459,920 15372,880 15273,860 15162,860 15052,860 14954,880 14868,922 14782,963 14715,1021 14667,1095 14619,1168 14594,1252 14594,1346 14594,1423 14610,1492 14641,1553 14671,1614 14716,1667 14772,1706 14829,1747 14894,1775 14969,1791 L 15255,1850 C 15302,1861 15339,1882 15366,1911 15393,1941 15406,1977 15406,2021 15407,2055 15396,2089 15376,2116 15356,2144 15328,2166 15293,2181 15257,2197 15215,2204 15166,2204 15118,2204 15072,2196 15032,2179 14993,2162 14962,2138 14941,2106 14919,2075 14908,2039 14908,1998 L 14557,1998 C 14558,2097 14584,2184 14637,2260 14688,2335 14759,2394 14850,2436 14941,2478 15044,2499 15161,2499 15278,2499 15384,2478 15474,2435 15566,2392 15636,2332 15687,2256 15738,2180 15764,2094 15764,1998 15764,1920 15746,1848 15712,1781 L 15713,1782 15713,1782 Z" />
            </g>
        </g>
    </g>
</g>
            </g>
        </g>
    </g>
</svg>