<?xml version="1.0" encoding="UTF-8" standalone="no"?>
<!DOCTYPE svg PUBLIC "-//W3C//DTD SVG 1.1//EN" "http://www.w3.org/Graphics/SVG/1.1/DTD/svg11.dtd">
<svg width="100%" height="100%" viewBox="0 0 156 40" version="1.1" xmlns="http://www.w3.org/2000/svg"
    xmlns:xlink="http://www.w3.org/1999/xlink" xml:space="preserve" xmlns:serif="http://www.serif.com/"
    style="fill-rule:evenodd;clip-rule:evenodd;stroke-linejoin:round;stroke-miterlimit:2;">
    <rect x="0" y="0.1" width="156" height="40" style="fill:#fff;" />
    <path
        d="M66,31.4c-0.2,-0.2 -0.4,-0.4 -0.5,-0.7l-9.7,-14.7l0,14.9c0,0.2 -0.1,0.4 -0.2,0.6c-0.2,0.2 -0.3,0.2 -0.6,0.2l-1.2,0c-0.2,0 -0.4,-0.1 -0.6,-0.2c-0.2,-0.2 -0.2,-0.3 -0.2,-0.6l0,-19.4c0,-0.2 0.1,-0.4 0.2,-0.6c0.2,-0.2 0.3,-0.2 0.6,-0.2l1,0c0.3,0 0.5,0.1 0.7,0.2c0.2,0.2 0.4,0.4 0.5,0.7l9.6,14.6l0,-14.7c0,-0.2 0.1,-0.4 0.2,-0.6c0.2,-0.2 0.3,-0.2 0.6,-0.2l1.2,0c0.2,0 0.4,0.1 0.6,0.2c0.2,0.2 0.2,0.3 0.2,0.6l0,19.4c0,0.2 -0.1,0.4 -0.2,0.6c-0.2,0.2 -0.3,0.2 -0.6,0.2l-1,0c-0.2,0 -0.4,-0.1 -0.6,-0.3Zm16.6,-9.6l0,-0.4c0,-1 -0.3,-1.7 -1,-2.3c-0.6,-0.5 -1.5,-0.8 -2.5,-0.8c-0.8,0 -1.4,0.1 -1.9,0.4c-0.4,0.3 -0.9,0.7 -1.3,1.2c-0.1,0.2 -0.3,0.3 -0.4,0.3c-0.1,0.1 -0.3,0.1 -0.6,0.1l-0.9,0c-0.2,0 -0.4,-0.1 -0.6,-0.2c-0.2,-0.2 -0.2,-0.3 -0.2,-0.6c0.1,-0.6 0.4,-1.2 0.9,-1.8c0.5,-0.6 1.2,-1.1 2.1,-1.5c0.9,-0.4 1.8,-0.6 2.8,-0.6c1.9,0 3.4,0.5 4.5,1.6c1.1,1 1.7,2.5 1.7,4.4l0,9.3c0,0.2 -0.1,0.4 -0.2,0.6c-0.2,0.2 -0.3,0.2 -0.6,0.2l-1.1,0c-0.2,0 -0.4,-0.1 -0.6,-0.2c-0,-0.2 -0.1,-0.4 -0.1,-0.6l-0,-1.2c-0.3,0.7 -1,1.3 -2,1.7c-1,0.4 -2.1,0.6 -3.1,0.6c-1,0 -1.9,-0.2 -2.7,-0.6c-0.8,-0.4 -1.4,-0.9 -1.8,-1.5c-0.4,-0.6 -0.6,-1.4 -0.6,-2.2c-0,-1.5 0.6,-2.7 1.7,-3.5c1.1,-0.8 2.6,-1.4 4.5,-1.7l4,-0.7Zm-0,2.4l-3.5,0.6c-1.3,0.2 -2.3,0.5 -3,1c-0.7,0.4 -1.1,1 -1.1,1.7c-0,0.5 0.2,0.9 0.7,1.3c0.5,0.4 1.2,0.6 2.1,0.6c1.4,0 2.6,-0.4 3.5,-1.2c0.9,-0.8 1.3,-1.9 1.3,-3.2l-0,-0.8Zm13.4,7.5l-1.1,0c-0.4,0 -0.7,-0.2 -0.9,-0.7l-6,-13.9l-0,-0.2c-0,-0.2 0.1,-0.4 0.2,-0.5c0.1,-0.1 0.3,-0.2 0.5,-0.2l1.1,-0c0.5,-0 0.8,0.2 1,0.7l4.6,10.9l4.6,-10.9c0.2,-0.5 0.5,-0.7 0.9,-0.7l1.2,-0c0.2,-0 0.4,0.1 0.5,0.2c0.1,0.1 0.2,0.3 0.2,0.5l-0,0.2l-6,13.9c-0.1,0.4 -0.4,0.7 -0.8,0.7Zm12.8,-18.2c-0.2,0.2 -0.3,0.2 -0.6,0.2l-1.6,-0c-0.2,-0 -0.4,-0.1 -0.6,-0.2c-0.2,-0.2 -0.2,-0.3 -0.2,-0.6l-0,-1.7c-0,-0.2 0.1,-0.4 0.2,-0.6c0.2,-0.2 0.3,-0.2 0.6,-0.2l1.7,-0c0.2,-0 0.4,0.1 0.6,0.2c0.2,0.2 0.2,0.3 0.2,0.6l-0,1.7c-0,0.2 -0.1,0.4 -0.3,0.6Zm-0.3,17.9c-0.2,0.2 -0.3,0.2 -0.6,0.2l-1.1,-0c-0.2,-0 -0.4,-0.1 -0.6,-0.2c-0.2,-0.2 -0.2,-0.3 -0.2,-0.6l-0,-13.9c-0,-0.2 0.1,-0.4 0.2,-0.6c0.2,-0.2 0.3,-0.2 0.6,-0.2l1.1,-0c0.2,-0 0.4,0.1 0.6,0.2c0.2,0.2 0.2,0.3 0.2,0.6l-0,14c0.1,0.2 -0,0.4 -0.2,0.5Zm15.1,-4.4c0.1,-0.3 0.3,-0.5 0.4,-0.6c0.1,-0.1 0.3,-0.2 0.6,-0.2l0.9,-0c0.2,-0 0.4,0.1 0.6,0.2c0.2,0.1 0.2,0.3 0.2,0.5c-0,0.7 -0.3,1.4 -0.8,2.2c-0.5,0.8 -1.3,1.4 -2.3,2c-1,0.6 -2.2,0.8 -3.6,0.8c-1.4,-0 -2.6,-0.3 -3.7,-0.9c-1,-0.6 -1.8,-1.4 -2.4,-2.5c-0.6,-1 -0.9,-2.2 -0.9,-3.5l-0,-2.4c0.2,-2 0.9,-3.7 2.1,-5c1.2,-1.3 2.8,-1.9 4.9,-1.9c1.4,-0 2.6,0.3 3.6,0.8c1,0.5 1.8,1.2 2.3,1.9c0.5,0.8 0.8,1.5 0.9,2.2c-0,0.2 -0.1,0.4 -0.2,0.6c-0.2,0.2 -0.4,0.2 -0.6,0.2l-1,-0c-0.2,-0 -0.4,-0.1 -0.6,-0.2c-0.1,-0.1 -0.3,-0.3 -0.4,-0.6c-0.7,-1.6 -2,-2.3 -4,-2.3c-1.1,-0 -2.1,0.4 -2.9,1.1c-0.8,0.7 -1.3,1.9 -1.4,3.4l-0,2.1c0.1,1.5 0.6,2.6 1.4,3.4c0.8,0.7 1.8,1.1 2.9,1.1c2,-0 3.3,-0.8 4,-2.4Zm15.6,-5.2l-0,-0.4c-0,-1 -0.3,-1.7 -1,-2.3c-0.6,-0.5 -1.5,-0.8 -2.5,-0.8c-0.8,-0 -1.4,0.1 -1.9,0.4c-0.4,0.3 -0.9,0.7 -1.3,1.2c-0.1,0.2 -0.3,0.3 -0.4,0.3c-0.1,0.1 -0.3,0.1 -0.6,0.1l-0.9,-0c-0.2,-0 -0.4,-0.1 -0.6,-0.2c-0.2,-0.2 -0.2,-0.3 -0.2,-0.6c0.1,-0.6 0.4,-1.2 0.9,-1.8c0.5,-0.6 1.2,-1.1 2.1,-1.5c0.9,-0.4 1.8,-0.6 2.8,-0.6c1.9,-0 3.4,0.5 4.5,1.6c1.1,1 1.7,2.5 1.7,4.4l-0,9.3c-0,0.2 -0.1,0.4 -0.2,0.6c-0.2,0.2 -0.3,0.2 -0.6,0.2l-1.1,-0c-0.2,-0 -0.4,-0.1 -0.6,-0.2c-0.2,-0.2 -0.2,-0.3 -0.2,-0.6l-0,-1.2c-0.3,0.7 -1,1.3 -2,1.7c-1,0.4 -2.1,0.6 -3.1,0.6c-1,-0 -1.9,-0.2 -2.7,-0.6c-0.8,-0.4 -1.4,-0.9 -1.8,-1.5c-0.4,-0.6 -0.6,-1.4 -0.6,-2.2c-0,-1.5 0.6,-2.7 1.7,-3.5c1.1,-0.8 2.6,-1.4 4.5,-1.7l4.1,-0.7Zm-0,2.4l-3.5,0.6c-1.3,0.2 -2.3,0.5 -3,1c-0.7,0.4 -1.1,1 -1.1,1.7c-0,0.5 0.2,0.9 0.7,1.3c0.5,0.4 1.2,0.6 2.1,0.6c1.4,-0 2.6,-0.4 3.5,-1.2c0.9,-0.8 1.3,-1.9 1.3,-3.2l-0,-0.8Zm11.5,4.2c0.3,0.5 1,0.7 2,0.7l1.6,-0c0.2,-0 0.4,0.1 0.6,0.2c0.2,0.2 0.2,0.3 0.2,0.6l-0,1c-0,0.2 -0.1,0.4 -0.2,0.6c-0.2,0.2 -0.3,0.2 -0.6,0.2l-1.9,-0c-1.7,-0 -2.9,-0.4 -3.7,-1.3c-0.8,-0.9 -1.2,-2.2 -1.2,-3.9l-0,-7.8l-2.2,-0c-0.2,-0 -0.4,-0.1 -0.6,-0.2c-0.2,-0.2 -0.2,-0.3 -0.2,-0.6l-0,-1c-0,-0.2 0.1,-0.4 0.2,-0.6c0.2,-0.2 0.3,-0.2 0.6,-0.2l2.2,-0l-0,-4.9c-0,-0.2 0.1,-0.4 0.2,-0.6c0.2,-0.2 0.3,-0.2 0.6,-0.2l1.1,-0c0.2,-0 0.4,0.1 0.6,0.2c0.2,0.2 0.2,0.3 0.2,0.6l-0,4.9l3.8,-0c0.2,-0 0.4,0.1 0.6,0.2c0.2,0.2 0.2,0.3 0.2,0.6l-0,1c-0,0.2 -0.1,0.4 -0.2,0.6c-0.2,0.2 -0.3,0.2 -0.6,0.2l-3.8,-0l-0,7.8c-0,0.8 0.2,1.4 0.5,1.9Z"
        style="fill:#424e54;fill-rule:nonzero;" />
    <g id="Fill-1">
        <path id="path-2"
            d="M19.468,12.95c0.524,-0.052 0.919,-0.485 0.935,-0.998l-0,-0.034c-0.007,-1.825 -0.191,-3.658 -0.549,-5.462l-0.149,-0.753c-0.289,-1.456 -1.709,-2.406 -3.167,-2.118c-0.103,0.02 -0.205,0.047 -0.303,0.078c-3.413,1.183 -6.304,3.38 -8.369,6.354c-2.055,2.962 -3.101,6.418 -3.027,9.997l0.017,0.225c0.019,0.129 0.06,0.25 0.125,0.36c0.476,0.82 0.197,1.87 -0.623,2.346c-0.821,0.475 -1.872,0.197 -2.348,-0.623c-0.306,-0.526 -0.497,-1.101 -0.569,-1.708c-0.003,-0.024 -0.006,-0.049 -0.007,-0.073l-0.024,-0.315c-0.002,-0.03 -0.004,-0.059 -0.004,-0.089c-0.101,-4.326 1.157,-8.501 3.637,-12.075c2.486,-3.582 5.971,-6.226 10.076,-7.645c0.01,-0.003 0.029,-0.01 0.038,-0.013c0.232,-0.075 0.472,-0.138 0.714,-0.186c1.606,-0.317 3.24,0.009 4.601,0.919c1.36,0.91 2.285,2.295 2.603,3.899l0.149,0.753c0.475,2.398 0.676,4.842 0.598,7.263c-0.001,0.024 -0.002,0.046 -0.004,0.07l-0.003,0.035c-0.078,1.674 -1.388,3.056 -3.062,3.221c-0.073,0.007 -0.146,0.012 -0.219,0.015c-0.042,0.001 -0.083,0.001 -0.125,-0.001l-0.028,-0.001c-0.278,-0.01 -0.56,-0.013 -0.84,-0.01l-0.653,0.06c-0.032,0.003 -0.064,0.005 -0.097,0.006c-4.754,0.168 -8.704,3.709 -9.39,8.421c-0.312,2.137 0.071,4.263 1.108,6.149c1.004,1.827 2.591,3.315 4.469,4.191l0.523,0.241c1.237,0.494 2.539,0.843 3.871,1.037c5.301,0.771 10.534,-0.941 14.359,-4.697l0.18,-0.185c0.768,-0.803 1.264,-1.82 1.427,-2.935c0.162,-1.115 -0.022,-2.231 -0.534,-3.229l-0.037,-0.071c-1.777,-3.326 -4.642,-5.996 -8.068,-7.52c-0.018,-0.008 -0.035,-0.016 -0.052,-0.024l-0.084,-0.041c-1.073,-0.52 -1.783,-1.539 -1.901,-2.723c-0.03,-0.312 -0.018,-0.626 0.037,-0.933c0.004,-0.022 0.008,-0.044 0.013,-0.066l0.011,-0.051c0.764,-3.493 2.104,-6.819 3.984,-9.881c0.005,-0.008 0.01,-0.016 0.014,-0.024l0.052,-0.08c0.496,-0.791 1.305,-1.349 2.222,-1.53c0.882,-0.175 1.779,0.001 2.529,0.494l0.045,0.028c0.026,0.017 0.052,0.034 0.077,0.052c4.27,3.031 7.181,7.528 8.199,12.662c0.309,1.559 0.436,3.148 0.379,4.722l-0.002,0.055c-0.001,0.033 -0.004,0.065 -0.007,0.098c-0.075,0.786 -0.36,1.541 -0.826,2.183c-0.556,0.768 -1.63,0.939 -2.398,0.383c-0.769,-0.555 -0.941,-1.628 -0.384,-2.396c0.099,-0.137 0.162,-0.295 0.184,-0.46c0.047,-1.303 -0.059,-2.622 -0.316,-3.918c-0.766,-3.867 -2.824,-7.299 -5.842,-9.784l-0.023,-0.019c-0.204,-0.16 -0.467,-0.244 -0.745,-0.217c-0.348,0.034 -0.638,0.236 -0.8,0.518l-0.016,0.027c-1.233,2.204 -2.164,4.546 -2.775,6.988l-0.004,0.027c-0.018,0.094 -0.022,0.192 -0.013,0.293c0.036,0.357 0.249,0.655 0.545,0.813c0.01,0.005 0.02,0.01 0.03,0.015l0.02,0.009c3.79,1.88 6.949,4.942 8.952,8.697c0.005,0.008 0.009,0.016 0.013,0.024l0.044,0.085c0.839,1.635 1.142,3.464 0.876,5.288c-0.266,1.825 -1.079,3.493 -2.352,4.821l-0.201,0.208c-0.009,0.009 -0.019,0.019 -0.028,0.028c-2.199,2.164 -4.903,3.828 -7.82,4.812c-2.108,0.711 -4.276,1.068 -6.472,1.068c-0.99,-0 -1.987,-0.073 -2.987,-0.218c-1.616,-0.235 -3.196,-0.661 -4.698,-1.265c-0.026,-0.01 -0.052,-0.021 -0.078,-0.033l-0.569,-0.263c-2.541,-1.185 -4.682,-3.191 -6.034,-5.652c-1.399,-2.546 -1.917,-5.414 -1.497,-8.295c0.924,-6.338 6.227,-11.105 12.619,-11.355l0.672,-0.061c0.043,-0.004 0.086,-0.007 0.129,-0.007l0.047,-0.001Z" />
        <path id="path-21" serif:id="path-2"
            d="M19.468,12.95c0.524,-0.052 0.919,-0.485 0.935,-0.998l-0,-0.034c-0.007,-1.825 -0.191,-3.658 -0.549,-5.462l-0.149,-0.753c-0.289,-1.456 -1.709,-2.406 -3.167,-2.118c-0.103,0.02 -0.205,0.047 -0.303,0.078c-3.413,1.183 -6.304,3.38 -8.369,6.354c-2.055,2.962 -3.101,6.418 -3.027,9.997l0.017,0.225c0.019,0.129 0.06,0.25 0.125,0.36c0.476,0.82 0.197,1.87 -0.623,2.346c-0.821,0.475 -1.872,0.197 -2.348,-0.623c-0.306,-0.526 -0.497,-1.101 -0.569,-1.708c-0.003,-0.024 -0.006,-0.049 -0.007,-0.073l-0.024,-0.315c-0.002,-0.03 -0.004,-0.059 -0.004,-0.089c-0.101,-4.326 1.157,-8.501 3.637,-12.075c2.486,-3.582 5.971,-6.226 10.076,-7.645c0.01,-0.003 0.029,-0.01 0.038,-0.013c0.232,-0.075 0.472,-0.138 0.714,-0.186c1.606,-0.317 3.24,0.009 4.601,0.919c1.36,0.91 2.285,2.295 2.603,3.899l0.149,0.753c0.475,2.398 0.676,4.842 0.598,7.263c-0.001,0.024 -0.002,0.046 -0.004,0.07l-0.003,0.035c-0.078,1.674 -1.388,3.056 -3.062,3.221c-0.073,0.007 -0.146,0.012 -0.219,0.015c-0.042,0.001 -0.083,0.001 -0.125,-0.001l-0.028,-0.001c-0.278,-0.01 -0.56,-0.013 -0.84,-0.01l-0.653,0.06c-0.032,0.003 -0.064,0.005 -0.097,0.006c-4.754,0.168 -8.704,3.709 -9.39,8.421c-0.312,2.137 0.071,4.263 1.108,6.149c1.004,1.827 2.591,3.315 4.469,4.191l0.523,0.241c1.237,0.494 2.539,0.843 3.871,1.037c5.301,0.771 10.534,-0.941 14.359,-4.697l0.18,-0.185c0.768,-0.803 1.264,-1.82 1.427,-2.935c0.162,-1.115 -0.022,-2.231 -0.534,-3.229l-0.037,-0.071c-1.777,-3.326 -4.642,-5.996 -8.068,-7.52c-0.018,-0.008 -0.035,-0.016 -0.052,-0.024l-0.084,-0.041c-1.073,-0.52 -1.783,-1.539 -1.901,-2.723c-0.03,-0.312 -0.018,-0.626 0.037,-0.933c0.004,-0.022 0.008,-0.044 0.013,-0.066l0.011,-0.051c0.764,-3.493 2.104,-6.819 3.984,-9.881c0.005,-0.008 0.01,-0.016 0.014,-0.024l0.052,-0.08c0.496,-0.791 1.305,-1.349 2.222,-1.53c0.882,-0.175 1.779,0.001 2.529,0.494l0.045,0.028c0.026,0.017 0.052,0.034 0.077,0.052c4.27,3.031 7.181,7.528 8.199,12.662c0.309,1.559 0.436,3.148 0.379,4.722l-0.002,0.055c-0.001,0.033 -0.004,0.065 -0.007,0.098c-0.075,0.786 -0.36,1.541 -0.826,2.183c-0.556,0.768 -1.63,0.939 -2.398,0.383c-0.769,-0.555 -0.941,-1.628 -0.384,-2.396c0.099,-0.137 0.162,-0.295 0.184,-0.46c0.047,-1.303 -0.059,-2.622 -0.316,-3.918c-0.766,-3.867 -2.824,-7.299 -5.842,-9.784l-0.023,-0.019c-0.204,-0.16 -0.467,-0.244 -0.745,-0.217c-0.348,0.034 -0.638,0.236 -0.8,0.518l-0.016,0.027c-1.233,2.204 -2.164,4.546 -2.775,6.988l-0.004,0.027c-0.018,0.094 -0.022,0.192 -0.013,0.293c0.036,0.357 0.249,0.655 0.545,0.813c0.01,0.005 0.02,0.01 0.03,0.015l0.02,0.009c3.79,1.88 6.949,4.942 8.952,8.697c0.005,0.008 0.009,0.016 0.013,0.024l0.044,0.085c0.839,1.635 1.142,3.464 0.876,5.288c-0.266,1.825 -1.079,3.493 -2.352,4.821l-0.201,0.208c-0.009,0.009 -0.019,0.019 -0.028,0.028c-2.199,2.164 -4.903,3.828 -7.82,4.812c-2.108,0.711 -4.276,1.068 -6.472,1.068c-0.99,-0 -1.987,-0.073 -2.987,-0.218c-1.616,-0.235 -3.196,-0.661 -4.698,-1.265c-0.026,-0.01 -0.052,-0.021 -0.078,-0.033l-0.569,-0.263c-2.541,-1.185 -4.682,-3.191 -6.034,-5.652c-1.399,-2.546 -1.917,-5.414 -1.497,-8.295c0.924,-6.338 6.227,-11.105 12.619,-11.355l0.672,-0.061c0.043,-0.004 0.086,-0.007 0.129,-0.007l0.047,-0.001Z"
            style="fill:url(#_Linear1);" />
    </g>
    <defs>
        <linearGradient id="_Linear1" x1="0" y1="0" x2="1" y2="0" gradientUnits="userSpaceOnUse"
            gradientTransform="matrix(20.0386,38.3765,-38.3765,20.0386,12.3429,0.911736)">
            <stop offset="0" style="stop-color:#dbbb42;stop-opacity:1" />
            <stop offset="0.38" style="stop-color:#f8d957;stop-opacity:1" />
            <stop offset="0.5" style="stop-color:#ffe36c;stop-opacity:1" />
            <stop offset="0.67" style="stop-color:#f5cc52;stop-opacity:1" />
            <stop offset="1" style="stop-color:#c89225;stop-opacity:1" />
        </linearGradient>
    </defs>
</svg>