<svg width="100%" height="100%" viewBox="0 0 160 80" xmlns="http://www.w3.org/2000/svg" xml:space="preserve"
    style="fill-rule:evenodd;clip-rule:evenodd;stroke-linejoin:round;stroke-miterlimit:2">
    <path
        d="M160 12v56c0 6.623-5.377 12-12 12H12C5.377 80 0 74.623 0 68V12C0 5.377 5.377 0 12 0h136c6.623 0 12 5.377 12 12Z"
        style="fill:#f2f2f2" />
    <path
        d="M66 31.4c-.2-.2-.4-.4-.5-.7L55.8 16v14.9c0 .2-.1.4-.2.6-.2.2-.3.2-.6.2h-1.2c-.2 0-.4-.1-.6-.2-.2-.2-.2-.3-.2-.6V11.5c0-.2.1-.4.2-.6.2-.2.3-.2.6-.2h1c.3 0 .5.1.7.2.2.2.4.4.5.7l9.6 14.6V11.5c0-.2.1-.4.2-.6.2-.2.3-.2.6-.2h1.2c.2 0 .4.1.6.2.2.2.2.3.2.6v19.4c0 .2-.1.4-.2.6-.2.2-.3.2-.6.2h-1c-.2 0-.4-.1-.6-.3Zm16.6-9.6v-.4c0-1-.3-1.7-1-2.3-.6-.5-1.5-.8-2.5-.8-.8 0-1.4.1-1.9.4-.4.3-.9.7-1.3 1.2-.1.2-.3.3-.4.3-.1.1-.3.1-.6.1H74c-.2 0-.4-.1-.6-.2-.2-.2-.2-.3-.2-.6.1-.6.4-1.2.9-1.8.5-.6 1.2-1.1 2.1-1.5.9-.4 1.8-.6 2.8-.6 1.9 0 3.4.5 4.5 1.6 1.1 1 1.7 2.5 1.7 4.4v9.3c0 .2-.1.4-.2.6-.2.2-.3.2-.6.2h-1.1c-.2 0-.4-.1-.6-.2 0-.2-.1-.4-.1-.6v-1.2c-.3.7-1 1.3-2 1.7-1 .4-2.1.6-3.1.6s-1.9-.2-2.7-.6c-.8-.4-1.4-.9-1.8-1.5-.4-.6-.6-1.4-.6-2.2 0-1.5.6-2.7 1.7-3.5 1.1-.8 2.6-1.4 4.5-1.7l4-.7Zm0 2.4-3.5.6c-1.3.2-2.3.5-3 1-.7.4-1.1 1-1.1 1.7 0 .5.2.9.7 1.3.5.4 1.2.6 2.1.6 1.4 0 2.6-.4 3.5-1.2.9-.8 1.3-1.9 1.3-3.2v-.8ZM96 31.7h-1.1c-.4 0-.7-.2-.9-.7l-6-13.9v-.2c0-.2.1-.4.2-.5.1-.1.3-.2.5-.2h1.1c.5 0 .8.2 1 .7l4.6 10.9 4.6-10.9c.2-.5.5-.7.9-.7h1.2c.2 0 .4.1.5.2.1.1.2.3.2.5v.2l-6 13.9c-.1.4-.4.7-.8.7Zm12.8-18.2c-.2.2-.3.2-.6.2h-1.6c-.2 0-.4-.1-.6-.2-.2-.2-.2-.3-.2-.6v-1.7c0-.2.1-.4.2-.6.2-.2.3-.2.6-.2h1.7c.2 0 .4.1.6.2.2.2.2.3.2.6v1.7c0 .2-.1.4-.3.6Zm-.3 17.9c-.2.2-.3.2-.6.2h-1.1c-.2 0-.4-.1-.6-.2-.2-.2-.2-.3-.2-.6V16.9c0-.2.1-.4.2-.6.2-.2.3-.2.6-.2h1.1c.2 0 .4.1.6.2.2.2.2.3.2.6v14c.1.2 0 .4-.2.5Zm15.1-4.4c.1-.3.3-.5.4-.6.1-.1.3-.2.6-.2h.9c.2 0 .4.1.6.2.2.1.2.3.2.5 0 .7-.3 1.4-.8 2.2-.5.8-1.3 1.4-2.3 2-1 .6-2.2.8-3.6.8s-2.6-.3-3.7-.9c-1-.6-1.8-1.4-2.4-2.5-.6-1-.9-2.2-.9-3.5v-2.4c.2-2 .9-3.7 2.1-5 1.2-1.3 2.8-1.9 4.9-1.9 1.4 0 2.6.3 3.6.8s1.8 1.2 2.3 1.9c.5.8.8 1.5.9 2.2 0 .2-.1.4-.2.6-.2.2-.4.2-.6.2h-1c-.2 0-.4-.1-.6-.2-.1-.1-.3-.3-.4-.6-.7-1.6-2-2.3-4-2.3-1.1 0-2.1.4-2.9 1.1-.8.7-1.3 1.9-1.4 3.4v2.1c.1 1.5.6 2.6 1.4 3.4.8.7 1.8 1.1 2.9 1.1 2 0 3.3-.8 4-2.4Zm15.6-5.2v-.4c0-1-.3-1.7-1-2.3-.6-.5-1.5-.8-2.5-.8-.8 0-1.4.1-1.9.4-.4.3-.9.7-1.3 1.2-.1.2-.3.3-.4.3-.1.1-.3.1-.6.1h-.9c-.2 0-.4-.1-.6-.2-.2-.2-.2-.3-.2-.6.1-.6.4-1.2.9-1.8.5-.6 1.2-1.1 2.1-1.5.9-.4 1.8-.6 2.8-.6 1.9 0 3.4.5 4.5 1.6 1.1 1 1.7 2.5 1.7 4.4v9.3c0 .2-.1.4-.2.6-.2.2-.3.2-.6.2h-1.1c-.2 0-.4-.1-.6-.2-.2-.2-.2-.3-.2-.6v-1.2c-.3.7-1 1.3-2 1.7-1 .4-2.1.6-3.1.6s-1.9-.2-2.7-.6c-.8-.4-1.4-.9-1.8-1.5-.4-.6-.6-1.4-.6-2.2 0-1.5.6-2.7 1.7-3.5 1.1-.8 2.6-1.4 4.5-1.7l4.1-.7Zm0 2.4-3.5.6c-1.3.2-2.3.5-3 1-.7.4-1.1 1-1.1 1.7 0 .5.2.9.7 1.3.5.4 1.2.6 2.1.6 1.4 0 2.6-.4 3.5-1.2.9-.8 1.3-1.9 1.3-3.2v-.8Zm11.5 4.2c.3.5 1 .7 2 .7h1.6c.2 0 .4.1.6.2.2.2.2.3.2.6v1c0 .2-.1.4-.2.6-.2.2-.3.2-.6.2h-1.9c-1.7 0-2.9-.4-3.7-1.3-.8-.9-1.2-2.2-1.2-3.9v-7.8h-2.2c-.2 0-.4-.1-.6-.2-.2-.2-.2-.3-.2-.6v-1c0-.2.1-.4.2-.6.2-.2.3-.2.6-.2h2.2v-4.9c0-.2.1-.4.2-.6.2-.2.3-.2.6-.2h1.1c.2 0 .4.1.6.2.2.2.2.3.2.6v4.9h3.8c.2 0 .4.1.6.2.2.2.2.3.2.6v1c0 .2-.1.4-.2.6-.2.2-.3.2-.6.2h-3.8v7.8c0 .8.2 1.4.5 1.9Z"
        style="fill:#424e54;fill-rule:nonzero" transform="translate(2 20)" />
    <path
        d="M21.468 32.95c.524-.052.919-.485.935-.998v-.034a28.656 28.656 0 0 0-.549-5.462l-.149-.753a2.698 2.698 0 0 0-3.47-2.04 16.84 16.84 0 0 0-8.369 6.354 16.824 16.824 0 0 0-3.027 9.997l.017.225c.019.129.06.25.125.36a1.716 1.716 0 1 1-2.971 1.723 4.41 4.41 0 0 1-.576-1.781l-.024-.315c-.002-.03-.004-.059-.004-.089a20.224 20.224 0 0 1 3.637-12.075 20.243 20.243 0 0 1 10.076-7.645l.038-.013a6.1 6.1 0 0 1 5.315.733 6.086 6.086 0 0 1 2.603 3.899l.149.753a32.115 32.115 0 0 1 .594 7.333l-.003.035a3.41 3.41 0 0 1-3.281 3.236 1.737 1.737 0 0 1-.125-.001l-.028-.001c-.278-.01-.56-.013-.84-.01l-.653.06a1.53 1.53 0 0 1-.097.006 9.838 9.838 0 0 0-9.39 8.421 9.74 9.74 0 0 0 1.108 6.149 9.93 9.93 0 0 0 4.469 4.191l.523.241c1.237.494 2.539.843 3.871 1.037 5.301.771 10.534-.941 14.359-4.697l.18-.185a5.344 5.344 0 0 0 1.427-2.935 5.348 5.348 0 0 0-.534-3.229l-.037-.071a17.059 17.059 0 0 0-8.068-7.52l-.052-.024-.084-.041a3.379 3.379 0 0 1-1.901-2.723 3.43 3.43 0 0 1 .05-.999l.011-.051a31.854 31.854 0 0 1 3.984-9.881l.014-.024.052-.08a3.412 3.412 0 0 1 2.222-1.53 3.378 3.378 0 0 1 2.529.494l.045.028.077.052a20.312 20.312 0 0 1 8.199 12.662c.309 1.559.436 3.148.379 4.722l-.002.055c-.001.033-.004.065-.007.098a4.436 4.436 0 0 1-.826 2.183 1.717 1.717 0 0 1-2.782-2.013c.099-.137.162-.295.184-.46a17.022 17.022 0 0 0-.316-3.918 16.879 16.879 0 0 0-5.842-9.784l-.023-.019a1.04 1.04 0 0 0-1.545.301l-.016.027a28.423 28.423 0 0 0-2.775 6.988l-.004.027a1.038 1.038 0 0 0 .532 1.106l.03.015.02.009a20.534 20.534 0 0 1 8.965 8.721l.044.085a8.753 8.753 0 0 1 .876 5.288 8.752 8.752 0 0 1-2.352 4.821l-.201.208-.028.028a20.605 20.605 0 0 1-7.82 4.812 20.17 20.17 0 0 1-6.472 1.068c-.99 0-1.987-.073-2.987-.218a20.517 20.517 0 0 1-4.776-1.298l-.569-.263a13.39 13.39 0 0 1-6.034-5.652 13.151 13.151 0 0 1-1.497-8.295A13.273 13.273 0 0 1 20.62 33.019l.672-.061c.043-.004.086-.007.129-.007l.047-.001Z" />
    <path
        d="M19.468 12.95c.524-.052.919-.485.935-.998v-.034a28.656 28.656 0 0 0-.549-5.462l-.149-.753a2.698 2.698 0 0 0-3.47-2.04 16.84 16.84 0 0 0-8.369 6.354 16.824 16.824 0 0 0-3.027 9.997l.017.225c.019.129.06.25.125.36a1.716 1.716 0 1 1-2.971 1.723 4.41 4.41 0 0 1-.576-1.781l-.024-.315c-.002-.03-.004-.059-.004-.089A20.224 20.224 0 0 1 5.043 8.062 20.243 20.243 0 0 1 15.119.417l.038-.013a6.1 6.1 0 0 1 5.315.733 6.086 6.086 0 0 1 2.603 3.899l.149.753a32.115 32.115 0 0 1 .594 7.333l-.003.035a3.41 3.41 0 0 1-3.281 3.236 1.737 1.737 0 0 1-.125-.001l-.028-.001c-.278-.01-.56-.013-.84-.01l-.653.06a1.53 1.53 0 0 1-.097.006 9.838 9.838 0 0 0-9.39 8.421 9.74 9.74 0 0 0 1.108 6.149 9.93 9.93 0 0 0 4.469 4.191l.523.241c1.237.494 2.539.843 3.871 1.037 5.301.771 10.534-.941 14.359-4.697l.18-.185a5.344 5.344 0 0 0 1.427-2.935 5.348 5.348 0 0 0-.534-3.229l-.037-.071a17.059 17.059 0 0 0-8.068-7.52l-.052-.024-.084-.041a3.379 3.379 0 0 1-1.901-2.723 3.43 3.43 0 0 1 .05-.999l.011-.051a31.854 31.854 0 0 1 3.998-9.905l.052-.08a3.412 3.412 0 0 1 2.222-1.53 3.378 3.378 0 0 1 2.529.494l.045.028.077.052a20.312 20.312 0 0 1 8.199 12.662c.309 1.559.436 3.148.379 4.722l-.002.055c-.001.033-.004.065-.007.098a4.436 4.436 0 0 1-.826 2.183 1.717 1.717 0 0 1-2.782-2.013c.099-.137.162-.295.184-.46a17.022 17.022 0 0 0-.316-3.918 16.879 16.879 0 0 0-5.842-9.784l-.023-.019a1.04 1.04 0 0 0-1.545.301l-.016.027a28.423 28.423 0 0 0-2.775 6.988l-.004.027a1.038 1.038 0 0 0 .532 1.106l.03.015.02.009a20.534 20.534 0 0 1 8.965 8.721l.044.085a8.753 8.753 0 0 1 .876 5.288 8.752 8.752 0 0 1-2.352 4.821l-.201.208-.028.028a20.605 20.605 0 0 1-7.82 4.812 20.17 20.17 0 0 1-6.472 1.068c-.99 0-1.987-.073-2.987-.218a20.517 20.517 0 0 1-4.776-1.298l-.569-.263a13.39 13.39 0 0 1-6.034-5.652 13.151 13.151 0 0 1-1.497-8.295A13.273 13.273 0 0 1 18.62 13.019l.672-.061c.043-.004.086-.007.129-.007l.047-.001Z"
        style="fill:url(#a)" transform="translate(2 20)" />
    <defs>
        <linearGradient id="a" x1="0" y1="0" x2="1" y2="0" gradientUnits="userSpaceOnUse"
            gradientTransform="rotate(62.428 5.42 10.64) scale(43.2932)">
            <stop offset="0" style="stop-color:#dbbb42;stop-opacity:1" />
            <stop offset=".38" style="stop-color:#f8d957;stop-opacity:1" />
            <stop offset=".5" style="stop-color:#ffe36c;stop-opacity:1" />
            <stop offset=".67" style="stop-color:#f5cc52;stop-opacity:1" />
            <stop offset="1" style="stop-color:#c89225;stop-opacity:1" />
        </linearGradient>
    </defs>
</svg>