<svg width="100%" height="100%" viewBox="0 0 156 40" version="1.1"
    xmlns="http://www.w3.org/2000/svg"
    xmlns:xlink="http://www.w3.org/1999/xlink" xml:space="preserve"
    xmlns:serif="http://www.serif.com/"
    style="fill-rule:evenodd;clip-rule:evenodd;stroke-linejoin:round;stroke-miterlimit:2;">
    <g transform="matrix(1,0,0,1,-0.4,-0.1)">
        <path
            d="M66.4,31.5C66.2,31.3 66,31.1 65.9,30.8L56.2,16.1L56.2,31C56.2,31.2 56.1,31.4 56,31.6C55.8,31.8 55.7,31.8 55.4,31.8L54.2,31.8C54,31.8 53.8,31.7 53.6,31.6C53.4,31.4 53.4,31.3 53.4,31L53.4,11.6C53.4,11.4 53.5,11.2 53.6,11C53.8,10.8 53.9,10.8 54.2,10.8L55.2,10.8C55.5,10.8 55.7,10.9 55.9,11C56.1,11.2 56.3,11.4 56.4,11.7L66,26.3L66,11.6C66,11.4 66.1,11.2 66.2,11C66.4,10.8 66.5,10.8 66.8,10.8L68,10.8C68.2,10.8 68.4,10.9 68.6,11C68.8,11.2 68.8,11.3 68.8,11.6L68.8,31C68.8,31.2 68.7,31.4 68.6,31.6C68.4,31.8 68.3,31.8 68,31.8L67,31.8C66.8,31.8 66.6,31.7 66.4,31.5ZM83,21.9L83,21.5C83,20.5 82.7,19.8 82,19.2C81.4,18.7 80.5,18.4 79.5,18.4C78.7,18.4 78.1,18.5 77.6,18.8C77.2,19.1 76.7,19.5 76.3,20C76.2,20.2 76,20.3 75.9,20.3C75.8,20.4 75.6,20.4 75.3,20.4L74.4,20.4C74.2,20.4 74,20.3 73.8,20.2C73.6,20 73.6,19.9 73.6,19.6C73.7,19 74,18.4 74.5,17.8C75,17.2 75.7,16.7 76.6,16.3C77.5,15.9 78.4,15.7 79.4,15.7C81.3,15.7 82.8,16.2 83.9,17.3C85,18.3 85.6,19.8 85.6,21.7L85.6,31C85.6,31.2 85.5,31.4 85.4,31.6C85.2,31.8 85.1,31.8 84.8,31.8L83.7,31.8C83.5,31.8 83.3,31.7 83.1,31.6C83.1,31.4 83,31.2 83,31L83,29.8C82.7,30.5 82,31.1 81,31.5C80,31.9 78.9,32.1 77.9,32.1C76.9,32.1 76,31.9 75.2,31.5C74.4,31.1 73.8,30.6 73.4,30C73,29.4 72.8,28.6 72.8,27.8C72.8,26.3 73.4,25.1 74.5,24.3C75.6,23.5 77.1,22.9 79,22.6L83,21.9ZM83,24.3L79.5,24.9C78.2,25.1 77.2,25.4 76.5,25.9C75.8,26.3 75.4,26.9 75.4,27.6C75.4,28.1 75.6,28.5 76.1,28.9C76.6,29.3 77.3,29.5 78.2,29.5C79.6,29.5 80.8,29.1 81.7,28.3C82.6,27.5 83,26.4 83,25.1L83,24.3ZM96.4,31.8L95.3,31.8C94.9,31.8 94.6,31.6 94.4,31.1L88.4,17.2L88.4,17C88.4,16.8 88.5,16.6 88.6,16.5C88.7,16.4 88.9,16.3 89.1,16.3L90.2,16.3C90.7,16.3 91,16.5 91.2,17L95.8,27.9L100.4,17C100.6,16.5 100.9,16.3 101.3,16.3L102.5,16.3C102.7,16.3 102.9,16.4 103,16.5C103.1,16.6 103.2,16.8 103.2,17L103.2,17.2L97.2,31.1C97.1,31.5 96.8,31.8 96.4,31.8ZM109.2,13.6C109,13.8 108.9,13.8 108.6,13.8L107,13.8C106.8,13.8 106.6,13.7 106.4,13.6C106.2,13.4 106.2,13.3 106.2,13L106.2,11.3C106.2,11.1 106.3,10.9 106.4,10.7C106.6,10.5 106.7,10.5 107,10.5L108.7,10.5C108.9,10.5 109.1,10.6 109.3,10.7C109.5,10.9 109.5,11 109.5,11.3L109.5,13C109.5,13.2 109.4,13.4 109.2,13.6ZM108.9,31.5C108.7,31.7 108.6,31.7 108.3,31.7L107.2,31.7C107,31.7 106.8,31.6 106.6,31.5C106.4,31.3 106.4,31.2 106.4,30.9L106.4,17C106.4,16.8 106.5,16.6 106.6,16.4C106.8,16.2 106.9,16.2 107.2,16.2L108.3,16.2C108.5,16.2 108.7,16.3 108.9,16.4C109.1,16.6 109.1,16.7 109.1,17L109.1,31C109.2,31.2 109.1,31.4 108.9,31.5ZM124,27.1C124.1,26.8 124.3,26.6 124.4,26.5C124.5,26.4 124.7,26.3 125,26.3L125.9,26.3C126.1,26.3 126.3,26.4 126.5,26.5C126.7,26.6 126.7,26.8 126.7,27C126.7,27.7 126.4,28.4 125.9,29.2C125.4,30 124.6,30.6 123.6,31.2C122.6,31.8 121.4,32 120,32C118.6,32 117.4,31.7 116.3,31.1C115.3,30.5 114.5,29.7 113.9,28.6C113.3,27.6 113,26.4 113,25.1L113,22.7C113.2,20.7 113.9,19 115.1,17.7C116.3,16.4 117.9,15.8 120,15.8C121.4,15.8 122.6,16.1 123.6,16.6C124.6,17.1 125.4,17.8 125.9,18.5C126.4,19.3 126.7,20 126.8,20.7C126.8,20.9 126.7,21.1 126.6,21.3C126.4,21.5 126.2,21.5 126,21.5L125,21.5C124.8,21.5 124.6,21.4 124.4,21.3C124.3,21.2 124.1,21 124,20.7C123.3,19.1 122,18.4 120,18.4C118.9,18.4 117.9,18.8 117.1,19.5C116.3,20.2 115.8,21.4 115.7,22.9L115.7,25C115.8,26.5 116.3,27.6 117.1,28.4C117.9,29.1 118.9,29.5 120,29.5C122,29.5 123.3,28.7 124,27.1ZM139.6,21.9L139.6,21.5C139.6,20.5 139.3,19.8 138.6,19.2C138,18.7 137.1,18.4 136.1,18.4C135.3,18.4 134.7,18.5 134.2,18.8C133.8,19.1 133.3,19.5 132.9,20C132.8,20.2 132.6,20.3 132.5,20.3C132.4,20.4 132.2,20.4 131.9,20.4L131,20.4C130.8,20.4 130.6,20.3 130.4,20.2C130.2,20 130.2,19.9 130.2,19.6C130.3,19 130.6,18.4 131.1,17.8C131.6,17.2 132.3,16.7 133.2,16.3C134.1,15.9 135,15.7 136,15.7C137.9,15.7 139.4,16.2 140.5,17.3C141.6,18.3 142.2,19.8 142.2,21.7L142.2,31C142.2,31.2 142.1,31.4 142,31.6C141.8,31.8 141.7,31.8 141.4,31.8L140.3,31.8C140.1,31.8 139.9,31.7 139.7,31.6C139.5,31.4 139.5,31.3 139.5,31L139.5,29.8C139.2,30.5 138.5,31.1 137.5,31.5C136.5,31.9 135.4,32.1 134.4,32.1C133.4,32.1 132.5,31.9 131.7,31.5C130.9,31.1 130.3,30.6 129.9,30C129.5,29.4 129.3,28.6 129.3,27.8C129.3,26.3 129.9,25.1 131,24.3C132.1,23.5 133.6,22.9 135.5,22.6L139.6,21.9ZM139.6,24.3L136.1,24.9C134.8,25.1 133.8,25.4 133.1,25.9C132.4,26.3 132,26.9 132,27.6C132,28.1 132.2,28.5 132.7,28.9C133.2,29.3 133.9,29.5 134.8,29.5C136.2,29.5 137.4,29.1 138.3,28.3C139.2,27.5 139.6,26.4 139.6,25.1L139.6,24.3ZM151.1,28.5C151.4,29 152.1,29.2 153.1,29.2L154.7,29.2C154.9,29.2 155.1,29.3 155.3,29.4C155.5,29.6 155.5,29.7 155.5,30L155.5,31C155.5,31.2 155.4,31.4 155.3,31.6C155.1,31.8 155,31.8 154.7,31.8L152.8,31.8C151.1,31.8 149.9,31.4 149.1,30.5C148.3,29.6 147.9,28.3 147.9,26.6L147.9,18.8L145.7,18.8C145.5,18.8 145.3,18.7 145.1,18.6C144.9,18.4 144.9,18.3 144.9,18L144.9,17C144.9,16.8 145,16.6 145.1,16.4C145.3,16.2 145.4,16.2 145.7,16.2L147.9,16.2L147.9,11.3C147.9,11.1 148,10.9 148.1,10.7C148.3,10.5 148.4,10.5 148.7,10.5L149.8,10.5C150,10.5 150.2,10.6 150.4,10.7C150.6,10.9 150.6,11 150.6,11.3L150.6,16.2L154.4,16.2C154.6,16.2 154.8,16.3 155,16.4C155.2,16.6 155.2,16.7 155.2,17L155.2,18C155.2,18.2 155.1,18.4 155,18.6C154.8,18.8 154.7,18.8 154.4,18.8L150.6,18.8L150.6,26.6C150.6,27.4 150.8,28 151.1,28.5Z"
            style="fill:rgb(72,84,90);fill-rule:nonzero;" />
    </g>
    <g id="Fill-1" transform="matrix(0.167366,0,0,0.167366,0.395803,-1.4063)">
        <path id="path-2"
            d="M113.953,85.777C117.087,85.468 119.444,82.879 119.542,79.817L119.541,79.61C119.498,68.707 118.399,57.757 116.262,46.974L115.371,42.477C113.646,33.776 105.157,28.099 96.448,29.822C95.834,29.944 95.225,30.101 94.638,30.288C74.246,37.36 56.972,50.482 44.635,68.256C32.355,85.949 26.103,106.599 26.547,127.987L26.648,129.328C26.76,130.097 27.01,130.821 27.394,131.48C30.24,136.378 28.573,142.652 23.671,145.495C18.77,148.338 12.489,146.672 9.643,141.775C7.817,138.631 6.673,135.198 6.243,131.569C6.226,131.424 6.212,131.279 6.201,131.133L6.06,129.25C6.046,129.074 6.038,128.898 6.034,128.721C5.432,102.874 12.947,77.925 27.768,56.572C42.623,35.17 63.44,19.375 87.97,10.895C88.029,10.875 88.141,10.837 88.2,10.817C89.586,10.366 91.02,9.993 92.461,9.708C102.06,7.81 111.821,9.758 119.951,15.195C128.081,20.632 133.605,28.907 135.505,38.495L136.396,42.991C139.235,57.32 140.438,71.921 139.969,86.39C139.964,86.528 139.957,86.665 139.947,86.804L139.931,87.017C139.463,97.019 131.634,105.272 121.631,106.259C121.197,106.303 120.758,106.332 120.322,106.347C120.075,106.355 119.827,106.354 119.579,106.345L119.409,106.338C117.751,106.277 116.062,106.257 114.392,106.278L110.49,106.637C110.298,106.655 110.105,106.667 109.911,106.674C81.504,107.674 57.907,128.835 53.803,156.99C51.943,169.754 54.232,182.458 60.426,193.728C66.423,204.642 75.906,213.536 87.128,218.769L90.251,220.21C97.643,223.162 105.424,225.245 113.384,226.403C145.056,231.011 176.32,220.784 199.176,198.341L200.249,197.234C204.842,192.438 207.806,186.358 208.777,179.696C209.748,173.038 208.644,166.368 205.584,160.407L205.364,159.978C194.746,140.11 177.628,124.155 157.157,115.047C157.054,115.001 156.951,114.954 156.85,114.905L156.346,114.66C149.935,111.551 145.691,105.468 144.99,98.39C144.807,96.525 144.879,94.651 145.208,92.817C145.231,92.684 145.257,92.552 145.286,92.421L145.353,92.118C149.918,71.244 157.927,51.377 169.156,33.078C169.185,33.031 169.215,32.984 169.244,32.937L169.551,32.456C172.515,27.729 177.35,24.399 182.827,23.315C188.096,22.271 193.458,23.322 197.941,26.27L198.206,26.437C198.363,26.536 198.518,26.639 198.669,26.747C224.179,44.855 241.576,71.723 247.656,102.403C249.502,111.715 250.264,121.207 249.92,130.615L249.907,130.945C249.9,131.139 249.887,131.332 249.869,131.525C249.42,136.223 247.713,140.735 244.932,144.571C241.608,149.157 235.191,150.182 230.601,146.862C226.01,143.541 224.984,137.131 228.308,132.545C228.901,131.727 229.28,130.781 229.411,129.797C229.692,122.009 229.057,114.127 227.522,106.386C222.943,83.281 210.649,62.776 192.616,47.926L192.475,47.816C191.26,46.86 189.687,46.353 188.027,46.517C185.949,46.722 184.212,47.929 183.249,49.613L183.15,49.774C175.781,62.939 170.222,76.937 166.57,91.527L166.546,91.686C166.441,92.249 166.412,92.836 166.471,93.435C166.683,95.573 167.959,97.35 169.723,98.293C169.782,98.324 169.842,98.355 169.902,98.384L170.021,98.438C192.67,109.67 211.546,127.966 223.514,150.403C223.54,150.452 223.565,150.5 223.59,150.548L223.849,151.052C228.865,160.825 230.677,171.753 229.088,182.651C227.498,193.556 222.639,203.517 215.035,211.456L213.833,212.696C213.777,212.754 213.721,212.81 213.663,212.866C200.526,225.795 184.371,235.736 166.943,241.614C154.344,245.864 141.394,247.997 128.272,247.997C122.353,247.997 116.401,247.564 110.426,246.694C100.771,245.29 91.327,242.748 82.354,239.138C82.196,239.075 82.04,239.008 81.886,238.937L78.485,237.368C63.303,230.287 50.514,218.3 42.434,203.595C34.075,188.385 30.983,171.247 33.492,154.035C39.012,116.167 70.695,87.681 108.888,86.193L112.905,85.823C113.161,85.799 113.418,85.785 113.676,85.781L113.953,85.777Z" />
        <path id="path-21" serif:id="path-2"
            d="M113.953,85.777C117.087,85.468 119.444,82.879 119.542,79.817L119.541,79.61C119.498,68.707 118.399,57.757 116.262,46.974L115.371,42.477C113.646,33.776 105.157,28.099 96.448,29.822C95.834,29.944 95.225,30.101 94.638,30.288C74.246,37.36 56.972,50.482 44.635,68.256C32.355,85.949 26.103,106.599 26.547,127.987L26.648,129.328C26.76,130.097 27.01,130.821 27.394,131.48C30.24,136.378 28.573,142.652 23.671,145.495C18.77,148.338 12.489,146.672 9.643,141.775C7.817,138.631 6.673,135.198 6.243,131.569C6.226,131.424 6.212,131.279 6.201,131.133L6.06,129.25C6.046,129.074 6.038,128.898 6.034,128.721C5.432,102.874 12.947,77.925 27.768,56.572C42.623,35.17 63.44,19.375 87.97,10.895C88.029,10.875 88.141,10.837 88.2,10.817C89.586,10.366 91.02,9.993 92.461,9.708C102.06,7.81 111.821,9.758 119.951,15.195C128.081,20.632 133.605,28.907 135.505,38.495L136.396,42.991C139.235,57.32 140.438,71.921 139.969,86.39C139.964,86.528 139.957,86.665 139.947,86.804L139.931,87.017C139.463,97.019 131.634,105.272 121.631,106.259C121.197,106.303 120.758,106.332 120.322,106.347C120.075,106.355 119.827,106.354 119.579,106.345L119.409,106.338C117.751,106.277 116.062,106.257 114.392,106.278L110.49,106.637C110.298,106.655 110.105,106.667 109.911,106.674C81.504,107.674 57.907,128.835 53.803,156.99C51.943,169.754 54.232,182.458 60.426,193.728C66.423,204.642 75.906,213.536 87.128,218.769L90.251,220.21C97.643,223.162 105.424,225.245 113.384,226.403C145.056,231.011 176.32,220.784 199.176,198.341L200.249,197.234C204.842,192.438 207.806,186.358 208.777,179.696C209.748,173.038 208.644,166.368 205.584,160.407L205.364,159.978C194.746,140.11 177.628,124.155 157.157,115.047C157.054,115.001 156.951,114.954 156.85,114.905L156.346,114.66C149.935,111.551 145.691,105.468 144.99,98.39C144.807,96.525 144.879,94.651 145.208,92.817C145.231,92.684 145.257,92.552 145.286,92.421L145.353,92.118C149.918,71.244 157.927,51.377 169.156,33.078C169.185,33.031 169.215,32.984 169.244,32.937L169.551,32.456C172.515,27.729 177.35,24.399 182.827,23.315C188.096,22.271 193.458,23.322 197.941,26.27L198.206,26.437C198.363,26.536 198.518,26.639 198.669,26.747C224.179,44.855 241.576,71.723 247.656,102.403C249.502,111.715 250.264,121.207 249.92,130.615L249.907,130.945C249.9,131.139 249.887,131.332 249.869,131.525C249.42,136.223 247.713,140.735 244.932,144.571C241.608,149.157 235.191,150.182 230.601,146.862C226.01,143.541 224.984,137.131 228.308,132.545C228.901,131.727 229.28,130.781 229.411,129.797C229.692,122.009 229.057,114.127 227.522,106.386C222.943,83.281 210.649,62.776 192.616,47.926L192.475,47.816C191.26,46.86 189.687,46.353 188.027,46.517C185.949,46.722 184.212,47.929 183.249,49.613L183.15,49.774C175.781,62.939 170.222,76.937 166.57,91.527L166.546,91.686C166.441,92.249 166.412,92.836 166.471,93.435C166.683,95.573 167.959,97.35 169.723,98.293C169.782,98.324 169.842,98.355 169.902,98.384L170.021,98.438C192.67,109.67 211.546,127.966 223.514,150.403C223.54,150.452 223.565,150.5 223.59,150.548L223.849,151.052C228.865,160.825 230.677,171.753 229.088,182.651C227.498,193.556 222.639,203.517 215.035,211.456L213.833,212.696C213.777,212.754 213.721,212.81 213.663,212.866C200.526,225.795 184.371,235.736 166.943,241.614C154.344,245.864 141.394,247.997 128.272,247.997C122.353,247.997 116.401,247.564 110.426,246.694C100.771,245.29 91.327,242.748 82.354,239.138C82.196,239.075 82.04,239.008 81.886,238.937L78.485,237.368C63.303,230.287 50.514,218.3 42.434,203.595C34.075,188.385 30.983,171.247 33.492,154.035C39.012,116.167 70.695,87.681 108.888,86.193L112.905,85.823C113.161,85.799 113.418,85.785 113.676,85.781L113.953,85.777Z"
            style="fill:url(#_Linear1);" />
    </g>
    <defs>
        <linearGradient id="_Linear1" x1="0" y1="0" x2="1" y2="0" gradientUnits="userSpaceOnUse"
            gradientTransform="matrix(119.729,229.297,-229.297,119.729,71.3829,13.8501)">
            <stop offset="0" style="stop-color:rgb(219,187,66);stop-opacity:1" />
            <stop offset="0.38" style="stop-color:rgb(248,217,87);stop-opacity:1" />
            <stop offset="0.5" style="stop-color:rgb(255,227,108);stop-opacity:1" />
            <stop offset="0.67" style="stop-color:rgb(245,204,82);stop-opacity:1" />
            <stop offset="1" style="stop-color:rgb(200,146,37);stop-opacity:1" />
        </linearGradient>
    </defs>
</svg>