<svg width="100%" height="100%" viewBox="0 0 360 180" version="1.1" xmlns="http://www.w3.org/2000/svg"
    xmlns:xlink="http://www.w3.org/1999/xlink" xml:space="preserve" xmlns:serif="http://www.serif.com/"
    style="fill-rule:evenodd;clip-rule:evenodd;stroke-linejoin:round;stroke-miterlimit:2;">
    <g transform="matrix(2.34223,0,0,2.34223,-7.96331,-3.92117)">
        <g transform="matrix(1,0,0,1,2,20)">
            <path
                d="M66,31.4C65.8,31.2 65.6,31 65.5,30.7L55.8,16L55.8,30.9C55.8,31.1 55.7,31.3 55.6,31.5C55.4,31.7 55.3,31.7 55,31.7L53.8,31.7C53.6,31.7 53.4,31.6 53.2,31.5C53,31.3 53,31.2 53,30.9L53,11.5C53,11.3 53.1,11.1 53.2,10.9C53.4,10.7 53.5,10.7 53.8,10.7L54.8,10.7C55.1,10.7 55.3,10.8 55.5,10.9C55.7,11.1 55.9,11.3 56,11.6L65.6,26.2L65.6,11.5C65.6,11.3 65.7,11.1 65.8,10.9C66,10.7 66.1,10.7 66.4,10.7L67.6,10.7C67.8,10.7 68,10.8 68.2,10.9C68.4,11.1 68.4,11.2 68.4,11.5L68.4,30.9C68.4,31.1 68.3,31.3 68.2,31.5C68,31.7 67.9,31.7 67.6,31.7L66.6,31.7C66.4,31.7 66.2,31.6 66,31.4ZM82.6,21.8L82.6,21.4C82.6,20.4 82.3,19.7 81.6,19.1C81,18.6 80.1,18.3 79.1,18.3C78.3,18.3 77.7,18.4 77.2,18.7C76.8,19 76.3,19.4 75.9,19.9C75.8,20.1 75.6,20.2 75.5,20.2C75.4,20.3 75.2,20.3 74.9,20.3L74,20.3C73.8,20.3 73.6,20.2 73.4,20.1C73.2,19.9 73.2,19.8 73.2,19.5C73.3,18.9 73.6,18.3 74.1,17.7C74.6,17.1 75.3,16.6 76.2,16.2C77.1,15.8 78,15.6 79,15.6C80.9,15.6 82.4,16.1 83.5,17.2C84.6,18.2 85.2,19.7 85.2,21.6L85.2,30.9C85.2,31.1 85.1,31.3 85,31.5C84.8,31.7 84.7,31.7 84.4,31.7L83.3,31.7C83.1,31.7 82.9,31.6 82.7,31.5C82.7,31.3 82.6,31.1 82.6,30.9L82.6,29.7C82.3,30.4 81.6,31 80.6,31.4C79.6,31.8 78.5,32 77.5,32C76.5,32 75.6,31.8 74.8,31.4C74,31 73.4,30.5 73,29.9C72.6,29.3 72.4,28.5 72.4,27.7C72.4,26.2 73,25 74.1,24.2C75.2,23.4 76.7,22.8 78.6,22.5L82.6,21.8ZM82.6,24.2L79.1,24.8C77.8,25 76.8,25.3 76.1,25.8C75.4,26.2 75,26.8 75,27.5C75,28 75.2,28.4 75.7,28.8C76.2,29.2 76.9,29.4 77.8,29.4C79.2,29.4 80.4,29 81.3,28.2C82.2,27.4 82.6,26.3 82.6,25L82.6,24.2ZM96,31.7L94.9,31.7C94.5,31.7 94.2,31.5 94,31L88,17.1L88,16.9C88,16.7 88.1,16.5 88.2,16.4C88.3,16.3 88.5,16.2 88.7,16.2L89.8,16.2C90.3,16.2 90.6,16.4 90.8,16.9L95.4,27.8L100,16.9C100.2,16.4 100.5,16.2 100.9,16.2L102.1,16.2C102.3,16.2 102.5,16.3 102.6,16.4C102.7,16.5 102.8,16.7 102.8,16.9L102.8,17.1L96.8,31C96.7,31.4 96.4,31.7 96,31.7ZM108.8,13.5C108.6,13.7 108.5,13.7 108.2,13.7L106.6,13.7C106.4,13.7 106.2,13.6 106,13.5C105.8,13.3 105.8,13.2 105.8,12.9L105.8,11.2C105.8,11 105.9,10.8 106,10.6C106.2,10.4 106.3,10.4 106.6,10.4L108.3,10.4C108.5,10.4 108.7,10.5 108.9,10.6C109.1,10.8 109.1,10.9 109.1,11.2L109.1,12.9C109.1,13.1 109,13.3 108.8,13.5ZM108.5,31.4C108.3,31.6 108.2,31.6 107.9,31.6L106.8,31.6C106.6,31.6 106.4,31.5 106.2,31.4C106,31.2 106,31.1 106,30.8L106,16.9C106,16.7 106.1,16.5 106.2,16.3C106.4,16.1 106.5,16.1 106.8,16.1L107.9,16.1C108.1,16.1 108.3,16.2 108.5,16.3C108.7,16.5 108.7,16.6 108.7,16.9L108.7,30.9C108.8,31.1 108.7,31.3 108.5,31.4ZM123.6,27C123.7,26.7 123.9,26.5 124,26.4C124.1,26.3 124.3,26.2 124.6,26.2L125.5,26.2C125.7,26.2 125.9,26.3 126.1,26.4C126.3,26.5 126.3,26.7 126.3,26.9C126.3,27.6 126,28.3 125.5,29.1C125,29.9 124.2,30.5 123.2,31.1C122.2,31.7 121,31.9 119.6,31.9C118.2,31.9 117,31.6 115.9,31C114.9,30.4 114.1,29.6 113.5,28.5C112.9,27.5 112.6,26.3 112.6,25L112.6,22.6C112.8,20.6 113.5,18.9 114.7,17.6C115.9,16.3 117.5,15.7 119.6,15.7C121,15.7 122.2,16 123.2,16.5C124.2,17 125,17.7 125.5,18.4C126,19.2 126.3,19.9 126.4,20.6C126.4,20.8 126.3,21 126.2,21.2C126,21.4 125.8,21.4 125.6,21.4L124.6,21.4C124.4,21.4 124.2,21.3 124,21.2C123.9,21.1 123.7,20.9 123.6,20.6C122.9,19 121.6,18.3 119.6,18.3C118.5,18.3 117.5,18.7 116.7,19.4C115.9,20.1 115.4,21.3 115.3,22.8L115.3,24.9C115.4,26.4 115.9,27.5 116.7,28.3C117.5,29 118.5,29.4 119.6,29.4C121.6,29.4 122.9,28.6 123.6,27ZM139.2,21.8L139.2,21.4C139.2,20.4 138.9,19.7 138.2,19.1C137.6,18.6 136.7,18.3 135.7,18.3C134.9,18.3 134.3,18.4 133.8,18.7C133.4,19 132.9,19.4 132.5,19.9C132.4,20.1 132.2,20.2 132.1,20.2C132,20.3 131.8,20.3 131.5,20.3L130.6,20.3C130.4,20.3 130.2,20.2 130,20.1C129.8,19.9 129.8,19.8 129.8,19.5C129.9,18.9 130.2,18.3 130.7,17.7C131.2,17.1 131.9,16.6 132.8,16.2C133.7,15.8 134.6,15.6 135.6,15.6C137.5,15.6 139,16.1 140.1,17.2C141.2,18.2 141.8,19.7 141.8,21.6L141.8,30.9C141.8,31.1 141.7,31.3 141.6,31.5C141.4,31.7 141.3,31.7 141,31.7L139.9,31.7C139.7,31.7 139.5,31.6 139.3,31.5C139.1,31.3 139.1,31.2 139.1,30.9L139.1,29.7C138.8,30.4 138.1,31 137.1,31.4C136.1,31.8 135,32 134,32C133,32 132.1,31.8 131.3,31.4C130.5,31 129.9,30.5 129.5,29.9C129.1,29.3 128.9,28.5 128.9,27.7C128.9,26.2 129.5,25 130.6,24.2C131.7,23.4 133.2,22.8 135.1,22.5L139.2,21.8ZM139.2,24.2L135.7,24.8C134.4,25 133.4,25.3 132.7,25.8C132,26.2 131.6,26.8 131.6,27.5C131.6,28 131.8,28.4 132.3,28.8C132.8,29.2 133.5,29.4 134.4,29.4C135.8,29.4 137,29 137.9,28.2C138.8,27.4 139.2,26.3 139.2,25L139.2,24.2ZM150.7,28.4C151,28.9 151.7,29.1 152.7,29.1L154.3,29.1C154.5,29.1 154.7,29.2 154.9,29.3C155.1,29.5 155.1,29.6 155.1,29.9L155.1,30.9C155.1,31.1 155,31.3 154.9,31.5C154.7,31.7 154.6,31.7 154.3,31.7L152.4,31.7C150.7,31.7 149.5,31.3 148.7,30.4C147.9,29.5 147.5,28.2 147.5,26.5L147.5,18.7L145.3,18.7C145.1,18.7 144.9,18.6 144.7,18.5C144.5,18.3 144.5,18.2 144.5,17.9L144.5,16.9C144.5,16.7 144.6,16.5 144.7,16.3C144.9,16.1 145,16.1 145.3,16.1L147.5,16.1L147.5,11.2C147.5,11 147.6,10.8 147.7,10.6C147.9,10.4 148,10.4 148.3,10.4L149.4,10.4C149.6,10.4 149.8,10.5 150,10.6C150.2,10.8 150.2,10.9 150.2,11.2L150.2,16.1L154,16.1C154.2,16.1 154.4,16.2 154.6,16.3C154.8,16.5 154.8,16.6 154.8,16.9L154.8,17.9C154.8,18.1 154.7,18.3 154.6,18.5C154.4,18.7 154.3,18.7 154,18.7L150.2,18.7L150.2,26.5C150.2,27.3 150.4,27.9 150.7,28.4Z"
                style="fill:rgb(66,78,84);fill-rule:nonzero;" />
        </g>
        <path
            d="M21.468,32.95C21.992,32.898 22.387,32.465 22.403,31.952L22.403,31.918C22.395,30.084 22.211,28.255 21.854,26.456L21.705,25.703C21.454,24.447 20.341,23.534 19.059,23.534C18.78,23.534 18.501,23.578 18.235,23.663C14.84,24.834 11.906,27.061 9.866,30.017C7.822,32.943 6.762,36.445 6.839,40.014L6.856,40.239C6.875,40.368 6.916,40.489 6.981,40.599C7.133,40.861 7.213,41.158 7.213,41.461C7.213,42.403 6.438,43.178 5.496,43.178C4.884,43.178 4.317,42.851 4.01,42.322C3.693,41.776 3.496,41.169 3.434,40.541L3.41,40.226C3.408,40.196 3.406,40.167 3.406,40.137C3.3,35.828 4.575,31.596 7.043,28.062C9.499,24.503 13.031,21.824 17.119,20.417L17.157,20.404C18.946,19.815 20.91,20.086 22.472,21.137C23.825,22.037 24.763,23.442 25.075,25.036L25.224,25.789C25.702,28.203 25.902,30.663 25.818,33.122L25.815,33.157C25.726,34.914 24.292,36.329 22.534,36.393C22.492,36.394 22.451,36.394 22.409,36.392L22.381,36.391C22.103,36.381 21.821,36.378 21.541,36.381L20.888,36.441C20.856,36.444 20.823,36.446 20.791,36.447C16.056,36.614 12.081,40.179 11.401,44.868C11.085,46.983 11.475,49.145 12.509,51.017C13.52,52.85 15.084,54.317 16.978,55.208L17.501,55.449C18.738,55.943 20.04,56.292 21.372,56.486C26.673,57.257 31.906,55.545 35.731,51.789L35.911,51.604C36.681,50.799 37.18,49.772 37.338,48.669C37.502,47.563 37.315,46.434 36.804,45.44L36.767,45.369C34.985,42.039 32.146,39.393 28.699,37.849L28.647,37.825L28.563,37.784C27.497,37.272 26.775,36.238 26.662,35.061C26.63,34.727 26.647,34.391 26.712,34.062L26.723,34.011C27.487,30.517 28.834,27.177 30.707,24.13L30.721,24.106L30.773,24.026C31.272,23.233 32.076,22.679 32.995,22.496C33.87,22.32 34.78,22.498 35.524,22.99L35.569,23.018L35.646,23.07C39.902,26.081 42.839,30.617 43.845,35.732C44.154,37.291 44.281,38.88 44.224,40.454L44.222,40.509C44.221,40.542 44.218,40.574 44.215,40.607C44.139,41.395 43.854,42.149 43.389,42.79C43.066,43.23 42.551,43.49 42.006,43.49C41.064,43.49 40.289,42.715 40.289,41.773C40.289,41.416 40.4,41.068 40.607,40.777C40.706,40.64 40.769,40.482 40.791,40.317C40.837,39.003 40.731,37.688 40.475,36.399C39.721,32.56 37.655,29.1 34.633,26.615L34.61,26.596C34.427,26.452 34.2,26.374 33.968,26.374C33.595,26.374 33.25,26.574 33.065,26.897L33.049,26.924C31.819,29.12 30.885,31.47 30.274,33.912L30.27,33.939C30.187,34.383 30.403,34.832 30.802,35.045L30.832,35.06L30.852,35.069C34.674,36.973 37.809,40.022 39.817,43.79L39.861,43.875C40.699,45.502 41.005,47.352 40.737,49.163C40.477,50.976 39.654,52.663 38.385,53.984L38.184,54.192L38.156,54.22C35.945,56.392 33.271,58.037 30.336,59.032C28.251,59.739 26.065,60.1 23.864,60.1C22.874,60.1 21.877,60.027 20.877,59.882C19.238,59.644 17.635,59.208 16.101,58.584L15.532,58.321C12.975,57.121 10.863,55.142 9.498,52.669C8.103,50.144 7.576,47.228 8.001,44.374C8.917,38.067 14.252,33.267 20.62,33.019L21.292,32.958C21.335,32.954 21.378,32.951 21.421,32.951L21.468,32.95Z" />
        <g transform="matrix(1,0,0,1,2,20)">
            <g>
                <path
                    d="M19.468,12.95C19.992,12.898 20.387,12.465 20.403,11.952L20.403,11.918C20.395,10.084 20.211,8.255 19.854,6.456L19.705,5.703C19.454,4.447 18.341,3.534 17.059,3.534C16.78,3.534 16.501,3.578 16.235,3.663C12.84,4.834 9.906,7.061 7.866,10.017C5.822,12.943 4.762,16.445 4.839,20.014L4.856,20.239C4.875,20.368 4.916,20.489 4.981,20.599C5.133,20.861 5.213,21.158 5.213,21.461C5.213,22.403 4.438,23.178 3.496,23.178C2.884,23.178 2.317,22.851 2.01,22.322C1.693,21.776 1.496,21.169 1.434,20.541L1.41,20.226C1.408,20.196 1.406,20.167 1.406,20.137C1.3,15.828 2.575,11.596 5.043,8.062C7.499,4.503 11.031,1.824 15.119,0.417L15.157,0.404C16.946,-0.185 18.91,0.086 20.472,1.137C21.825,2.037 22.763,3.442 23.075,5.036L23.224,5.789C23.702,8.203 23.902,10.663 23.818,13.122L23.815,13.157C23.726,14.914 22.292,16.329 20.534,16.393C20.492,16.394 20.451,16.394 20.409,16.392L20.381,16.391C20.103,16.381 19.821,16.378 19.541,16.381L18.888,16.441C18.856,16.444 18.823,16.446 18.791,16.447C14.056,16.614 10.081,20.179 9.401,24.868C9.085,26.983 9.475,29.145 10.509,31.017C11.52,32.85 13.084,34.317 14.978,35.208L15.501,35.449C16.738,35.943 18.04,36.292 19.372,36.486C24.673,37.257 29.906,35.545 33.731,31.789L33.911,31.604C34.681,30.799 35.18,29.772 35.338,28.669C35.502,27.563 35.315,26.434 34.804,25.44L34.767,25.369C32.985,22.039 30.146,19.393 26.699,17.849L26.647,17.825L26.563,17.784C25.497,17.272 24.775,16.238 24.662,15.061C24.63,14.727 24.647,14.391 24.712,14.062L24.723,14.011C25.489,10.508 26.84,7.159 28.721,4.106L28.773,4.026C29.272,3.233 30.076,2.679 30.995,2.496C31.87,2.32 32.78,2.498 33.524,2.99L33.569,3.018L33.646,3.07C37.902,6.081 40.839,10.617 41.845,15.732C42.154,17.291 42.281,18.88 42.224,20.454L42.222,20.509C42.221,20.542 42.218,20.574 42.215,20.607C42.139,21.395 41.854,22.149 41.389,22.79C41.066,23.23 40.551,23.49 40.006,23.49C39.064,23.49 38.289,22.715 38.289,21.773C38.289,21.416 38.4,21.068 38.607,20.777C38.706,20.64 38.769,20.482 38.791,20.317C38.837,19.003 38.731,17.688 38.475,16.399C37.721,12.56 35.655,9.1 32.633,6.615L32.61,6.596C32.427,6.452 32.2,6.374 31.968,6.374C31.595,6.374 31.25,6.574 31.065,6.897L31.049,6.924C29.819,9.12 28.885,11.47 28.274,13.912L28.27,13.939C28.187,14.383 28.403,14.832 28.802,15.045L28.832,15.06L28.852,15.069C32.674,16.973 35.809,20.022 37.817,23.79L37.861,23.875C38.699,25.502 39.005,27.352 38.737,29.163C38.477,30.976 37.654,32.663 36.385,33.984L36.184,34.192L36.156,34.22C33.945,36.392 31.271,38.037 28.336,39.032C26.251,39.739 24.065,40.1 21.864,40.1C20.874,40.1 19.877,40.027 18.877,39.882C17.238,39.644 15.635,39.208 14.101,38.584L13.532,38.321C10.975,37.121 8.863,35.142 7.498,32.669C6.103,30.144 5.576,27.228 6.001,24.374C6.917,18.067 12.252,13.267 18.62,13.019L19.292,12.958C19.335,12.954 19.378,12.951 19.421,12.951L19.468,12.95Z"
                    style="fill:url(#_Linear1);" />
            </g>
        </g>
    </g>
    <defs>
        <linearGradient id="_Linear1" x1="0" y1="0" x2="1" y2="0" gradientUnits="userSpaceOnUse"
            gradientTransform="matrix(20.0388,38.3764,-38.3764,20.0388,12.3429,0.910689)">
            <stop offset="0" style="stop-color:rgb(219,187,66);stop-opacity:1" />
            <stop offset="0.38" style="stop-color:rgb(248,217,87);stop-opacity:1" />
            <stop offset="0.5" style="stop-color:rgb(255,227,108);stop-opacity:1" />
            <stop offset="0.67" style="stop-color:rgb(245,204,82);stop-opacity:1" />
            <stop offset="1" style="stop-color:rgb(200,146,37);stop-opacity:1" />
        </linearGradient>
    </defs>
</svg>