<svg width="100%" height="100%" viewBox="0 0 120 60" xmlns="http://www.w3.org/2000/svg" xml:space="preserve"
    style="fill-rule:evenodd;clip-rule:evenodd">
    <path
        d="M120 9.275v41.45c0 5.119-4.156 9.275-9.275 9.275H9.275C4.156 60 0 55.844 0 50.725V9.275C0 4.156 4.156 0 9.275 0h101.45C115.844 0 120 4.156 120 9.275Z"
        style="fill:#f2f2f2" />
    <g transform="translate(3 5)">
        <clipPath id="a">
            <path
                d="M114 4v42c0 2.208-1.792 4-4 4H4c-2.208 0-4-1.792-4-4V4c0-2.208 1.792-4 4-4h106c2.208 0 4 1.792 4 4Z" />
        </clipPath>
        <g clip-path="url(#a)">
            <path
                d="M114 4v42c0 2.208-1.792 4-4 4H4c-2.208 0-4-1.792-4-4V4c0-2.208 1.792-4 4-4h106c2.208 0 4 1.792 4 4Z"
                style="fill:#181a1c" />
            <path style="fill:#fff" d="M0 0h114v51H0z" />
            <path
                d="M44.445 40.3v-7.694l.153-.16h1.853l.154.16V40.3l-.154.16h-1.853l-.153-.16Zm0-22.446V10.16l.153-.16h1.853l.154.16v7.694l-.154.16h-1.853l-.153-.16ZM38.068 34.89h-.254l-1.275-1.322v-.264l2.388-2.482 1.349.002.18.184v1.4l-2.388 2.483v-.001ZM36.54 17.226v-.266l1.274-1.321h.254l2.388 2.48v1.397l-.18.19h-1.349l-2.388-2.48h.001Zm-8.386 6.88h10.5l.153.16v1.926l-.153.16h-10.5l-.154-.16v-1.926l.154-.16Zm71.69.003.154.16v1.923l-.154.16H89.19l-.153-.16.77-1.924.154-.16h9.883v.001ZM49 29.24h-1.853l-.153-.16v-4.503c0-.802-.303-1.423-1.234-1.443-.48-.012-1.027 0-1.613.025l-.089.093v5.825l-.153.16h-1.853l-.154-.16v-7.694l.154-.16h4.169c1.62 0 2.933 1.363 2.933 3.045v4.81l-.154.159v.003Zm8.974-3.37-.154.16h-4.79l-.154.16c0 .32.31 1.283 1.546 1.283.463 0 .926-.16 1.082-.481l.154-.16h1.852l.154.16c-.154.962-.926 2.407-3.245 2.407-2.625 0-3.861-1.924-3.861-4.172 0-2.247 1.236-4.17 3.708-4.17 2.472 0 3.708 1.923 3.708 4.17v.643Zm-2.319-1.604c0-.16-.153-1.284-1.39-1.284-1.235 0-1.389 1.124-1.389 1.284l.154.16h2.472l.153-.16Zm6.643 2.566c0 .322.154.481.464.481h1.39l.153.16v1.604l-.154.16h-1.39c-1.389 0-2.625-.643-2.625-2.407V23.3l-.154-.16H58.9l-.154-.159v-1.604l.154-.16h1.082l.154-.16v-1.442l.154-.16h1.852l.154.16v1.443l.154.16h1.699l.153.159v1.604l-.153.16h-1.7l-.153.16v3.528l.002.002v.001Zm5.717 2.408h-1.853l-.153-.16V18.17l.153-.159h1.853l.154.16v10.906l-.154.16v.003Zm4.171-9.305h-1.852l-.154-.16v-1.604l.154-.16h1.852l.154.16v1.604l-.154.16Zm0 9.304h-1.852l-.154-.16V21.38l.154-.16h1.852l.154.16v7.7l-.154.16v-.001Zm7.263-11.069v1.605l-.154.16h-1.39c-.309 0-.463.16-.463.48v.644l.154.16h1.546l.153.159v1.604l-.153.16h-1.546l-.154.16v5.773l-.153.16h-1.853l-.154-.16V23.3l-.153-.16h-1.083l-.153-.159v-1.604l.153-.16h1.083l.153-.16v-.642c0-1.764 1.236-2.407 2.626-2.407h1.39l.153.16-.002.002Zm5.714 11.229c-.619 1.604-1.236 2.566-3.398 2.566h-.773l-.154-.16v-1.604l.154-.16h.773c.773 0 .926-.159 1.082-.64v-.16l-2.472-6.256V21.38l.154-.16h1.39l.153.16 1.853 5.455h.153l1.853-5.455.154-.16h1.39l.153.16v1.605L85.156 29.4l.007-.002v.001Z"
                style="fill:#181a1c;fill-rule:nonzero" />
            <path style="fill:#181a1c" d="M0 0h15v50H0z" />
            <path
                d="M5.518 45.367v-.774H10v.774H5.518Zm0-1.746c0-.44.098-.784.294-1.032.196-.248.474-.372.834-.372.348 0 .622.13.822.39.2.26.3.628.3 1.104l-.336.018c.004-.608.114-1.062.33-1.362.212-.3.524-.45.936-.45.424 0 .748.146.972.438.22.288.33.686.33 1.194v1.242h-.738v-1.152c0-.268-.05-.488-.15-.66a.501.501 0 0 0-.462-.258c-.224 0-.39.088-.498.264-.108.172-.162.39-.162.654v1.146h-.738V43.68c0-.192-.04-.36-.12-.504a.429.429 0 0 0-.396-.216c-.192 0-.33.068-.414.204a.95.95 0 0 0-.126.51v1.116h-.678v-1.17.001Zm0-2.925v-.774H8.17c.256 0 .472-.04.648-.12a.89.89 0 0 0 .39-.336.92.92 0 0 0 .126-.486.92.92 0 0 0-.126-.486.842.842 0 0 0-.39-.33 1.488 1.488 0 0 0-.648-.126H5.518v-.75h2.664c.604 0 1.068.146 1.392.438.324.288.486.71.486 1.266 0 .56-.162.984-.486 1.272-.324.288-.788.432-1.392.432H5.518Zm0-5.048v-.774H10v.774H5.518Zm0-2.474V32.4H10v.774H5.518Zm3.75-.547v-2.412H10v2.412h-.732Zm-3.69-3.903v-.773H10v.773H5.578Zm-.06 1.41v-3.6h.732v3.6h-.732Zm0-6.979v-.828l3.684-1.056v.318L5.518 20.43v-.888l3.684-1.122v.318L5.518 17.64v-.798L10 18.18v.81l-4.086 1.254v-.438L10 21.097v.756l-4.482 1.302Zm0-7.386v-.774H10v.774H5.518Zm.06-3.283v-.774H10v.774H5.578Zm-.06 1.41v-3.6h.732v3.6h-.732Zm0-4.699v-.774H10v.774H5.518Zm1.572-.546V6.179h.732V8.65H7.09v.001ZM5.518 6.407v-.774H10v.774H5.518Z"
                style="fill:#fff;fill-rule:nonzero" />
        </g>
    </g>
    <path d="M113 4v42c0 1.656-1.344 3-3 3H4c-1.656 0-3-1.344-3-3V4c0-1.656 1.344-3 3-3h106c1.656 0 3 1.344 3 3Z"
        style="fill:none;stroke:#181a1c;stroke-width:2px" transform="translate(3 5)" />
</svg>