<?xml version="1.0" encoding="UTF-8" standalone="no"?>
<!DOCTYPE svg PUBLIC "-//W3C//DTD SVG 1.1//EN" "http://www.w3.org/Graphics/SVG/1.1/DTD/svg11.dtd">
<svg width="100%" height="100%" viewBox="0 0 114 50" version="1.1" xmlns="http://www.w3.org/2000/svg"
    xmlns:xlink="http://www.w3.org/1999/xlink" xml:space="preserve" xmlns:serif="http://www.serif.com/"
    style="fill-rule:evenodd;clip-rule:evenodd;">
    <rect x="0" y="0" width="114" height="50" style="fill:#fff;" />
    <g>
        <g>
            <clipPath id="_clip1">
                <path
                    d="M114,4l0,42c0,2.208 -1.792,4 -4,4l-106,0c-2.208,0 -4,-1.792 -4,-4l0,-42c0,-2.208 1.792,-4 4,-4l106,0c2.208,0 4,1.792 4,4Z" />
            </clipPath>
            <g clip-path="url(#_clip1)">
                <path
                    d="M114,4l0,42c0,2.208 -1.792,4 -4,4l-106,0c-2.208,0 -4,-1.792 -4,-4l0,-42c0,-2.208 1.792,-4 4,-4l106,0c2.208,0 4,1.792 4,4Z"
                    style="fill:#181a1c;" />
                <rect x="0" y="0" width="114" height="51" style="fill:#fff;" />
                <g>
                    <g>
                        <path
                            d="M44.445,40.3l0,-7.694l0.153,-0.16l1.853,-0l0.154,0.16l-0,7.694l-0.154,0.16l-1.853,0l-0.153,-0.16Zm0,-22.446l0,-7.694l0.153,-0.16l1.853,-0l0.154,0.16l-0,7.694l-0.154,0.16l-1.853,-0l-0.153,-0.16Zm-6.377,17.036l-0.254,0l-1.275,-1.322l0,-0.264l2.388,-2.482l1.349,0.002l0.18,0.184l0,1.4l-2.388,2.483l0,-0.001Zm-1.528,-17.664l0,-0.266l1.274,-1.321l0.254,0l2.388,2.48l0,1.397l-0.18,0.19l-1.349,0l-2.388,-2.48l0.001,0Zm-8.386,6.88l10.5,0l0.153,0.16l0,1.926l-0.153,0.16l-10.5,0l-0.154,-0.16l0,-1.926l0.154,-0.16Zm71.69,0.003l0.154,0.16l0,1.923l-0.154,0.16l-10.654,0l-0.153,-0.16l0.77,-1.924l0.154,-0.16l9.883,0l0,0.001Zm-50.844,5.131l-1.853,0l-0.153,-0.16l0,-4.503c0,-0.802 -0.303,-1.423 -1.234,-1.443c-0.48,-0.012 -1.027,0 -1.613,0.025l-0.089,0.093l0,5.825l-0.153,0.16l-1.853,0l-0.154,-0.16l0,-7.694l0.154,-0.16l4.169,0c1.62,0 2.933,1.363 2.933,3.045l0,4.81l-0.154,0.159l0,0.003Zm8.974,-3.37l-0.154,0.16l-4.79,0l-0.154,0.16c0,0.32 0.31,1.283 1.546,1.283c0.463,0 0.926,-0.16 1.082,-0.481l0.154,-0.16l1.852,0l0.154,0.16c-0.154,0.962 -0.926,2.407 -3.245,2.407c-2.625,0 -3.861,-1.924 -3.861,-4.172c0,-2.247 1.236,-4.17 3.708,-4.17c2.472,0 3.708,1.923 3.708,4.17l0,0.643Zm-2.319,-1.604c0,-0.16 -0.153,-1.284 -1.39,-1.284c-1.235,0 -1.389,1.124 -1.389,1.284l0.154,0.16l2.472,0l0.153,-0.16Zm6.643,2.566c0,0.322 0.154,0.481 0.464,0.481l1.39,0l0.153,0.16l0,1.604l-0.154,0.16l-1.39,0c-1.389,0 -2.625,-0.643 -2.625,-2.407l0,-3.53l-0.154,-0.16l-1.082,0l-0.154,-0.159l0,-1.604l0.154,-0.16l1.082,0l0.154,-0.16l0,-1.442l0.154,-0.16l1.852,0l0.154,0.16l0,1.443l0.154,0.16l1.699,0l0.153,0.159l0,1.604l-0.153,0.16l-1.7,0l-0.153,0.16l0,3.528l0.002,0.002l0,0.001Zm5.717,2.408l-1.853,0l-0.153,-0.16l0,-10.91l0.153,-0.159l1.853,0l0.154,0.16l0,10.906l-0.154,0.16l0,0.003Zm4.171,-9.305l-1.852,0l-0.154,-0.16l0,-1.604l0.154,-0.16l1.852,0l0.154,0.16l0,1.604l-0.154,0.16Zm0,9.304l-1.852,0l-0.154,-0.16l0,-7.699l0.154,-0.16l1.852,0l0.154,0.16l0,7.7l-0.154,0.16l0,-0.001Zm7.263,-11.069l0,1.605l-0.154,0.16l-1.39,0c-0.309,0 -0.463,0.16 -0.463,0.48l-0,0.644l0.154,0.16l1.546,0l0.153,0.159l-0,1.604l-0.153,0.16l-1.546,0l-0.154,0.16l-0,5.773l-0.153,0.16l-1.853,0l-0.154,-0.16l-0,-5.775l-0.153,-0.16l-1.083,0l-0.153,-0.159l0,-1.604l0.153,-0.16l1.083,0l0.153,-0.16l-0,-0.642c-0,-1.764 1.236,-2.407 2.626,-2.407l1.39,0l0.153,0.16l-0.002,0.002Zm5.714,11.229c-0.619,1.604 -1.236,2.566 -3.398,2.566l-0.773,0l-0.154,-0.16l-0,-1.604l0.154,-0.16l0.773,0c0.773,0 0.926,-0.159 1.082,-0.64l-0,-0.16l-2.472,-6.256l-0,-1.605l0.154,-0.16l1.39,0l0.153,0.16l1.853,5.455l0.153,0l1.853,-5.455l0.154,-0.16l1.39,0l0.153,0.16l-0,1.605l-2.472,6.415l0.007,-0.002l-0,0.001Z"
                            style="fill:#181a1c;fill-rule:nonzero;" />
                    </g>
                </g>
                <rect x="0" y="0" width="15" height="50" style="fill:#181a1c;" />
                <path
                    d="M5.518,45.367l0,-0.774l4.482,0l0,0.774l-4.482,-0Zm0,-1.746c0,-0.44 0.098,-0.784 0.294,-1.032c0.196,-0.248 0.474,-0.372 0.834,-0.372c0.348,0 0.622,0.13 0.822,0.39c0.2,0.26 0.3,0.628 0.3,1.104l-0.336,0.018c0.004,-0.608 0.114,-1.062 0.33,-1.362c0.212,-0.3 0.524,-0.45 0.936,-0.45c0.424,0 0.748,0.146 0.972,0.438c0.22,0.288 0.33,0.686 0.33,1.194l0,1.242l-0.738,0l0,-1.152c0,-0.268 -0.05,-0.488 -0.15,-0.66c-0.092,-0.167 -0.272,-0.267 -0.462,-0.258c-0.224,0 -0.39,0.088 -0.498,0.264c-0.108,0.172 -0.162,0.39 -0.162,0.654l0,1.146l-0.738,-0l0,-1.105c0,-0.192 -0.04,-0.36 -0.12,-0.504c-0.08,-0.141 -0.234,-0.225 -0.396,-0.216c-0.192,-0 -0.33,0.068 -0.414,0.204c-0.089,0.155 -0.133,0.332 -0.126,0.51l0,1.116l-0.678,-0l0,-1.17l0,0.001Zm0,-2.925l0,-0.774l2.652,-0c0.256,-0 0.472,-0.04 0.648,-0.12c0.16,-0.071 0.296,-0.188 0.39,-0.336c0.086,-0.147 0.13,-0.315 0.126,-0.486c0.004,-0.171 -0.04,-0.339 -0.126,-0.486c-0.093,-0.148 -0.229,-0.263 -0.39,-0.33c-0.204,-0.09 -0.425,-0.133 -0.648,-0.126l-2.652,-0l0,-0.75l2.664,-0c0.604,-0 1.068,0.146 1.392,0.438c0.324,0.288 0.486,0.71 0.486,1.266c0,0.56 -0.162,0.984 -0.486,1.272c-0.324,0.288 -0.788,0.432 -1.392,0.432l-2.664,-0Zm0,-5.048l0,-0.774l4.482,-0l0,0.774l-4.482,-0Zm0,-2.474l0,-0.774l4.482,-0l0,0.774l-4.482,-0Zm3.75,-0.547l0,-2.412l0.732,-0l0,2.412l-0.732,-0Zm-3.69,-3.903l-0,-0.773l4.422,-0l0,0.773l-4.422,-0Zm-0.06,1.41l-0,-3.6l0.732,-0l-0,3.6l-0.732,-0Zm-0,-6.979l-0,-0.828l3.684,-1.056l-0,0.318l-3.684,-1.159l-0,-0.888l3.684,-1.122l-0,0.318l-3.684,-1.098l-0,-0.798l4.482,1.338l-0,0.81l-4.086,1.254l-0,-0.438l4.086,1.291l-0,0.756l-4.482,1.302Zm-0,-7.386l-0,-0.774l4.482,-0l-0,0.774l-4.482,-0Zm0.06,-3.283l-0,-0.774l4.422,-0l0,0.774l-4.422,-0Zm-0.06,1.41l-0,-3.6l0.732,-0l-0,3.6l-0.732,-0Zm-0,-4.699l-0,-0.774l4.482,-0l0,0.774l-4.482,-0Zm1.572,-0.546l0,-2.472l0.732,-0l0,2.471l-0.732,-0l0,0.001Zm-1.572,-2.244l0,-0.774l4.482,-0l0,0.774l-4.482,-0Z"
                    style="fill:#fff;fill-rule:nonzero;" />
            </g>
        </g>
    </g>
    <path
        d="M113,4l0,42c0,1.656 -1.344,3 -3,3l-106,0c-1.656,0 -3,-1.344 -3,-3l0,-42c0,-1.656 1.344,-3 3,-3l106,0c1.656,0 3,1.344 3,3Z"
        style="fill:none;stroke:#181a1c;stroke-width:2px;" />
</svg>