<svg width="100%" height="100%" viewBox="0 0 360 180" version="1.1" xmlns="http://www.w3.org/2000/svg"
    xmlns:xlink="http://www.w3.org/1999/xlink" xml:space="preserve" xmlns:serif="http://www.serif.com/"
    style="fill-rule:evenodd;clip-rule:evenodd;">
    <g transform="matrix(1.05263,0,0,1.05263,-9.47368,-4.73684)">
        <g transform="matrix(3,0,0,3,9,15)">
            <g>
                <clipPath id="_clip1">
                    <path
                        d="M114,4L114,46C114,48.208 112.208,50 110,50L4,50C1.792,50 0,48.208 0,46L0,4C0,1.792 1.792,0 4,0L110,0C112.208,0 114,1.792 114,4Z" />
                </clipPath>
                <g clip-path="url(#_clip1)">
                    <path
                        d="M114,4L114,46C114,48.208 112.208,50 110,50L4,50C1.792,50 0,48.208 0,46L0,4C0,1.792 1.792,0 4,0L110,0C112.208,0 114,1.792 114,4Z"
                        style="fill:rgb(24,26,28);" />
                    <rect x="0" y="0" width="114" height="51" style="fill:white;" />
                    <path
                        d="M44.445,40.3L44.445,32.606L44.598,32.446L46.451,32.446L46.605,32.606L46.605,40.3L46.451,40.46L44.598,40.46L44.445,40.3ZM44.445,17.854L44.445,10.16L44.598,10L46.451,10L46.605,10.16L46.605,17.854L46.451,18.014L44.598,18.014L44.445,17.854ZM38.068,34.89L37.814,34.89L36.539,33.568L36.539,33.304L38.927,30.822L40.276,30.824L40.456,31.008L40.456,32.408L38.068,34.891L38.068,34.89ZM36.54,17.226L36.54,16.96L37.814,15.639L38.068,15.639L40.456,18.119L40.456,19.516L40.276,19.706L38.927,19.706L36.539,17.226L36.54,17.226ZM28.154,24.106L38.654,24.106L38.807,24.266L38.807,26.192L38.654,26.352L28.154,26.352L28,26.192L28,24.266L28.154,24.106ZM99.844,24.109L99.998,24.269L99.998,26.192L99.844,26.352L89.19,26.352L89.037,26.192L89.807,24.268L89.961,24.108L99.844,24.108L99.844,24.109ZM49,29.24L47.147,29.24L46.994,29.08L46.994,24.577C46.994,23.775 46.691,23.154 45.76,23.134C45.28,23.122 44.733,23.134 44.147,23.159L44.058,23.252L44.058,29.077L43.905,29.237L42.052,29.237L41.898,29.077L41.898,21.383L42.052,21.223L46.221,21.223C47.841,21.223 49.154,22.586 49.154,24.268L49.154,29.078L49,29.237L49,29.24ZM57.974,25.87L57.82,26.03L53.03,26.03L52.876,26.19C52.876,26.51 53.186,27.473 54.422,27.473C54.885,27.473 55.348,27.313 55.504,26.992L55.658,26.832L57.51,26.832L57.664,26.992C57.51,27.954 56.738,29.399 54.419,29.399C51.794,29.399 50.558,27.475 50.558,25.227C50.558,22.98 51.794,21.057 54.266,21.057C56.738,21.057 57.974,22.98 57.974,25.227L57.974,25.87ZM55.655,24.266C55.655,24.106 55.502,22.982 54.265,22.982C53.03,22.982 52.876,24.106 52.876,24.266L53.03,24.426L55.502,24.426L55.655,24.266ZM62.298,26.832C62.298,27.154 62.452,27.313 62.762,27.313L64.152,27.313L64.305,27.473L64.305,29.077L64.151,29.237L62.761,29.237C61.372,29.237 60.136,28.594 60.136,26.83L60.136,23.3L59.982,23.14L58.9,23.14L58.746,22.981L58.746,21.377L58.9,21.217L59.982,21.217L60.136,21.057L60.136,19.615L60.29,19.455L62.142,19.455L62.296,19.615L62.296,21.058L62.45,21.218L64.149,21.218L64.302,21.377L64.302,22.981L64.149,23.141L62.449,23.141L62.296,23.301L62.296,26.829L62.298,26.831L62.298,26.832ZM68.015,29.24L66.162,29.24L66.009,29.08L66.009,18.17L66.162,18.011L68.015,18.011L68.169,18.171L68.169,29.077L68.015,29.237L68.015,29.24ZM72.186,19.935L70.334,19.935L70.18,19.775L70.18,18.171L70.334,18.011L72.186,18.011L72.34,18.171L72.34,19.775L72.186,19.935ZM72.186,29.239L70.334,29.239L70.18,29.079L70.18,21.38L70.334,21.22L72.186,21.22L72.34,21.38L72.34,29.08L72.186,29.24L72.186,29.239ZM79.449,18.17L79.449,19.775L79.295,19.935L77.905,19.935C77.596,19.935 77.442,20.095 77.442,20.415L77.442,21.059L77.596,21.219L79.142,21.219L79.295,21.378L79.295,22.982L79.142,23.142L77.596,23.142L77.442,23.302L77.442,29.075L77.289,29.235L75.436,29.235L75.282,29.075L75.282,23.3L75.129,23.14L74.046,23.14L73.893,22.981L73.893,21.377L74.046,21.217L75.129,21.217L75.282,21.057L75.282,20.415C75.282,18.651 76.518,18.008 77.908,18.008L79.298,18.008L79.451,18.168L79.449,18.17ZM85.163,29.399C84.544,31.003 83.927,31.965 81.765,31.965L80.992,31.965L80.838,31.805L80.838,30.201L80.992,30.041L81.765,30.041C82.538,30.041 82.691,29.882 82.847,29.401L82.847,29.241L80.375,22.985L80.375,21.38L80.529,21.22L81.919,21.22L82.072,21.38L83.925,26.835L84.078,26.835L85.931,21.38L86.085,21.22L87.475,21.22L87.628,21.38L87.628,22.985L85.156,29.4L85.163,29.398L85.163,29.399Z"
                        style="fill:rgb(24,26,28);fill-rule:nonzero;" />
                    <rect x="0" y="0" width="15" height="50" style="fill:rgb(24,26,28);" />
                    <path
                        d="M5.518,45.367L5.518,44.593L10,44.593L10,45.367L5.518,45.367ZM5.518,43.621C5.518,43.181 5.616,42.837 5.812,42.589C6.008,42.341 6.286,42.217 6.646,42.217C6.994,42.217 7.268,42.347 7.468,42.607C7.668,42.867 7.768,43.235 7.768,43.711L7.432,43.729C7.436,43.121 7.546,42.667 7.762,42.367C7.974,42.067 8.286,41.917 8.698,41.917C9.122,41.917 9.446,42.063 9.67,42.355C9.89,42.643 10,43.041 10,43.549L10,44.791L9.262,44.791L9.262,43.639C9.262,43.371 9.212,43.151 9.112,42.979C9.02,42.812 8.84,42.712 8.65,42.721C8.426,42.721 8.26,42.809 8.152,42.985C8.044,43.157 7.99,43.375 7.99,43.639L7.99,44.785L7.252,44.785L7.252,43.68C7.252,43.488 7.212,43.32 7.132,43.176C7.052,43.035 6.898,42.951 6.736,42.96C6.544,42.96 6.406,43.028 6.322,43.164C6.233,43.319 6.189,43.496 6.196,43.674L6.196,44.79L5.518,44.79L5.518,43.62L5.518,43.621ZM5.518,40.696L5.518,39.922L8.17,39.922C8.426,39.922 8.642,39.882 8.818,39.802C8.978,39.731 9.114,39.614 9.208,39.466C9.294,39.319 9.338,39.151 9.334,38.98C9.338,38.809 9.294,38.641 9.208,38.494C9.115,38.346 8.979,38.231 8.818,38.164C8.614,38.074 8.393,38.031 8.17,38.038L5.518,38.038L5.518,37.288L8.182,37.288C8.786,37.288 9.25,37.434 9.574,37.726C9.898,38.014 10.06,38.436 10.06,38.992C10.06,39.552 9.898,39.976 9.574,40.264C9.25,40.552 8.786,40.696 8.182,40.696L5.518,40.696ZM5.518,35.648L5.518,34.874L10,34.874L10,35.648L5.518,35.648ZM5.518,33.174L5.518,32.4L10,32.4L10,33.174L5.518,33.174ZM9.268,32.627L9.268,30.215L10,30.215L10,32.627L9.268,32.627ZM5.578,28.724L5.578,27.951L10,27.951L10,28.724L5.578,28.724ZM5.518,30.134L5.518,26.534L6.25,26.534L6.25,30.134L5.518,30.134ZM5.518,23.155L5.518,22.327L9.202,21.271L9.202,21.589L5.518,20.43L5.518,19.542L9.202,18.42L9.202,18.738L5.518,17.64L5.518,16.842L10,18.18L10,18.99L5.914,20.244L5.914,19.806L10,21.097L10,21.853L5.518,23.155ZM5.518,15.769L5.518,14.995L10,14.995L10,15.769L5.518,15.769ZM5.578,12.486L5.578,11.712L10,11.712L10,12.486L5.578,12.486ZM5.518,13.896L5.518,10.296L6.25,10.296L6.25,13.896L5.518,13.896ZM5.518,9.197L5.518,8.423L10,8.423L10,9.197L5.518,9.197ZM7.09,8.651L7.09,6.179L7.822,6.179L7.822,8.65L7.09,8.65L7.09,8.651ZM5.518,6.407L5.518,5.633L10,5.633L10,6.407L5.518,6.407Z"
                        style="fill:white;fill-rule:nonzero;" />
                </g>
            </g>
        </g>
        <g transform="matrix(3,0,0,3,9,15)">
            <path
                d="M113,4L113,46C113,47.656 111.656,49 110,49L4,49C2.344,49 1,47.656 1,46L1,4C1,2.344 2.344,1 4,1L110,1C111.656,1 113,2.344 113,4Z"
                style="fill:none;stroke:rgb(24,26,28);stroke-width:2px;" />
        </g>
    </g>
</svg>