<svg width="100%" height="100%" viewBox="0 0 630 315" xmlns="http://www.w3.org/2000/svg" xml:space="preserve"
    style="fill-rule:evenodd;clip-rule:evenodd;stroke-linejoin:round;stroke-miterlimit:2">
    <path
        d="M630 47.25v220.5c0 26.078-21.172 47.25-47.25 47.25H47.25C21.172 315 0 293.828 0 267.75V47.25C0 21.172 21.172 0 47.25 0h535.5C608.828 0 630 21.172 630 47.25Z"
        style="fill:#f2f2f2" />
    <path
        d="M106.3 0H35.5L0 61.4l35.4 61.4h70.9l35.4-61.4L106.3 0Zm1.7 68.6c-.7 1.6-2.3 2.6-4.1 2.6H67.1c-2.5 0-4.5-2-4.5-4.5s2-4.5 4.5-4.5h26.8L83.4 50.3a4.461 4.461 0 0 1 0-5.9l10.5-11.9H49.6v71.2c0 2.5-2 4.5-4.5 4.5s-4.5-2-4.5-4.5V18.9c0-2.5 2-4.5 4.5-4.5s4.5 2 4.5 4.5v4.6h54.3c1.8 0 3.4 1 4.1 2.6.7 1.6.4 3.5-.7 4.8L92.9 47.3l14.4 16.4c1.1 1.4 1.4 3.3.7 4.9Zm73.3 12.6c7.3 5.8 16 9.2 25.3 9.2 9.1 0 15.5-3.2 15.5-10.4 0-6.2-4-8.7-11.2-11.4l-11.6-4.2c-10.6-3.9-18.7-9.6-18.7-22.7 0-14 12.2-21.7 26.9-21.7 9 0 17.1 2.3 23.5 6.5v13.9c-6.6-5.1-13.9-8.6-23.2-8.6-8.1 0-14 3.1-14 9.6 0 5.8 3.8 8.2 10.4 10.5l12.9 4.7c12.5 4.5 18.2 11.6 18.2 23.1 0 14.5-12.3 22.6-28.6 22.6-10.6 0-19.7-3.1-25.3-7l-.1-14.1Zm72.1-47.3c-4.3 0-8.1-3.5-8.1-7.9s3.8-7.9 8.1-7.9 8.1 3.5 8.1 7.9-3.8 7.9-8.1 7.9Zm6.5 67.2h-13V43.4h13v57.7Zm52.1-5.7c-2.6 3.1-8.1 6-14.5 6-17 0-26.6-14.2-26.6-29.6 0-15.4 9.6-29.6 26.6-29.6 6.5 0 11.9 2.9 14.5 6v-4.7h13v52.9c0 21-16 28.2-29.6 28.2-7.7 0-14.5-1.9-19.2-4.9v-13.8c6 5.3 11.9 7.3 19.2 7.3 9.2 0 16.6-5.5 16.6-15.8v-2Zm0-35c-2.2-3.9-6.9-6.9-12.3-6.9-10 0-15.7 7.7-15.7 18.2s5.7 18.2 15.7 18.2c5.5 0 10.1-3 12.3-6.9V60.4Zm27.9-17h13v5.5c3.1-3.6 8.8-6.8 15.6-6.8 13.1 0 20.4 8.7 20.4 21.4V101h-13V65.8c0-7.1-3.5-11.8-10.9-11.8-5.6 0-10.6 3.5-12.1 9.2v37.9h-13V43.4Zm78 27.9V101h-13.5V21.3h30.8c16.5 0 27.3 8.6 27.3 25.1 0 16.2-10.8 24.9-27.3 24.9h-17.3ZM435 33h-17v26.6h17c9.4 0 14.2-5.6 14.2-13.2-.1-7.9-4.9-13.4-14.2-13.4Zm68 31.2c0-6.5-5.2-10.3-13.2-10.3-6.2 0-11.3 1.9-16 5.1V47.1c3.8-2.7 11-4.9 18.3-4.9 14.9 0 23.4 8.1 23.4 21.2v37.8H503V98c-1.9 1.9-7.7 4.3-14.2 4.3-11.8 0-21.6-7-21.6-18.8 0-10.9 9.7-18.6 22.5-18.6 5.2 0 10.9 1.8 13.2 3.5l.1-4.2Zm0 16.8c-1.4-3.6-6.5-5.8-11.7-5.8-5.8 0-11.9 2.5-11.9 8.2 0 5.8 6.1 8.3 11.9 8.3 5.2 0 10.3-2.2 11.7-5.8V81Zm45.7 20.1h-13V54.2H524V43.4h11.7V28h13v15.5h13v10.7h-13v46.9Zm22.5-84.4h13v32.2c3.1-3.6 8.8-6.8 15.6-6.8 13.1 0 20.4 8.7 20.4 21.4V101h-13V65.8c0-7.1-3.5-11.8-10.9-11.8-5.6 0-10.7 3.5-12.1 9.2v37.9h-13V16.7Z"
        style="fill:#00b1e6;fill-rule:nonzero" transform="translate(4.5 95)" />
</svg>