<?xml version="1.0" encoding="UTF-8" standalone="no"?>
<!DOCTYPE svg PUBLIC "-//W3C//DTD SVG 1.1//EN" "http://www.w3.org/Graphics/SVG/1.1/DTD/svg11.dtd">
<svg width="100%" height="100%" viewBox="0 0 621 125" version="1.1" xmlns="http://www.w3.org/2000/svg"
    xmlns:xlink="http://www.w3.org/1999/xlink" xml:space="preserve" xmlns:serif="http://www.serif.com/"
    style="fill-rule:evenodd;clip-rule:evenodd;stroke-linejoin:round;stroke-miterlimit:2;">
    <rect x="0" y="0" width="621" height="124.6" style="fill:#fff;" />
    <path
        d="M106.3,0l-70.8,0l-35.5,61.4l35.4,61.4l70.9,0l35.4,-61.4l-35.4,-61.4Zm1.7,68.6c-0.7,1.6 -2.3,2.6 -4.1,2.6l-36.8,0c-2.5,0 -4.5,-2 -4.5,-4.5c-0,-2.5 2,-4.5 4.5,-4.5l26.8,0l-10.5,-11.9c-1.486,-1.675 -1.486,-4.225 -0,-5.9l10.5,-11.9l-44.3,-0l-0,71.2c-0,2.5 -2,4.5 -4.5,4.5c-2.5,-0 -4.5,-2 -4.5,-4.5l-0,-84.8c-0,-2.5 2,-4.5 4.5,-4.5c2.5,-0 4.5,2 4.5,4.5l-0,4.6l54.3,-0c1.8,-0 3.4,1 4.1,2.6c0.7,1.6 0.4,3.5 -0.7,4.8l-14.4,16.4l14.4,16.4c1.1,1.4 1.4,3.3 0.7,4.9Zm73.3,12.6c7.3,5.8 16,9.2 25.3,9.2c9.1,-0 15.5,-3.2 15.5,-10.4c-0,-6.2 -4,-8.7 -11.2,-11.4l-11.6,-4.2c-10.6,-3.9 -18.7,-9.6 -18.7,-22.7c-0,-14 12.2,-21.7 26.9,-21.7c9,-0 17.1,2.3 23.5,6.5l-0,13.9c-6.6,-5.1 -13.9,-8.6 -23.2,-8.6c-8.1,-0 -14,3.1 -14,9.6c-0,5.8 3.8,8.2 10.4,10.5l12.9,4.7c12.5,4.5 18.2,11.6 18.2,23.1c-0,14.5 -12.3,22.6 -28.6,22.6c-10.6,-0 -19.7,-3.1 -25.3,-7l-0.1,-14.1Zm72.1,-47.3c-4.3,-0 -8.1,-3.5 -8.1,-7.9c-0,-4.4 3.8,-7.9 8.1,-7.9c4.3,-0 8.1,3.5 8.1,7.9c-0,4.4 -3.8,7.9 -8.1,7.9Zm6.5,67.2l-13,-0l-0,-57.7l13,-0l-0,57.7Zm52.1,-5.7c-2.6,3.1 -8.1,6 -14.5,6c-17,-0 -26.6,-14.2 -26.6,-29.6c-0,-15.4 9.6,-29.6 26.6,-29.6c6.5,-0 11.9,2.9 14.5,6l-0,-4.7l13,-0l-0,52.9c-0,21 -16,28.2 -29.6,28.2c-7.7,-0 -14.5,-1.9 -19.2,-4.9l-0,-13.8c6,5.3 11.9,7.3 19.2,7.3c9.2,0 16.6,-5.5 16.6,-15.8l-0,-2Zm-0,-35c-2.2,-3.9 -6.9,-6.9 -12.3,-6.9c-10,-0 -15.7,7.7 -15.7,18.2c-0,10.5 5.7,18.2 15.7,18.2c5.5,0 10.1,-3 12.3,-6.9l-0,-22.6Zm27.9,-17l13,0l-0,5.5c3.1,-3.6 8.8,-6.8 15.6,-6.8c13.1,0 20.4,8.7 20.4,21.4l-0,37.5l-13,0l-0,-35.2c-0,-7.1 -3.5,-11.8 -10.9,-11.8c-5.6,0 -10.6,3.5 -12.1,9.2l-0,37.9l-13,0l-0,-57.7Zm78,27.9l-0,29.7l-13.5,0l-0,-79.7l30.8,0c16.5,0 27.3,8.6 27.3,25.1c-0,16.2 -10.8,24.9 -27.3,24.9l-17.3,0Zm17.1,-38.3l-17,0l-0,26.6l17,0c9.4,0 14.2,-5.6 14.2,-13.2c-0.1,-7.9 -4.9,-13.4 -14.2,-13.4Zm68,31.2c-0,-6.5 -5.2,-10.3 -13.2,-10.3c-6.2,0 -11.3,1.9 -16,5.1l-0,-11.9c3.8,-2.7 11,-4.9 18.3,-4.9c14.9,0 23.4,8.1 23.4,21.2l-0,37.8l-12.5,0l-0,-3.2c-1.9,1.9 -7.7,4.3 -14.2,4.3c-11.8,0 -21.6,-7 -21.6,-18.8c-0,-10.9 9.7,-18.6 22.5,-18.6c5.2,0 10.9,1.8 13.2,3.5l0.1,-4.2Zm-0,16.8c-1.4,-3.6 -6.5,-5.8 -11.7,-5.8c-5.8,0 -11.9,2.5 -11.9,8.2c-0,5.8 6.1,8.3 11.9,8.3c5.2,0 10.3,-2.2 11.7,-5.8l-0,-4.9Zm45.7,20.1l-13,0l-0,-46.9l-11.7,0l-0,-10.8l11.7,0l-0,-15.4l13,0l-0,15.5l13,0l-0,10.7l-13,0l-0,46.9Zm22.5,-84.4l13,0l-0,32.2c3.1,-3.6 8.8,-6.8 15.6,-6.8c13.1,0 20.4,8.7 20.4,21.4l-0,37.5l-13,0l-0,-35.2c-0,-7.1 -3.5,-11.8 -10.9,-11.8c-5.6,0 -10.7,3.5 -12.1,9.2l-0,37.9l-13,0l-0,-84.4Z"
        style="fill:#00b1e6;fill-rule:nonzero;" />
</svg>