<?xml version="1.0" encoding="UTF-8" standalone="no"?>
<!DOCTYPE svg PUBLIC "-//W3C//DTD SVG 1.1//EN" "http://www.w3.org/Graphics/SVG/1.1/DTD/svg11.dtd">
<svg width="100%" height="100%" viewBox="0 0 621 125" version="1.1" xmlns="http://www.w3.org/2000/svg"
    xmlns:xlink="http://www.w3.org/1999/xlink" xml:space="preserve" xmlns:serif="http://www.serif.com/"
    style="fill-rule:evenodd;clip-rule:evenodd;stroke-linejoin:round;stroke-miterlimit:2;">
    <path
        d="M620.2,31.25L620.2,93.75C620.2,110.997 606.197,125 588.95,125L31.25,125C14.003,125 0,110.997 0,93.75L0,31.25C0,14.003 14.003,0 31.25,0L588.95,0C606.197,0 620.2,14.003 620.2,31.25Z"
        style="fill:rgb(238,238,238);" />
    <path
        d="M106.3,0L35.5,0L0,61.4L35.4,122.8L106.3,122.8L141.7,61.4L106.3,0ZM108,68.6C107.3,70.2 105.7,71.2 103.9,71.2L67.1,71.2C64.6,71.2 62.6,69.2 62.6,66.7C62.6,64.2 64.6,62.2 67.1,62.2L93.9,62.2L83.4,50.3C81.914,48.625 81.914,46.075 83.4,44.4L93.9,32.5L49.6,32.5L49.6,103.7C49.6,106.2 47.6,108.2 45.1,108.2C42.6,108.2 40.6,106.2 40.6,103.7L40.6,18.9C40.6,16.4 42.6,14.4 45.1,14.4C47.6,14.4 49.6,16.4 49.6,18.9L49.6,23.5L103.9,23.5C105.7,23.5 107.3,24.5 108,26.1C108.7,27.7 108.4,29.6 107.3,30.9L92.9,47.3L107.3,63.7C108.4,65.1 108.7,67 108,68.6ZM181.3,81.2C188.6,87 197.3,90.4 206.6,90.4C215.7,90.4 222.1,87.2 222.1,80C222.1,73.8 218.1,71.3 210.9,68.6L199.3,64.4C188.7,60.5 180.6,54.8 180.6,41.7C180.6,27.7 192.8,20 207.5,20C216.5,20 224.6,22.3 231,26.5L231,40.4C224.4,35.3 217.1,31.8 207.8,31.8C199.7,31.8 193.8,34.9 193.8,41.4C193.8,47.2 197.6,49.6 204.2,51.9L217.1,56.6C229.6,61.1 235.3,68.2 235.3,79.7C235.3,94.2 223,102.3 206.7,102.3C196.1,102.3 187,99.2 181.4,95.3L181.3,81.2ZM253.4,33.9C249.1,33.9 245.3,30.4 245.3,26C245.3,21.6 249.1,18.1 253.4,18.1C257.7,18.1 261.5,21.6 261.5,26C261.5,30.4 257.7,33.9 253.4,33.9ZM259.9,101.1L246.9,101.1L246.9,43.4L259.9,43.4L259.9,101.1ZM312,95.4C309.4,98.5 303.9,101.4 297.5,101.4C280.5,101.4 270.9,87.2 270.9,71.8C270.9,56.4 280.5,42.2 297.5,42.2C304,42.2 309.4,45.1 312,48.2L312,43.5L325,43.5L325,96.4C325,117.4 309,124.6 295.4,124.6C287.7,124.6 280.9,122.7 276.2,119.7L276.2,105.9C282.2,111.2 288.1,113.2 295.4,113.2C304.6,113.2 312,107.7 312,97.4L312,95.4ZM312,60.4C309.8,56.5 305.1,53.5 299.7,53.5C289.7,53.5 284,61.2 284,71.7C284,82.2 289.7,89.9 299.7,89.9C305.2,89.9 309.8,86.9 312,83L312,60.4ZM339.9,43.4L352.9,43.4L352.9,48.9C356,45.3 361.7,42.1 368.5,42.1C381.6,42.1 388.9,50.8 388.9,63.5L388.9,101L375.9,101L375.9,65.8C375.9,58.7 372.4,54 365,54C359.4,54 354.4,57.5 352.9,63.2L352.9,101.1L339.9,101.1L339.9,43.4ZM417.9,71.3L417.9,101L404.4,101L404.4,21.3L435.2,21.3C451.7,21.3 462.5,29.9 462.5,46.4C462.5,62.6 451.7,71.3 435.2,71.3L417.9,71.3ZM435,33L418,33L418,59.6L435,59.6C444.4,59.6 449.2,54 449.2,46.4C449.1,38.5 444.3,33 435,33ZM503,64.2C503,57.7 497.8,53.9 489.8,53.9C483.6,53.9 478.5,55.8 473.8,59L473.8,47.1C477.6,44.4 484.8,42.2 492.1,42.2C507,42.2 515.5,50.3 515.5,63.4L515.5,101.2L503,101.2L503,98C501.1,99.9 495.3,102.3 488.8,102.3C477,102.3 467.2,95.3 467.2,83.5C467.2,72.6 476.9,64.9 489.7,64.9C494.9,64.9 500.6,66.7 502.9,68.4L503,64.2ZM503,81C501.6,77.4 496.5,75.2 491.3,75.2C485.5,75.2 479.4,77.7 479.4,83.4C479.4,89.2 485.5,91.7 491.3,91.7C496.5,91.7 501.6,89.5 503,85.9L503,81ZM548.7,101.1L535.7,101.1L535.7,54.2L524,54.2L524,43.4L535.7,43.4L535.7,28L548.7,28L548.7,43.5L561.7,43.5L561.7,54.2L548.7,54.2L548.7,101.1ZM571.2,16.7L584.2,16.7L584.2,48.9C587.3,45.3 593,42.1 599.8,42.1C612.9,42.1 620.2,50.8 620.2,63.5L620.2,101L607.2,101L607.2,65.8C607.2,58.7 603.7,54 596.3,54C590.7,54 585.6,57.5 584.2,63.2L584.2,101.1L571.2,101.1L571.2,16.7Z"
        style="fill:rgb(0,177,230);fill-rule:nonzero;" />
</svg>