<svg width="100%" height="100%" viewBox="0 0 370 185" xmlns="http://www.w3.org/2000/svg" xml:space="preserve"
    style="fill-rule:evenodd;clip-rule:evenodd">
    <path
        d="M370 27.75v129.5c0 15.316-12.434 27.75-27.75 27.75H27.75C12.434 185 0 172.566 0 157.25V27.75C0 12.434 12.434 0 27.75 0h314.5C357.566 0 370 12.434 370 27.75Z"
        style="fill:#f2f2f2" />
    <g transform="translate(4 44.5)">
        <clipPath id="a">
            <path d="M.5 0h361v96H.5z" />
        </clipPath>
        <g clip-path="url(#a)">
            <path
                d="M148.426 25.971h-8.734v4.11c0 2.954-1.605 5.202-4.945 5.202h-1.605v8.541h5.651v13.679c0 6.358 4.046 10.275 10.661 10.275 3.082 0 4.688-.706 5.073-.899v-8.091c-.578.128-1.541.321-2.569.321-2.119 0-3.532-.707-3.532-3.34V43.824h6.23v-8.541h-6.23v-9.312Zm20.23 21.45h12.78c-.129-2.441-1.799-5.395-6.422-5.395-4.111 0-6.166 3.018-6.358 5.395Zm13.486 8.284 8.156 2.312c-1.541 5.523-6.615 10.147-14.706 10.147-8.799 0-16.634-6.294-16.634-17.019 0-10.275 7.643-16.825 15.927-16.825 9.89 0 15.991 6.101 15.991 16.376 0 1.349-.128 2.826-.193 3.018h-22.22c.193 3.597 3.468 6.165 7.257 6.165 3.532 0 5.523-1.669 6.422-4.174Zm35.321-20.422c-.642-.193-1.605-.321-2.568-.321-2.569 0-6.615 1.027-8.285 4.624v-4.303h-9.44v31.918h9.761V53.265c0-6.358 3.532-8.67 7.45-8.67.963 0 1.991.064 3.082.321v-9.633Zm15.349 31.918V48.833c0-2.889 1.863-5.522 5.266-5.522 3.532 0 5.138 2.376 5.138 5.394v18.496h9.633V48.769c0-2.825 1.862-5.458 5.33-5.458s5.074 2.376 5.074 5.394v18.496h9.44V46.522c0-8.67-5.78-12.202-11.816-12.202-4.303 0-7.386 1.412-9.89 5.009-1.606-3.147-4.881-5.009-9.441-5.009-3.468 0-7.578 1.798-9.183 4.623v-3.66h-9.312v31.918h9.761Zm57.863 0V35.283h-9.761v31.918h9.761Zm-10.596-41.68c0 3.147 2.568 5.716 5.651 5.716 3.211 0 5.78-2.569 5.78-5.716 0-3.146-2.569-5.715-5.78-5.715-3.083 0-5.651 2.569-5.651 5.715Zm39.752 41.68h9.376a50.132 50.132 0 0 1-.321-5.716V35.283h-9.761v18.174c0 3.211-2.055 5.459-5.33 5.459-3.468 0-5.138-2.44-5.138-5.523v-18.11h-9.762v20.165c0 6.808 4.367 12.459 12.138 12.459 3.211 0 6.872-1.156 8.541-3.917 0 .834.129 2.633.257 3.211Zm15.028-9.056c.257 3.533 3.468 10.019 13.486 10.019 8.542 0 12.716-5.33 12.716-10.789 0-4.688-3.211-8.67-9.826-10.019l-4.238-.834c-1.413-.257-2.505-1.028-2.505-2.377 0-1.669 1.606-2.761 3.468-2.761 2.954 0 4.303 1.798 4.56 3.917l8.091-1.477c-.321-3.725-3.532-9.504-12.779-9.504-7.129 0-12.267 4.752-12.267 10.596 0 4.495 2.698 8.349 9.505 9.826l3.661.835c2.376.513 3.146 1.477 3.146 2.633 0 1.413-1.22 2.761-3.724 2.761-3.34 0-4.881-2.119-5.01-4.303l-8.284 1.477Z"
                style="fill:#141729" />
            <path
                d="M83.147 81.851c-.382 0-.765-.008-1.148-.024A29.31 29.31 0 0 1 57.488 95.03v-7.486c8.03 0 15.372-4.367 19.216-11.428l1.224-2.249 2.54.326c.888.114 1.79.172 2.679.172 11.51 0 20.881-9.371 20.881-20.882 0-6.173-2.864-12.219-7.651-16.154L94.9 36.116l.117-1.907c.024-.396.037-.798.037-1.197 0-11.046-8.994-20.04-20.04-20.04a19.936 19.936 0 0 0-11.119 3.369l-2.786 1.86-2.157-2.565a19.966 19.966 0 0 0-15.345-7.15c-11.046 0-20.039 8.993-20.039 20.04 0 .308.007.62.022.929l.119 2.543-2.321 1.045A21.044 21.044 0 0 0 8.986 52.221c0 11.589 9.433 21.022 21.021 21.022 1.232 0 2.467-.107 3.672-.319l2.811-.495 1.221 2.579c3.61 7.624 11.357 12.536 19.777 12.536v7.486c-10.393 0-19.996-5.552-25.249-14.387a29.15 29.15 0 0 1-2.232.086C14.285 80.729 1.5 67.944 1.5 52.221a28.528 28.528 0 0 1 14.608-24.893C16.737 12.701 28.828 1 43.607 1a27.436 27.436 0 0 1 18.885 7.498 27.411 27.411 0 0 1 12.522-3.012c15.105 0 27.403 12.223 27.525 27.3 5.661 5.33 8.975 12.908 8.975 20.697 0 15.645-12.722 28.368-28.367 28.368Zm-11.44-24.255c-2.542.972-5.045 1.465-7.452 1.465-2.416 0-4.799-.495-7.077-1.469l-.184-.078c-.839-.361-1.198-.796-1.198-1.75V54.49c0-1.121.645-1.842 1.697-1.842l.236.032.063.024a17.528 17.528 0 0 0 6.459 1.238c2.211 0 4.527-.419 6.882-1.248l.211-.046h.059c1.053 0 1.699.721 1.699 1.842v1.274c0 1.014-.349 1.382-1.321 1.8l-.074.032ZM40.496 45.378c-.714.15-1.247.716-1.247 1.743v2.136c0 .807.495 1.362 1.266 1.362.181 0 .366-.03.574-.092l12.307-3.981c.934-.311 1.447-1.061 1.447-2.087v-1.775c0-1.027-.513-1.776-1.446-2.087l-12.281-3.973a1.847 1.847 0 0 0-.647-.128c-.651 0-1.22.409-1.22 1.357v2.169c0 .988.516 1.552 1.231 1.739l6.897 1.811-6.881 1.806Z"
                style="fill:#141729;fill-rule:nonzero" />
            <path
                d="M57.488 95.03c9.94 0 19.105-4.995 24.511-13.203.383.016.766.024 1.148.024 15.645 0 28.367-12.723 28.367-28.368 0-7.789-3.314-15.367-8.975-20.697-.122-15.077-12.42-27.3-27.525-27.3a27.414 27.414 0 0 0-12.522 3.012A27.436 27.436 0 0 0 43.607 1c-14.779 0-26.87 11.701-27.499 26.328A28.528 28.528 0 0 0 1.5 52.221c0 15.723 12.785 28.508 28.507 28.508.745 0 1.49-.029 2.232-.087 5.253 8.836 14.856 14.388 25.249 14.388Zm0 0v-7.486m0 0c8.03 0 15.372-4.367 19.216-11.428l1.224-2.249 2.54.326c.888.114 1.79.172 2.679.172 11.51 0 20.881-9.371 20.881-20.882 0-6.173-2.864-12.219-7.651-16.154L94.9 36.116l.117-1.907c.024-.396.037-.798.037-1.197 0-11.046-8.994-20.04-20.04-20.04a19.936 19.936 0 0 0-11.119 3.369l-2.786 1.86-2.157-2.565a19.966 19.966 0 0 0-15.345-7.15c-11.046 0-20.039 8.993-20.039 20.04 0 .308.007.62.022.929l.119 2.543-2.321 1.045A21.044 21.044 0 0 0 8.986 52.221c0 11.589 9.433 21.022 21.021 21.022 1.232 0 2.467-.107 3.672-.319l2.811-.495 1.221 2.579c3.61 7.624 11.357 12.536 19.777 12.536Zm14.219-29.948c-2.542.973-5.045 1.465-7.452 1.465-2.416 0-4.799-.495-7.077-1.469l-.184-.078c-.839-.361-1.198-.796-1.198-1.75V54.49c0-1.121.645-1.842 1.697-1.842l.236.032.063.024a17.528 17.528 0 0 0 6.459 1.238c2.211 0 4.527-.419 6.882-1.248l.211-.046h.059c1.053 0 1.699.721 1.699 1.842v1.274c0 1.014-.349 1.382-1.321 1.801l-.074.031ZM40.496 45.378c-.714.15-1.247.716-1.247 1.743v2.137c0 .807.495 1.361 1.266 1.361.181 0 .366-.03.574-.092l12.307-3.981c.934-.311 1.447-1.061 1.447-2.087v-1.775c0-1.026-.513-1.776-1.446-2.087l-12.281-3.973a1.847 1.847 0 0 0-.647-.128c-.651 0-1.22.409-1.22 1.357v2.169c0 .988.516 1.552 1.231 1.739l6.897 1.811-6.881 1.806Z"
                style="fill:none;fill-rule:nonzero;stroke:#141729;stroke-width:.5px" />
        </g>
    </g>
</svg>