<svg width="100%" height="100%" viewBox="0 0 360 180" version="1.1" xmlns="http://www.w3.org/2000/svg"
    xmlns:xlink="http://www.w3.org/1999/xlink" xml:space="preserve" xmlns:serif="http://www.serif.com/"
    style="fill-rule:evenodd;clip-rule:evenodd;">
    <g transform="matrix(1.00122,0,0,1.00122,-1.50183,41.9264)">
        <g>
            <g>
                <clipPath id="_clip1">
                    <rect x="0.5" y="0" width="361" height="96" />
                </clipPath>
                <g clip-path="url(#_clip1)">
                    <path
                        d="M148.426,25.971L139.692,25.971L139.692,30.081C139.692,33.035 138.087,35.283 134.747,35.283L133.142,35.283L133.142,43.824L138.793,43.824L138.793,57.503C138.793,63.861 142.839,67.778 149.454,67.778C152.536,67.778 154.142,67.072 154.527,66.879L154.527,58.788C153.949,58.916 152.986,59.109 151.958,59.109C149.839,59.109 148.426,58.402 148.426,55.769L148.426,43.824L154.656,43.824L154.656,35.283L148.426,35.283L148.426,25.971ZM168.656,47.421L181.436,47.421C181.307,44.98 179.637,42.026 175.014,42.026C170.903,42.026 168.848,45.044 168.656,47.421ZM182.142,55.705L190.298,58.017C188.757,63.54 183.683,68.164 175.592,68.164C166.793,68.164 158.958,61.87 158.958,51.145C158.958,40.87 166.601,34.32 174.885,34.32C184.775,34.32 190.876,40.421 190.876,50.696C190.876,52.045 190.748,53.522 190.683,53.714L168.463,53.714C168.656,57.311 171.931,59.879 175.72,59.879C179.252,59.879 181.243,58.21 182.142,55.705ZM217.463,35.283C216.821,35.09 215.858,34.962 214.895,34.962C212.326,34.962 208.28,35.989 206.61,39.586L206.61,35.283L197.17,35.283L197.17,67.201L206.931,67.201L206.931,53.265C206.931,46.907 210.463,44.595 214.381,44.595C215.344,44.595 216.372,44.659 217.463,44.916L217.463,35.283ZM232.812,67.201L232.812,48.833C232.812,45.944 234.675,43.311 238.078,43.311C241.61,43.311 243.216,45.687 243.216,48.705L243.216,67.201L252.849,67.201L252.849,48.769C252.849,45.944 254.711,43.311 258.179,43.311C261.647,43.311 263.253,45.687 263.253,48.705L263.253,67.201L272.693,67.201L272.693,46.522C272.693,37.852 266.913,34.32 260.877,34.32C256.574,34.32 253.491,35.732 250.987,39.329C249.381,36.182 246.106,34.32 241.546,34.32C238.078,34.32 233.968,36.118 232.363,38.943L232.363,35.283L223.051,35.283L223.051,67.201L232.812,67.201ZM290.675,67.201L290.675,35.283L280.914,35.283L280.914,67.201L290.675,67.201ZM280.079,25.521C280.079,28.668 282.647,31.237 285.73,31.237C288.941,31.237 291.51,28.668 291.51,25.521C291.51,22.375 288.941,19.806 285.73,19.806C282.647,19.806 280.079,22.375 280.079,25.521ZM319.831,67.201L329.207,67.201C328.991,65.303 328.884,63.395 328.886,61.485L328.886,35.283L319.125,35.283L319.125,53.457C319.125,56.668 317.07,58.916 313.795,58.916C310.327,58.916 308.657,56.476 308.657,53.393L308.657,35.283L298.895,35.283L298.895,55.448C298.895,62.256 303.262,67.907 311.033,67.907C314.244,67.907 317.905,66.751 319.574,63.99C319.574,64.824 319.703,66.623 319.831,67.201ZM334.859,58.145C335.116,61.678 338.327,68.164 348.345,68.164C356.887,68.164 361.061,62.834 361.061,57.375C361.061,52.687 357.85,48.705 351.235,47.356L346.997,46.522C345.584,46.265 344.492,45.494 344.492,44.145C344.492,42.476 346.098,41.384 347.96,41.384C350.914,41.384 352.263,43.182 352.52,45.301L360.611,43.824C360.29,40.099 357.079,34.32 347.832,34.32C340.703,34.32 335.565,39.072 335.565,44.916C335.565,49.411 338.263,53.265 345.07,54.742L348.731,55.577C351.107,56.09 351.877,57.054 351.877,58.21C351.877,59.623 350.657,60.971 348.153,60.971C344.813,60.971 343.272,58.852 343.143,56.668L334.859,58.145Z"
                        style="fill:rgb(20,23,41);" />
                    <path
                        d="M83.147,81.851C82.765,81.851 82.382,81.843 81.999,81.827C76.579,90.067 67.351,95.038 57.488,95.03L57.488,87.544C65.518,87.544 72.86,83.177 76.704,76.116L77.928,73.867L80.468,74.193C81.356,74.307 82.258,74.365 83.147,74.365C94.657,74.365 104.028,64.994 104.028,53.483C104.028,47.31 101.164,41.264 96.377,37.329L94.9,36.116L95.017,34.209C95.041,33.813 95.054,33.411 95.054,33.012C95.054,21.966 86.06,12.972 75.014,12.972C71.056,12.966 67.184,14.139 63.895,16.341L61.109,18.201L58.952,15.636C55.153,11.098 49.526,8.476 43.607,8.486C32.561,8.486 23.568,17.479 23.568,28.526C23.568,28.834 23.575,29.146 23.59,29.455L23.709,31.998L21.388,33.043C13.857,36.435 8.99,43.961 8.986,52.221C8.986,63.81 18.419,73.243 30.007,73.243C31.239,73.243 32.474,73.136 33.679,72.924L36.49,72.429L37.711,75.008C41.321,82.632 49.068,87.544 57.488,87.544L57.488,95.03C47.095,95.03 37.492,89.478 32.239,80.643C31.496,80.7 30.752,80.729 30.007,80.729C14.285,80.729 1.5,67.944 1.5,52.221C1.503,41.904 7.103,32.362 16.108,27.328C16.737,12.701 28.828,1 43.607,1C50.627,0.99 57.39,3.675 62.492,8.498C66.367,6.514 70.66,5.481 75.014,5.486C90.119,5.486 102.417,17.709 102.539,32.786C108.2,38.116 111.514,45.694 111.514,53.483C111.514,69.128 98.792,81.851 83.147,81.851ZM71.707,57.596C69.165,58.568 66.662,59.061 64.255,59.061C61.839,59.061 59.456,58.566 57.178,57.592L56.994,57.514C56.155,57.153 55.796,56.718 55.796,55.764L55.796,54.49C55.796,53.369 56.441,52.648 57.493,52.648L57.729,52.68L57.792,52.704C59.848,53.52 62.039,53.941 64.251,53.942C66.462,53.942 68.778,53.523 71.133,52.694L71.344,52.648L71.403,52.648C72.456,52.648 73.102,53.369 73.102,54.49L73.102,55.764C73.102,56.778 72.753,57.146 71.781,57.564L71.707,57.596ZM40.496,45.378C39.782,45.528 39.249,46.094 39.249,47.121L39.249,49.257C39.249,50.064 39.744,50.619 40.515,50.619C40.696,50.619 40.881,50.589 41.089,50.527L53.396,46.546C54.33,46.235 54.843,45.485 54.843,44.459L54.843,42.684C54.843,41.657 54.33,40.908 53.397,40.597L41.116,36.624C40.91,36.543 40.691,36.5 40.469,36.496C39.818,36.496 39.249,36.905 39.249,37.853L39.249,40.022C39.249,41.01 39.765,41.574 40.48,41.761L47.377,43.572L40.496,45.378Z"
                        style="fill:rgb(20,23,41);fill-rule:nonzero;" />
                    <path
                        d="M57.488,95.03C67.428,95.03 76.593,90.035 81.999,81.827C82.382,81.843 82.765,81.851 83.147,81.851C98.792,81.851 111.514,69.128 111.514,53.483C111.514,45.694 108.2,38.116 102.539,32.786C102.417,17.709 90.119,5.486 75.014,5.486C70.66,5.481 66.367,6.514 62.492,8.498C57.39,3.675 50.627,0.99 43.607,1C28.828,1 16.737,12.701 16.108,27.328C7.103,32.362 1.503,41.904 1.5,52.221C1.5,67.944 14.285,80.729 30.007,80.729C30.752,80.729 31.497,80.7 32.239,80.642C37.492,89.478 47.095,95.03 57.488,95.03ZM57.488,95.03L57.488,87.544M57.488,87.544C65.518,87.544 72.86,83.177 76.704,76.116L77.928,73.867L80.468,74.193C81.356,74.307 82.258,74.365 83.147,74.365C94.657,74.365 104.028,64.994 104.028,53.483C104.028,47.31 101.164,41.264 96.377,37.329L94.9,36.116L95.017,34.209C95.041,33.813 95.054,33.411 95.054,33.012C95.054,21.966 86.06,12.972 75.014,12.972C71.056,12.966 67.184,14.139 63.895,16.341L61.109,18.201L58.952,15.636C55.153,11.098 49.526,8.476 43.607,8.486C32.561,8.486 23.568,17.479 23.568,28.526C23.568,28.834 23.575,29.146 23.59,29.455L23.709,31.998L21.388,33.043C13.857,36.435 8.99,43.961 8.986,52.221C8.986,63.81 18.419,73.243 30.007,73.243C31.239,73.243 32.474,73.136 33.679,72.924L36.49,72.429L37.711,75.008C41.321,82.632 49.068,87.544 57.488,87.544ZM71.707,57.596C69.165,58.569 66.662,59.061 64.255,59.061C61.839,59.061 59.456,58.566 57.178,57.592L56.994,57.514C56.155,57.153 55.796,56.718 55.796,55.764L55.796,54.49C55.796,53.369 56.441,52.648 57.493,52.648L57.729,52.68L57.792,52.704C59.848,53.52 62.039,53.941 64.251,53.942C66.462,53.942 68.778,53.523 71.133,52.694L71.344,52.648L71.403,52.648C72.456,52.648 73.102,53.369 73.102,54.49L73.102,55.764C73.102,56.778 72.753,57.146 71.781,57.565L71.707,57.596ZM40.496,45.378C39.782,45.528 39.249,46.094 39.249,47.121L39.249,49.258C39.249,50.065 39.744,50.619 40.515,50.619C40.696,50.619 40.881,50.589 41.089,50.527L53.396,46.546C54.33,46.235 54.843,45.485 54.843,44.459L54.843,42.684C54.843,41.658 54.33,40.908 53.397,40.597L41.116,36.624C40.91,36.543 40.691,36.5 40.469,36.496C39.818,36.496 39.249,36.905 39.249,37.853L39.249,40.022C39.249,41.01 39.765,41.574 40.48,41.761L47.377,43.572L40.496,45.378Z"
                        style="fill:none;fill-rule:nonzero;stroke:rgb(20,23,41);stroke-width:0.5px;" />
                </g>
            </g>
        </g>
    </g>
</svg>