<svg width="100%" height="100%" viewBox="0 0 362 96" version="1.1" xmlns="http://www.w3.org/2000/svg"
    xmlns:xlink="http://www.w3.org/1999/xlink" xml:space="preserve" xmlns:serif="http://www.serif.com/"
    style="fill-rule:evenodd;clip-rule:evenodd;">
    <g>
        <clipPath id="_clip1">
            <rect x="0.5" y="0" width="361" height="96" />
        </clipPath>
        <g clip-path="url(#_clip1)">
            <path
                d="M148.426,25.971l-8.734,-0l0,4.11c0,2.954 -1.605,5.202 -4.945,5.202l-1.605,-0l-0,8.541l5.651,0l-0,13.679c-0,6.358 4.046,10.275 10.661,10.275c3.082,0 4.688,-0.706 5.073,-0.899l-0,-8.091c-0.578,0.128 -1.541,0.321 -2.569,0.321c-2.119,-0 -3.532,-0.707 -3.532,-3.34l-0,-11.945l6.23,0l-0,-8.541l-6.23,-0l-0,-9.312Zm20.23,21.45l12.78,-0c-0.129,-2.441 -1.799,-5.395 -6.422,-5.395c-4.111,0 -6.166,3.018 -6.358,5.395Zm13.486,8.284l8.156,2.312c-1.541,5.523 -6.615,10.147 -14.706,10.147c-8.799,-0 -16.634,-6.294 -16.634,-17.019c-0,-10.275 7.643,-16.825 15.927,-16.825c9.89,-0 15.991,6.101 15.991,16.376c-0,1.349 -0.128,2.826 -0.193,3.018l-22.22,0c0.193,3.597 3.468,6.165 7.257,6.165c3.532,0 5.523,-1.669 6.422,-4.174Zm35.321,-20.422c-0.642,-0.193 -1.605,-0.321 -2.568,-0.321c-2.569,-0 -6.615,1.027 -8.285,4.624l0,-4.303l-9.44,-0l-0,31.918l9.761,-0l0,-13.936c0,-6.358 3.532,-8.67 7.45,-8.67c0.963,-0 1.991,0.064 3.082,0.321l0,-9.633Zm15.349,31.918l0,-18.368c0,-2.889 1.863,-5.522 5.266,-5.522c3.532,-0 5.138,2.376 5.138,5.394l0,18.496l9.633,-0l0,-18.432c0,-2.825 1.862,-5.458 5.33,-5.458c3.468,-0 5.074,2.376 5.074,5.394l0,18.496l9.44,-0l0,-20.679c0,-8.67 -5.78,-12.202 -11.816,-12.202c-4.303,-0 -7.386,1.412 -9.89,5.009c-1.606,-3.147 -4.881,-5.009 -9.441,-5.009c-3.468,-0 -7.578,1.798 -9.183,4.623l-0,-3.66l-9.312,-0l-0,31.918l9.761,-0Zm57.863,-0l0,-31.918l-9.761,-0l0,31.918l9.761,-0Zm-10.596,-41.68c0,3.147 2.568,5.716 5.651,5.716c3.211,0 5.78,-2.569 5.78,-5.716c0,-3.146 -2.569,-5.715 -5.78,-5.715c-3.083,-0 -5.651,2.569 -5.651,5.715Zm39.752,41.68l9.376,-0c-0.064,-0.514 -0.321,-2.826 -0.321,-5.716l0,-26.202l-9.761,-0l0,18.174c0,3.211 -2.055,5.459 -5.33,5.459c-3.468,0 -5.138,-2.44 -5.138,-5.523l0,-18.11l-9.762,-0l0,20.165c0,6.808 4.367,12.459 12.138,12.459c3.211,0 6.872,-1.156 8.541,-3.917c0,0.834 0.129,2.633 0.257,3.211Zm15.028,-9.056c0.257,3.533 3.468,10.019 13.486,10.019c8.542,-0 12.716,-5.33 12.716,-10.789c0,-4.688 -3.211,-8.67 -9.826,-10.019l-4.238,-0.834c-1.413,-0.257 -2.505,-1.028 -2.505,-2.377c0,-1.669 1.606,-2.761 3.468,-2.761c2.954,-0 4.303,1.798 4.56,3.917l8.091,-1.477c-0.321,-3.725 -3.532,-9.504 -12.779,-9.504c-7.129,-0 -12.267,4.752 -12.267,10.596c0,4.495 2.698,8.349 9.505,9.826l3.661,0.835c2.376,0.513 3.146,1.477 3.146,2.633c0,1.413 -1.22,2.761 -3.724,2.761c-3.34,0 -4.881,-2.119 -5.01,-4.303l-8.284,1.477Z"
                style="fill:#141729;" />
            <path
                d="M83.147,81.851c-0.382,-0 -0.765,-0.008 -1.148,-0.024c-5.406,8.209 -14.571,13.203 -24.511,13.203l-0,-7.486c8.03,-0 15.372,-4.367 19.216,-11.428l1.224,-2.249l2.54,0.326c0.888,0.114 1.79,0.172 2.679,0.172c11.51,-0 20.881,-9.371 20.881,-20.882c-0,-6.173 -2.864,-12.219 -7.651,-16.154l-1.477,-1.213l0.117,-1.907c0.024,-0.396 0.037,-0.798 0.037,-1.197c-0,-11.046 -8.994,-20.04 -20.04,-20.04c-3.979,0 -7.812,1.162 -11.119,3.369l-2.786,1.86l-2.157,-2.565c-3.828,-4.553 -9.399,-7.15 -15.345,-7.15c-11.046,-0 -20.039,8.993 -20.039,20.04c0,0.308 0.007,0.62 0.022,0.929l0.119,2.543l-2.321,1.045c-7.544,3.398 -12.402,10.907 -12.402,19.178c-0,11.589 9.433,21.022 21.021,21.022c1.232,0 2.467,-0.107 3.672,-0.319l2.811,-0.495l1.221,2.579c3.61,7.624 11.357,12.536 19.777,12.536l-0,7.486c-10.393,-0 -19.996,-5.552 -25.249,-14.387c-0.742,0.057 -1.487,0.086 -2.232,0.086c-15.722,0 -28.507,-12.785 -28.507,-28.508c-0,-10.388 5.648,-19.887 14.608,-24.893c0.629,-14.627 12.72,-26.328 27.499,-26.328c7.085,0 13.802,2.697 18.885,7.498c3.863,-1.978 8.135,-3.012 12.522,-3.012c15.105,0 27.403,12.223 27.525,27.3c5.661,5.33 8.975,12.908 8.975,20.697c-0,15.645 -12.722,28.368 -28.367,28.368Zm-11.44,-24.255c-2.542,0.972 -5.045,1.465 -7.452,1.465c-2.416,-0 -4.799,-0.495 -7.077,-1.469c-0.092,-0.039 -0.092,-0.039 -0.184,-0.078c-0.839,-0.361 -1.198,-0.796 -1.198,-1.75l-0,-1.274c-0,-1.121 0.645,-1.842 1.697,-1.842l0.236,0.032l0.063,0.024c2.083,0.822 4.256,1.238 6.459,1.238c2.211,0 4.527,-0.419 6.882,-1.248l0.211,-0.046l0.059,-0c1.053,-0 1.699,0.721 1.699,1.842l-0,1.274c-0,1.014 -0.349,1.382 -1.321,1.8l-0.074,0.032Zm-31.211,-12.218c-0.714,0.15 -1.247,0.716 -1.247,1.743l-0,2.136c-0,0.807 0.495,1.362 1.266,1.362c0.181,-0 0.366,-0.03 0.574,-0.092l12.307,-3.981c0.934,-0.311 1.447,-1.061 1.447,-2.087l-0,-1.775c-0,-1.027 -0.513,-1.776 -1.446,-2.087l-12.281,-3.973c-0.218,-0.082 -0.436,-0.128 -0.647,-0.128c-0.651,0 -1.22,0.409 -1.22,1.357l-0,2.169c-0,0.988 0.516,1.552 1.231,1.739l6.897,1.811l-6.881,1.806Z"
                style="fill:#141729;fill-rule:nonzero;" />
            <path
                d="M57.488,95.03c9.94,-0 19.105,-4.995 24.511,-13.203c0.383,0.016 0.766,0.024 1.148,0.024c15.645,-0 28.367,-12.723 28.367,-28.368c0,-7.789 -3.314,-15.367 -8.975,-20.697c-0.122,-15.077 -12.42,-27.3 -27.525,-27.3c-4.387,0 -8.658,1.034 -12.522,3.012c-5.083,-4.801 -11.8,-7.498 -18.885,-7.498c-14.779,-0 -26.87,11.701 -27.499,26.328c-8.96,5.006 -14.608,14.505 -14.608,24.893c0,15.723 12.785,28.508 28.507,28.508c0.745,0 1.49,-0.029 2.232,-0.087c5.253,8.836 14.856,14.388 25.249,14.388Zm-0,-0l-0,-7.486m-0,-0c8.03,-0 15.372,-4.367 19.216,-11.428l1.224,-2.249l2.54,0.326c0.888,0.114 1.79,0.172 2.679,0.172c11.51,-0 20.881,-9.371 20.881,-20.882c-0,-6.173 -2.864,-12.219 -7.651,-16.154l-1.477,-1.213l0.117,-1.907c0.024,-0.396 0.037,-0.798 0.037,-1.197c-0,-11.046 -8.994,-20.04 -20.04,-20.04c-3.979,0 -7.812,1.162 -11.119,3.369l-2.786,1.86l-2.157,-2.565c-3.828,-4.553 -9.399,-7.15 -15.345,-7.15c-11.046,-0 -20.039,8.993 -20.039,20.04c0,0.308 0.007,0.62 0.022,0.929l0.119,2.543l-2.321,1.045c-7.544,3.398 -12.402,10.907 -12.402,19.178c-0,11.589 9.433,21.022 21.021,21.022c1.232,0 2.467,-0.107 3.672,-0.319l2.811,-0.495l1.221,2.579c3.61,7.624 11.357,12.536 19.777,12.536Zm14.219,-29.948c-2.542,0.973 -5.045,1.465 -7.452,1.465c-2.416,0 -4.799,-0.495 -7.077,-1.469c-0.092,-0.038 -0.092,-0.038 -0.184,-0.078c-0.839,-0.361 -1.198,-0.796 -1.198,-1.75l-0,-1.274c-0,-1.121 0.645,-1.842 1.697,-1.842l0.236,0.032l0.063,0.024c2.083,0.822 4.256,1.238 6.459,1.238c2.211,0 4.527,-0.419 6.882,-1.248l0.211,-0.046l0.059,-0c1.053,-0 1.699,0.721 1.699,1.842l-0,1.274c-0,1.014 -0.349,1.382 -1.321,1.801l-0.074,0.031Zm-31.211,-12.218c-0.714,0.15 -1.247,0.716 -1.247,1.743l-0,2.137c-0,0.807 0.495,1.361 1.266,1.361c0.181,-0 0.366,-0.03 0.574,-0.092l12.307,-3.981c0.934,-0.311 1.447,-1.061 1.447,-2.087l-0,-1.775c-0,-1.026 -0.513,-1.776 -1.446,-2.087l-12.281,-3.973c-0.218,-0.082 -0.436,-0.128 -0.647,-0.128c-0.651,0 -1.22,0.409 -1.22,1.357l-0,2.169c-0,0.988 0.516,1.552 1.231,1.739l6.897,1.811l-6.881,1.806Z"
                style="fill:none;fill-rule:nonzero;stroke:#141729;stroke-width:0.5px;" />
        </g>
    </g>
</svg>