<svg width="362.000000" height="96.000000" viewBox="0 0 362 96" fill="none" xmlns="http://www.w3.org/2000/svg">
	<desc>
			Created with Pixso.
	</desc>
	<defs>
		<clipPath id="clip2_11">
			<rect id="termius-logo" width="362.000000" height="96.000000" fill="white" fill-opacity="0"/>
		</clipPath>
	</defs>
	<g clip-path="url(#clip2_11)">
		<mask id="mask2_15" mask-type="alpha" maskUnits="userSpaceOnUse" x="0.500000" y="0.000000" width="361.000000" height="96.000000">
			<rect id="rect" x="0.500000" width="361.000000" height="96.000000" fill="#000000" fill-opacity="1.000000"/>
		</mask>
		<g mask="url(#mask2_15)">
			<path id="path" d="M148.42 25.97L139.69 25.97L139.69 30.08C139.69 33.03 138.08 35.28 134.74 35.28L133.14 35.28L133.14 43.82L138.79 43.82L138.79 57.5C138.79 63.86 142.83 67.77 149.45 67.77C152.53 67.77 154.14 67.07 154.52 66.87L154.52 58.78C153.94 58.91 152.98 59.1 151.95 59.1C149.83 59.1 148.42 58.4 148.42 55.76L148.42 43.82L154.65 43.82L154.65 35.28L148.42 35.28L148.42 25.97ZM168.65 47.42L181.43 47.42C181.3 44.98 179.63 42.02 175.01 42.02C170.9 42.02 168.84 45.04 168.65 47.42ZM182.14 55.7L190.29 58.01C188.75 63.54 183.68 68.16 175.59 68.16C166.79 68.16 158.95 61.87 158.95 51.14C158.95 40.87 166.6 34.32 174.88 34.32C184.77 34.32 190.87 40.42 190.87 50.69C190.87 52.04 190.74 53.52 190.68 53.71L168.46 53.71C168.65 57.31 171.93 59.87 175.72 59.87C179.25 59.87 181.24 58.21 182.14 55.7ZM217.46 35.28C216.82 35.09 215.85 34.96 214.89 34.96C212.32 34.96 208.28 35.98 206.61 39.58L206.61 35.28L197.17 35.28L197.17 67.2L206.93 67.2L206.93 53.26C206.93 46.9 210.46 44.59 214.38 44.59C215.34 44.59 216.37 44.65 217.46 44.91L217.46 35.28ZM232.81 67.2L232.81 48.83C232.81 45.94 234.67 43.31 238.07 43.31C241.61 43.31 243.21 45.68 243.21 48.7L243.21 67.2L252.84 67.2L252.84 48.76C252.84 45.94 254.71 43.31 258.17 43.31C261.64 43.31 263.25 45.68 263.25 48.7L263.25 67.2L272.69 67.2L272.69 46.52C272.69 37.85 266.91 34.32 260.87 34.32C256.57 34.32 253.49 35.73 250.98 39.32C249.38 36.18 246.1 34.32 241.54 34.32C238.07 34.32 233.96 36.11 232.36 38.94L232.36 35.28L223.05 35.28L223.05 67.2L232.81 67.2ZM290.67 67.2L290.67 35.28L280.91 35.28L280.91 67.2L290.67 67.2ZM280.07 25.52C280.07 28.66 282.64 31.23 285.73 31.23C288.94 31.23 291.51 28.66 291.51 25.52C291.51 22.37 288.94 19.8 285.73 19.8C282.64 19.8 280.07 22.37 280.07 25.52ZM319.83 67.2L329.2 67.2C329.14 66.68 328.88 64.37 328.88 61.48L328.88 35.28L319.12 35.28L319.12 53.45C319.12 56.66 317.07 58.91 313.79 58.91C310.32 58.91 308.65 56.47 308.65 53.39L308.65 35.28L298.89 35.28L298.89 55.44C298.89 62.25 303.26 67.9 311.03 67.9C314.24 67.9 317.9 66.75 319.57 63.99C319.57 64.82 319.7 66.62 319.83 67.2ZM334.85 58.14C335.11 61.67 338.32 68.16 348.34 68.16C356.88 68.16 361.06 62.83 361.06 57.37C361.06 52.68 357.85 48.7 351.23 47.35L346.99 46.52C345.58 46.26 344.49 45.49 344.49 44.14C344.49 42.47 346.09 41.38 347.96 41.38C350.91 41.38 352.26 43.18 352.52 45.3L360.61 43.82C360.29 40.09 357.07 34.32 347.83 34.32C340.7 34.32 335.56 39.07 335.56 44.91C335.56 49.41 338.26 53.26 345.07 54.74L348.73 55.57C351.1 56.09 351.87 57.05 351.87 58.21C351.87 59.62 350.65 60.97 348.15 60.97C344.81 60.97 343.27 58.85 343.14 56.66L334.85 58.14Z" fill="#4D547B" fill-opacity="1.000000" fill-rule="evenodd"/>
			<path id="path" d="M83.14 81.85C82.76 81.85 82.38 81.84 81.99 81.82C76.59 90.03 67.42 95.03 57.48 95.03L57.48 87.54C65.51 87.54 72.86 83.17 76.7 76.11L77.92 73.86L80.46 74.19C81.35 74.3 82.25 74.36 83.14 74.36C94.65 74.36 104.02 64.99 104.02 53.48C104.02 47.31 101.16 41.26 96.37 37.32L94.9 36.11L95.01 34.2C95.04 33.81 95.05 33.41 95.05 33.01C95.05 21.96 86.06 12.97 75.01 12.97C71.03 12.97 67.2 14.13 63.89 16.34L61.1 18.2L58.95 15.63C55.12 11.08 49.55 8.48 43.6 8.48C32.56 8.48 23.56 17.47 23.56 28.52C23.56 28.83 23.57 29.14 23.59 29.45L23.7 31.99L21.38 33.04C13.84 36.44 8.98 43.95 8.98 52.22C8.98 63.81 18.41 73.24 30 73.24C31.23 73.24 32.47 73.13 33.67 72.92L36.49 72.42L37.71 75C41.32 82.63 49.06 87.54 57.48 87.54L57.48 95.03C47.09 95.03 37.49 89.47 32.23 80.64C31.49 80.69 30.75 80.72 30 80.72C14.28 80.72 1.5 67.94 1.5 52.22C1.5 41.83 7.14 32.33 16.1 27.32C16.73 12.7 28.82 0.99 43.6 0.99C50.69 0.99 57.4 3.69 62.49 8.49C66.35 6.51 70.62 5.48 75.01 5.48C90.11 5.48 102.41 17.7 102.53 32.78C108.2 38.11 111.51 45.69 111.51 53.48C111.51 69.12 98.79 81.85 83.14 81.85ZM71.7 57.59C69.16 58.56 66.66 59.06 64.25 59.06C61.83 59.06 59.45 58.56 57.17 57.59C57.08 57.55 57.08 57.55 56.99 57.51C56.15 57.15 55.79 56.71 55.79 55.76L55.79 54.49C55.79 53.36 56.44 52.64 57.49 52.64L57.72 52.68C59.81 53.5 62.04 53.94 64.25 53.94C66.46 53.94 68.77 53.52 71.13 52.69L71.34 52.64C72.39 52.64 73.1 53.36 73.1 54.49L73.1 55.76C73.1 56.77 72.67 57.17 71.7 57.59ZM40.49 45.37C39.78 45.52 39.24 46.09 39.24 47.12L39.24 49.25C39.24 50.06 39.74 50.61 40.51 50.61C40.69 50.61 40.88 50.58 41.08 50.52L53.39 46.54C54.33 46.23 54.84 45.48 54.84 44.45L54.84 42.68C54.84 41.65 54.33 40.9 53.39 40.59L41.11 36.62C40.89 36.54 40.68 36.49 40.46 36.49C39.81 36.49 39.24 36.9 39.24 37.85L39.24 40.02C39.24 41.01 39.76 41.57 40.48 41.76L47.37 43.57L40.49 45.37Z" fill="#4D547B" fill-opacity="1.000000" fill-rule="nonzero"/>
			<path id="path" d="M57.48 95.03C67.42 95.03 76.59 90.03 81.99 81.82C82.38 81.84 82.76 81.85 83.14 81.85C98.79 81.85 111.51 69.12 111.51 53.48C111.51 45.69 108.2 38.11 102.53 32.78C102.41 17.7 90.11 5.48 75.01 5.48C70.62 5.48 66.35 6.52 62.49 8.49C57.4 3.69 50.69 1 43.6 1C28.82 1 16.73 12.7 16.1 27.32C7.14 32.33 1.5 41.83 1.5 52.22C1.5 67.94 14.28 80.72 30 80.72C30.75 80.72 31.49 80.69 32.23 80.64C37.49 89.47 47.09 95.03 57.48 95.03ZM57.48 87.54C65.51 87.54 72.86 83.17 76.7 76.11L77.92 73.86L80.46 74.19C81.35 74.3 82.25 74.36 83.14 74.36C94.65 74.36 104.02 64.99 104.02 53.48C104.02 47.31 101.16 41.26 96.37 37.32L94.9 36.11L95.01 34.2C95.04 33.81 95.05 33.41 95.05 33.01C95.05 21.96 86.06 12.97 75.01 12.97C71.03 12.97 67.2 14.13 63.89 16.34L61.1 18.2L58.95 15.63C55.12 11.08 49.55 8.48 43.6 8.48C32.56 8.48 23.56 17.47 23.56 28.52C23.56 28.83 23.57 29.14 23.59 29.45L23.7 31.99L21.38 33.04C13.84 36.44 8.98 43.95 8.98 52.22C8.98 63.81 18.41 73.24 30 73.24C31.23 73.24 32.47 73.13 33.67 72.92L36.49 72.42L37.71 75C41.32 82.63 49.06 87.54 57.48 87.54ZM71.7 57.59C69.16 58.56 66.66 59.06 64.25 59.06C61.83 59.06 59.45 58.56 57.17 57.59C57.08 57.55 57.08 57.55 56.99 57.51C56.15 57.15 55.79 56.71 55.79 55.76L55.79 54.49C55.79 53.36 56.44 52.64 57.49 52.64L57.72 52.68C59.81 53.5 62.04 53.94 64.25 53.94C66.46 53.94 68.77 53.52 71.13 52.69L71.34 52.64C72.39 52.64 73.1 53.36 73.1 54.49L73.1 55.76C73.1 56.77 72.67 57.17 71.7 57.59ZM40.49 45.37C39.78 45.52 39.24 46.09 39.24 47.12L39.24 49.25C39.24 50.06 39.74 50.61 40.51 50.61C40.69 50.61 40.88 50.58 41.08 50.52L53.39 46.54C54.33 46.23 54.84 45.48 54.84 44.45L54.84 42.68C54.84 41.65 54.33 40.9 53.39 40.59L41.11 36.62C40.89 36.54 40.68 36.49 40.46 36.49C39.81 36.49 39.24 36.9 39.24 37.85L39.24 40.02C39.24 41.01 39.76 41.57 40.48 41.76L47.37 43.57L40.49 45.37Z" fill="#000000" fill-opacity="0" fill-rule="nonzero"/>
			<path id="path" d="M81.99 81.82C82.38 81.84 82.76 81.85 83.14 81.85C98.79 81.85 111.51 69.12 111.51 53.48C111.51 45.69 108.2 38.11 102.53 32.78C102.41 17.7 90.11 5.48 75.01 5.48C70.62 5.48 66.35 6.52 62.49 8.49C57.4 3.69 50.69 1 43.6 1C28.82 1 16.73 12.7 16.1 27.32C7.14 32.33 1.5 41.83 1.5 52.22C1.5 67.94 14.28 80.72 30 80.72C30.75 80.72 31.49 80.69 32.23 80.64C37.49 89.47 47.09 95.03 57.48 95.03C67.42 95.03 76.59 90.03 81.99 81.82ZM57.48 95.03L57.48 87.54M76.7 76.11L77.92 73.86L80.46 74.19C81.35 74.3 82.25 74.36 83.14 74.36C94.65 74.36 104.02 64.99 104.02 53.48C104.02 47.31 101.16 41.26 96.37 37.32L94.9 36.11L95.01 34.2C95.04 33.81 95.05 33.41 95.05 33.01C95.05 21.96 86.06 12.97 75.01 12.97C71.03 12.97 67.2 14.13 63.89 16.34L61.1 18.2L58.95 15.63C55.12 11.08 49.55 8.48 43.6 8.48C32.56 8.48 23.56 17.47 23.56 28.52C23.56 28.83 23.57 29.14 23.59 29.45L23.7 31.99L21.38 33.04C13.84 36.44 8.98 43.95 8.98 52.22C8.98 63.81 18.41 73.24 30 73.24C31.23 73.24 32.47 73.13 33.67 72.92L36.49 72.42L37.71 75C41.32 82.63 49.06 87.54 57.48 87.54C65.51 87.54 72.86 83.17 76.7 76.11ZM64.25 59.06C61.83 59.06 59.45 58.56 57.17 57.59C57.08 57.55 57.08 57.55 56.99 57.51C56.15 57.15 55.79 56.71 55.79 55.76L55.79 54.49C55.79 53.36 56.44 52.64 57.49 52.64L57.72 52.68C59.81 53.5 62.04 53.94 64.25 53.94C66.46 53.94 68.77 53.52 71.13 52.69L71.34 52.64C72.39 52.64 73.1 53.36 73.1 54.49L73.1 55.76C73.1 56.77 72.67 57.17 71.7 57.59C69.16 58.56 66.66 59.06 64.25 59.06ZM39.24 47.12L39.24 49.25C39.24 50.06 39.74 50.61 40.51 50.61C40.69 50.61 40.88 50.58 41.08 50.52L53.39 46.54C54.33 46.23 54.84 45.48 54.84 44.45L54.84 42.68C54.84 41.65 54.33 40.9 53.39 40.59L41.11 36.62C40.89 36.54 40.68 36.49 40.46 36.49C39.81 36.49 39.24 36.9 39.24 37.85L39.24 40.02C39.24 41.01 39.76 41.57 40.48 41.76L47.37 43.57L40.49 45.37C39.78 45.52 39.24 46.09 39.24 47.12Z" stroke="#4D547B" stroke-opacity="1.000000" stroke-width="0.500000"/>
		</g>
	</g>
</svg>
