<svg id="Icons" height="512" viewBox="0 0 60 60" width="512" xmlns="http://www.w3.org/2000/svg"><path d="m3.832 33.113a.5.5 0 0 1 -.273-.919l14.127-9.234-13.893 8.02a.5.5 0 0 1 -.522-.852l15.592-10.115-14.291 8.251a.5.5 0 0 1 -.513-.858l3.441-2.131-2.7 1.56a.5.5 0 0 1 -.523-.852l14.033-9.142-14.651 8.459a.5.5 0 0 1 -.518-.855l9.743-6.188-9.968 5.753a.5.5 0 0 1 -.518-.855l8.954-5.677-9.044 5.222a.5.5 0 0 1 -.521-.853l10.789-6.934-10.792 6.228a.5.5 0 0 1 -.522-.852l11.219-7.289-11.06 6.388a.5.5 0 0 1 -.516-.857l2.669-1.671-2.274 1.311a.5.5 0 0 1 -.522-.853l8.011-5.182-7.471 4.315a.5.5 0 0 1 -.518-.851l5.767-3.724-5.011 2.891a.5.5 0 0 1 -.524-.852l5.006-3.268-3.97 2.291a.5.5 0 0 1 -.537-.841l6.923-4.855-5.014 2.9a.5.5 0 0 1 -.561-.824l4.043-3.231a.51.51 0 0 1 -.5-.246.5.5 0 0 1 .182-.683l5.387-3.11a.5.5 0 0 1 .562.823l-3.846 3.07 9.093-5.249a.5.5 0 0 1 .537.842l-6.924 4.855 9.915-5.724a.5.5 0 0 1 .524.852l-5.013 3.272 6.661-3.843a.5.5 0 0 1 .522.853l-5.758 3.715 7.136-4.121a.5.5 0 0 1 .522.852l-8.01 5.182 9.348-5.4a.5.5 0 0 1 .515.857l-2.675 1.681 3.416-1.971a.5.5 0 0 1 .522.851l-11.227 7.288 12.425-7.172a.5.5 0 0 1 .521.853l-10.783 6.931 11.713-6.763a.5.5 0 0 1 .518.855l-8.955 5.678 9.591-5.536a.5.5 0 0 1 .518.855l-9.739 6.186 10.288-5.939a.5.5 0 0 1 .523.851l-14.031 9.138 14.691-8.48a.5.5 0 0 1 .513.858l-3.458 2.142 2.907-1.678a.5.5 0 0 1 .522.852l-15.594 10.115 12.841-7.413a.5.5 0 0 1 .524.852l-14.124 9.232 11.4-6.584a.5.5 0 0 1 .529.848l-8.649 5.83 6.162-3.557a.5.5 0 0 1 .542.838l-8.133 5.848 5.327-3.073a.5.5 0 0 1 .544.837l-1.638 1.191a.465.465 0 0 1 .463.249.5.5 0 0 1 -.183.683l-7.608 4.392a.5.5 0 0 1 -.544-.837l1.229-.893-5.754 3.321a.5.5 0 0 1 -.542-.839l8.133-5.847-9.951 5.743a.5.5 0 0 1 -.529-.848l8.648-5.829-14.586 8.423a.494.494 0 0 1 -.25.067z" fill="#f7c63b"/><path d="m54.938 43.457a.5.5 0 0 1 -.423-.766l.382-.611-1.17.676a.5.5 0 0 1 -.648-.736l.948-1.242-1.9 1.1a.5.5 0 0 1 -.6-.791l.824-.8-1.52.877a.5.5 0 0 1 -.608-.781l2.467-2.531-5.637 3.248a.5.5 0 0 1 -.542-.838l2.288-1.65-3.099 1.788a.5.5 0 0 1 -.546-.836l5.41-3.964-6.689 3.861a.5.5 0 0 1 -.543-.838l7.4-5.362-8.908 5.142a.5.5 0 0 1 -.531-.846l6.083-4.132-7.176 4.144a.5.5 0 0 1 -.536-.842l9.227-6.43-10.754 6.209a.5.5 0 0 1 -.525-.851l5.875-3.85-6.826 3.94a.5.5 0 0 1 -.524-.85l6.929-4.542-7.957 4.592a.5.5 0 0 1 -.53-.846l10.971-7.438-12.5 7.22a.5.5 0 0 1 -.529-.848l11.575-7.8-13.132 7.576a.5.5 0 0 1 -.524-.851l9.66-6.328-10.88 6.281a.5.5 0 0 1 -.516-.856l2.936-1.844-3.61 2.089a.5.5 0 0 1 -.523-.852l10.231-6.681-11.473 6.62a.5.5 0 0 1 -.521-.853l8.856-5.711-9.938 5.738a.5.5 0 0 1 -.522-.852l10.278-6.687-11.5 6.639a.5.5 0 0 1 -.523-.851l10.761-7.027-12.039 6.95a.5.5 0 0 1 -.518-.854l7.148-4.559-7.464 4.309a.5.5 0 0 1 -.525-.851l10.652-7.013-10.01 5.779a.5.5 0 0 1 -.516-.856l1.989-1.256-1.237.714a.5.5 0 0 1 -.536-.846l9.507-6.554-8.132 4.7a.5.5 0 0 1 -.528-.848l3.3-2.2-1.747 1.008a.5.5 0 0 1 -.567-.818l4.539-3.735-.072.047a.5.5 0 0 1 -.5-.866l5.315-3.068a.5.5 0 0 1 .567.818l-4.541 3.737 10.175-5.878a.5.5 0 0 1 .527.848l-3.289 2.188 5.282-3.049a.5.5 0 0 1 .534.845l-9.508 6.553 12.133-7a.5.5 0 0 1 .516.856l-2 1.263 3.033-1.751a.5.5 0 0 1 .526.85l-10.652 7.011 12.353-7.132a.5.5 0 0 1 .519.854l-7.141 4.554 8.192-4.733a.5.5 0 0 1 .524.851l-10.765 7.035 12-6.93a.5.5 0 0 1 .523.851l-10.272 6.683 11.277-6.51a.5.5 0 0 1 .52.853l-8.848 5.709 9.6-5.542a.5.5 0 0 1 .523.851l-10.24 6.688 10.979-6.339a.5.5 0 0 1 .515.856l-2.929 1.844 3.18-1.836a.5.5 0 0 1 .524.851l-9.66 6.325 10.143-5.86a.5.5 0 0 1 .529.847l-11.578 7.805 12.064-6.964a.5.5 0 0 1 .53.847l-10.973 7.438 11.236-6.486a.5.5 0 0 1 .524.851l-6.932 4.545 6.847-3.954a.5.5 0 0 1 .525.851l-5.86 3.84 5.627-3.248a.5.5 0 0 1 .536.843l-9.231 6.432 8.836-5.1a.5.5 0 0 1 .531.846l-6.08 4.13 5.416-3.127a.5.5 0 0 1 .543.838l-7.4 5.363 6.278-3.625a.5.5 0 0 1 .546.836l-5.41 3.966 3.74-2.154a.5.5 0 0 1 .542.838l-2.288 1.649.2-.112a.5.5 0 0 1 .609.781l-2.469 2.532 1.865-1.076a.5.5 0 0 1 .6.791l-.825.8.585-.337a.5.5 0 0 1 .648.736l-.948 1.241.745-.43a.5.5 0 0 1 .674.7l-.446.711a.5.5 0 0 1 .274.933l-1.451.838a.489.489 0 0 1 -.256.062z" fill="#3d93e8"/><path d="m29.318 59.462a.5.5 0 0 1 -.28-.914l6.5-4.407-8.862 5.116a.5.5 0 0 1 -.522-.853l4.9-3.174-6.454 3.724a.5.5 0 0 1 -.516-.856l.584-.367-1.547.893a.5.5 0 0 1 -.522-.852l9.258-6.019-10.819 6.247a.5.5 0 0 1 -.514-.857l-.686.4a.5.5 0 0 1 -.519-.854l8.209-5.215-9.228 5.326a.5.5 0 0 1 -.516-.857l5.694-3.564-11.345 6.55a.5.5 0 0 1 -.515-.857l10.582-6.617-10.451 6.036a.5.5 0 0 1 -.519-.854l15.5-9.874-14.28 8.237a.5.5 0 0 1 -.521-.853l16.479-10.658-15.436 8.911a.5.5 0 0 1 -.514-.857l4.956-3.074-5.17 2.984a.5.5 0 0 1 -.521-.852l14.5-9.367-14.983 8.651a.5.5 0 0 1 -.519-.854l12.425-7.944-12.634 7.294a.5.5 0 0 1 -.521-.854l12.753-8.2-12.831 7.405a.5.5 0 0 1 -.514-.857l2.747-1.7-2.517 1.45a.5.5 0 0 1 -.525-.851l13.761-9.057-13.541 7.817a.5.5 0 0 1 -.522-.851l10.711-6.983-10.203 5.9a.5.5 0 0 1 -.52-.854l5.7-3.637-4.99 2.87a.5.5 0 0 1 -.521-.853l4.907-3.157-3.97 2.293a.5.5 0 0 1 -.524-.851l5.08-3.341-3.772 2.177a.5.5 0 0 1 -.524-.851l1.582-1.037a.5.5 0 0 1 -.56-.826l4.151-3.272a.493.493 0 0 1 -.467-.249.5.5 0 0 1 .182-.683l5.506-3.179a.5.5 0 0 1 .56.826l-3.872 3.052 9.206-5.314a.5.5 0 0 1 .524.85l-1.583 1.036 3.47-2a.5.5 0 0 1 .524.85l-5.076 3.338 6.993-4.037a.5.5 0 0 1 .521.853l-4.908 3.16 6.382-3.685a.5.5 0 0 1 .519.854l-5.69 3.634 6.96-4.017a.5.5 0 0 1 .522.851l-10.714 6.982 12.246-7.07a.5.5 0 0 1 .526.85l-13.763 9.059 15.318-8.844a.5.5 0 0 1 .514.857l-2.749 1.703 3.283-1.894a.5.5 0 0 1 .521.853l-12.75 8.203 13.723-7.923a.5.5 0 0 1 .52.853l-12.424 7.943 13.188-7.614a.5.5 0 0 1 .521.853l-14.494 9.363 15.212-8.784a.5.5 0 0 1 .513.857l-4.972 3.085 5.159-2.978a.5.5 0 0 1 .521.852l-16.474 10.661 16.962-9.793a.5.5 0 0 1 .518.854l-15.489 9.871 15.7-9.065a.5.5 0 0 1 .515.856l-10.6 6.621 10.534-6.082a.5.5 0 0 1 .515.857l-5.702 3.568 5.47-3.155a.5.5 0 0 1 .518.854l-8.2 5.207 7.872-4.545a.5.5 0 0 1 .514.858l-.362.223a.507.507 0 0 1 .576.216.5.5 0 0 1 -.154.681l-9.244 6.013 8.626-4.981a.5.5 0 0 1 .516.857l-.66.414a.5.5 0 0 1 .465.881l-4.9 3.176 3.924-2.264a.5.5 0 0 1 .53.846l-6.5 4.41 4.963-2.864a.5.5 0 0 1 .543.838l-5.041 3.653 2.415-1.394a.5.5 0 1 1 .5.865l-10.782 6.224a.5.5 0 0 1 -.543-.838l5.043-3.654-8.521 4.924a.5.5 0 0 1 -.25.062z" fill="#c7e0ef"/><path d="m17.6 45.443a.5.5 0 0 1 -.35-.857l.493-.482-1.248.721a.5.5 0 0 1 -.574-.813l.19-.162-.346.2a.5.5 0 0 1 -.6-.787l1.4-1.394-1.271.734a.5.5 0 0 1 -.633-.755l.936-1.112a.5.5 0 0 1 -.23-.932l2.05-1.184a.5.5 0 0 1 .633.755l-.79.938 2.12-1.223a.5.5 0 0 1 .6.787l-1.4 1.394 1.813-1.046a.5.5 0 0 1 .574.813l-.207.176a.5.5 0 0 1 .538.82l-.611.6a.49.49 0 0 1 .493.246.5.5 0 0 1 -.18.68l-3.146 1.816a.491.491 0 0 1 -.254.067z" fill="#afc9d8"/><path d="m27.834 45.231a.5.5 0 0 1 -.354-.853l1.2-1.2-1.8 1.039a.5.5 0 0 1 -.581-.808l.7-.618-.627.361a.5.5 0 0 1 -.661-.717l1.273-1.835-.12.068a.5.5 0 0 1 -.5-.865l2.05-1.184a.5.5 0 0 1 .661.718l-1.275 1.839 3.013-1.739a.5.5 0 0 1 .581.807l-.7.617.786-.454a.5.5 0 0 1 .6.786l-1.2 1.2.809-.467a.5.5 0 1 1 .5.865l-4.112 2.374a.489.489 0 0 1 -.243.066z" fill="#afc9d8"/><path d="m40.336 45.447a.5.5 0 0 1 -.37-.836l.484-.534-1.642.948a.5.5 0 0 1 -.581-.807l.438-.387-.751.434a.5.5 0 0 1 -.614-.776l1.7-1.8-1.7.98a.5.5 0 0 1 -.636-.75l.97-1.179a.545.545 0 0 1 -.448-.25.5.5 0 0 1 .182-.682l2.05-1.184a.5.5 0 0 1 .636.75l-.863 1.05 2.243-1.3a.5.5 0 0 1 .614.775l-1.7 1.8 2.152-1.238a.5.5 0 0 1 .581.808l-.438.385.07-.04a.5.5 0 0 1 .62.769l-.816.9a.492.492 0 0 1 .3.232.5.5 0 0 1 -.182.682l-2.05 1.184a.489.489 0 0 1 -.249.066z" fill="#afc9d8"/><g fill="#262626"><path d="m59.7 24.992c-.8-11.131-13.129-17.719-23.4-16.227-11.151-18.424-47.367-2.016-32.581 17.768.306 1.337-.782 2.931-.982 4.341-.535 4.5 4.788 1.381 6.655.143a20.506 20.506 0 0 0 2.725 1.127 15.354 15.354 0 0 0 -.086 20.085c.139.345-.142.931-.261 1.345-2.97 7 1.471 6.581 6.107 3.337 11.988 6.644 31.155-.423 30.812-15.467.351-.152.7-.313 1.041-.484 6.179 4.36 9.2 2.552 6.214-4.687 2.077-3.093 4.214-7.125 3.756-11.281zm-48.727 5.655c-2.073-1.344-4.028 1.7-6.034 2-1.819-.1-.27-3.731-.05-4.492 1.277-1.9-.855-3.076-1.533-4.75-9.027-18.842 21.573-30.424 31.411-14.392-8.573 1.538-15.732 8.856-15.47 17.794a20.375 20.375 0 0 0 -6.5 4.582 17.03 17.03 0 0 1 -1.824-.742zm23.959 27.193a22.544 22.544 0 0 1 -16.289-1.776c-1.913-.016-3.582 1.872-5.305 2.538-3.385-1.08 1.739-5.554-.426-7.462-9.567-12.089 3.936-27.555 17.475-25.7 18.884.877 23.336 26.966 4.545 32.4zm19.547-21.24c3.756 12.01-1.546 1.672-5.835 3.913-1.072-13.276-16.654-18.816-27.9-14.3 1.728-29.692 51.509-15.36 33.735 10.387z"/><path d="m19.416 38.67c-5.857-2-7.061 7.877-.743 6.8 3.476-.506 4.192-5.66.743-6.8zm.423 4.837c-2.529 3.29-6.238-2.639-2.511-3.881 2.09-.604 3.754 2.182 2.511 3.881z"/><path d="m32.724 41.806c-.309-5.681-9.817-2.895-6.952 2.052 1.816 2.931 7.056 1.395 6.952-2.052zm-2.976 2.7c.118-.04-.28.063-.158.041-3 .51-4.016-4.554-1.017-5.111 2.74-.245 3.75 4.115 1.175 5.064z"/><path d="m41.445 38.845c-5.779-1.6-7.287 7.437-.83 6.323 3.385-.409 4.337-5.305.83-6.323zm.334 4.954c-2.656 3.253-5.981-3.127-2.569-4.457a.385.385 0 0 1 .116-.035c2.196-.267 3.803 2.671 2.453 4.493z"/></g></svg>