<svg id="Layer_1" height="512" viewBox="0 0 256 256" width="512" xmlns="http://www.w3.org/2000/svg"><g><g><g><g><g><g><path d="m112.127 219.254h31.746v18.779h-31.746z" fill="#939598"/></g></g><g><g><path d="m137.984 219.254v8.179c0 2.602-2.109 4.711-4.711 4.711h-21.146v5.889h31.746v-18.779z" fill="#808285"/></g></g><g><g><path d="m57.236 250.961h141.528v-7.039c0-3.252-2.637-5.889-5.889-5.889h-129.75c-3.252 0-5.889 2.637-5.889 5.889z" fill="#58595b"/></g></g><g><g><path d="m193.7 238.097c.038.27.064.544.064.825v5.039c0 1.105-.895 2-2 2h-134.528v5h141.528v-7.039c0-2.971-2.203-5.423-5.064-5.825z" fill="#414042"/></g></g><g><g><path d="m21.315 219.254h213.37c5.523 0 10-4.477 10-10v-128.292c0-5.523-4.477-10-10-10h-213.37c-5.523 0-10 4.477-10 10v128.292c0 5.523 4.477 10 10 10z" fill="#58595b"/></g></g><g><g><circle cx="128" cy="208.851" fill="#939598" r="4.5"/></g></g><g><g><path d="m238.794 71.853c.567 1.255.89 2.643.89 4.109v128.292c0 5.522-4.477 10-10 10h-213.369c-1.466 0-2.855-.324-4.11-.891 1.569 3.471 5.053 5.891 9.11 5.891h213.37c5.523 0 10-4.478 10-10v-128.292c0-4.056-2.42-7.541-5.891-9.109z" fill="#414042"/></g></g><g><g><path d="m24.829 199.988h206.343c2.761 0 5-2.239 5-5v-109.76c0-2.761-2.239-5-5-5h-206.343c-2.761 0-5 2.239-5 5v109.761c0 2.761 2.238 4.999 5 4.999z" fill="#478cf7"/></g></g><g><g><path d="m25.828 176.449c-1.104 0-2-.896-2-2v-61c0-1.104.896-2 2-2s2 .896 2 2v61c0 1.105-.895 2-2 2zm0-69c-1.104 0-2-.896-2-2v-.654c0-1.104.896-2 2-2s2 .896 2 2v.654c0 1.105-.895 2-2 2z" fill="#5e9cf7"/></g></g><g><g><path d="m231.171 80.228h-5v104.76c0 2.761-2.239 5-5 5h-201.342v5c0 2.761 2.239 5 5 5h206.343c2.761 0 5-2.239 5-5v-109.76c-.001-2.761-2.239-5-5.001-5z" fill="#377de2"/></g></g><g><g><path d="m231.171 80.228v109.76c0 2.761-2.239 5-5 5h-206.342c0 2.761 2.239 5 5 5h206.343c2.761 0 5-2.239 5-5v-109.76c-.001-2.761-2.239-5-5.001-5z" fill="#2266d3"/></g></g></g></g></g><g><g><g><g><path d="m188.128 124.087h-120.256c-2.761 0-5-2.239-5-5v-109.048c0-2.761 2.239-5 5-5h120.257c2.761 0 5 2.239 5 5v109.048c-.001 2.762-2.239 5-5.001 5z" fill="#e6e7e8"/></g></g><g><path d="m188.128 24.685h5v79.757h-5z" fill="#d1d3d4"/></g><g><g><path d="m193.128 10.039c0-2.761-2.239-5-5-5h-120.256c-2.761 0-5 2.239-5 5v14.646h130.257v-14.646z" fill="#58595b"/></g></g><g><g><path d="m188.128 5.039h-5c2.761 0 5 2.239 5 5v14.646h5v-14.646c0-2.761-2.238-5-5-5z" fill="#414042"/></g></g><g><g><path d="m193.128 119.087c0 2.761-2.239 5-5 5h-120.256c-2.761 0-5-2.239-5-5v-14.646h130.257v14.646z" fill="#58595b"/></g></g><g><g><path d="m188.128 104.442v9.646c0 2.761-2.239 5-5 5h-120.256c0 2.761 2.239 5 5 5h120.257c2.761 0 5-2.239 5-5v-14.646z" fill="#414042"/></g></g><g><g><path d="m177.307 100.033h-98.614c-2.761 0-5-2.239-5-5v-60.94c0-2.761 2.239-5 5-5h98.614c2.761 0 5 2.239 5 5v60.94c0 2.762-2.239 5-5 5z" fill="#a54af4"/></g></g><g><g><path d="m177.307 29.093v60.94c0 2.761-2.239 5-5 5h-98.614c0 2.761 2.239 5 5 5h98.614c2.761 0 5-2.239 5-5v-60.94c0-2.761-2.239-5-5-5z" fill="#893add"/></g></g><g><g><g><path d="m113.015 80.138v-31.149c0-2.287 2.534-3.664 4.453-2.42l24.028 15.574c1.754 1.137 1.754 3.703 0 4.84l-24.028 15.574c-1.919 1.245-4.453-.133-4.453-2.419z" fill="#ffc91d"/></g></g></g><g><g><path d="m141.496 62.143-3.706-2.402c-.053.865-.474 1.711-1.294 2.242l-23.48 15.219v2.935c0 2.287 2.534 3.664 4.453 2.42l24.028-15.574c1.753-1.136 1.753-3.703-.001-4.84z" fill="#ffa91a"/></g></g></g><g><g><g><path d="m106.437 119.325h-6.572c-.731 0-1.323-.592-1.323-1.323v-6.572c0-.731.592-1.323 1.323-1.323h6.572c.731 0 1.323.592 1.323 1.323v6.572c0 .73-.592 1.323-1.323 1.323z" fill="#e6e7e8"/></g></g><g><g><g><path d="m106.437 19.02h-6.572c-.731 0-1.323-.592-1.323-1.323v-6.572c0-.731.592-1.323 1.323-1.323h6.572c.731 0 1.323.592 1.323 1.323v6.572c0 .731-.592 1.323-1.323 1.323z" fill="#e6e7e8"/></g></g><g><g><g><path d="m81.588 19.02h-6.572c-.731 0-1.323-.592-1.323-1.323v-6.572c0-.731.592-1.323 1.323-1.323h6.572c.731 0 1.323.592 1.323 1.323v6.572c0 .731-.592 1.323-1.323 1.323z" fill="#e6e7e8"/></g></g><g><g><path d="m81.588 119.325h-6.572c-.731 0-1.323-.592-1.323-1.323v-6.572c0-.731.592-1.323 1.323-1.323h6.572c.731 0 1.323.592 1.323 1.323v6.572c0 .73-.592 1.323-1.323 1.323z" fill="#e6e7e8"/></g></g></g><g><g><g><path d="m131.286 19.02h-6.572c-.731 0-1.323-.592-1.323-1.323v-6.572c0-.731.592-1.323 1.323-1.323h6.572c.731 0 1.323.592 1.323 1.323v6.572c0 .731-.592 1.323-1.323 1.323z" fill="#e6e7e8"/></g></g><g><g><path d="m131.286 119.325h-6.572c-.731 0-1.323-.592-1.323-1.323v-6.572c0-.731.592-1.323 1.323-1.323h6.572c.731 0 1.323.592 1.323 1.323v6.572c0 .73-.592 1.323-1.323 1.323z" fill="#e6e7e8"/></g></g></g><g><g><g><path d="m156.135 19.02h-6.572c-.731 0-1.323-.592-1.323-1.323v-6.572c0-.731.592-1.323 1.323-1.323h6.572c.731 0 1.323.592 1.323 1.323v6.572c0 .731-.592 1.323-1.323 1.323z" fill="#e6e7e8"/></g></g><g><g><path d="m156.135 119.325h-6.572c-.731 0-1.323-.592-1.323-1.323v-6.572c0-.731.592-1.323 1.323-1.323h6.572c.731 0 1.323.592 1.323 1.323v6.572c0 .73-.592 1.323-1.323 1.323z" fill="#e6e7e8"/></g></g></g><g><g><g><path d="m180.984 19.02h-6.572c-.731 0-1.323-.592-1.323-1.323v-6.572c0-.731.592-1.323 1.323-1.323h6.572c.731 0 1.323.592 1.323 1.323v6.572c0 .731-.592 1.323-1.323 1.323z" fill="#e6e7e8"/></g></g><g><g><path d="m180.984 119.325h-6.572c-.731 0-1.323-.592-1.323-1.323v-6.572c0-.731.592-1.323 1.323-1.323h6.572c.731 0 1.323.592 1.323 1.323v6.572c0 .73-.592 1.323-1.323 1.323z" fill="#e6e7e8"/></g></g></g></g></g></g><g><g><g><path d="m107.713 170.962h20.573c1.105 0 2-.895 2-2v-8c0-1.105-.895-2-2-2h-20.573c-1.105 0-2 .895-2 2v8c0 1.104.896 2 2 2z" fill="#ffc91d"/></g></g><g><g><path d="m213.713 155.962h-81.427c-1.105 0-2-.895-2-2v-8c0-1.105.895-2 2-2h81.427c1.105 0 2 .895 2 2v8c0 1.104-.895 2-2 2z" fill="#ffc91d"/></g></g><g><g><path d="m103.713 185.962h-61.426c-1.105 0-2-.895-2-2v-8c0-1.105.895-2 2-2h61.427c1.105 0 2 .895 2 2v8c-.001 1.104-.896 2-2.001 2z" fill="#ffc91d"/></g></g></g><g><g><path d="m83.419 187.961c-1.104 0-2-.896-2-2v-49.88c0-1.104.896-2 2-2s2 .896 2 2v49.88c0 1.105-.896 2-2 2z" fill="#d10028"/></g></g><g><g><circle cx="83.419" cy="135.087" fill="#d10028" r="5"/></g></g></g></svg>